<?xml version="1.0" standalone="no"?>
<!DOCTYPE svg PUBLIC "-//W3C//DTD SVG 1.1//EN" "http://www.w3.org/Graphics/SVG/1.1/DTD/svg11.dtd" >
<svg>
<metadata>
Created by FontForge 20090914 at Fri Jun 11 14:01:15 2021
 By www-data
Copyright (c) 2013 by Type Dynamic. All rights reserved.
</metadata>
<defs>
<font id="Larsseit-Medium" horiz-adv-x="256" >
  <font-face 
    font-family="Larsseit Medium"
    font-weight="500"
    font-stretch="normal"
    units-per-em="1000"
    panose-1="0 0 0 0 0 0 0 0 0 0"
    ascent="800"
    descent="-200"
    x-height="506"
    cap-height="700"
    bbox="-189 -287.998 3073 986"
    underline-thickness="50"
    underline-position="-150"
    unicode-range="U+0020-U+FB01"
  />
<missing-glyph horiz-adv-x="594" 
d="M62 0v700h470v-700h-470zM296 401l150 240h-301zM474 119v454l-145 -227zM442 59l-146 232l-147 -232h293zM261 346l-140 222v-444z" />
    <glyph glyph-name="fi" unicode="fi" horiz-adv-x="592" 
d="M262 740c23.333 0 44 -3.66699 62 -11v-95c-20 7.33301 -39 11 -57 11c-39.333 0 -59 -25.333 -59 -76v-63h116v-97h-116v-409h-107v409h-89v97h89v66c0 54 13.833 95.5 41.5 124.5s67.5 43.5 119.5 43.5zM410 506h106v-506h-106v506zM395 657
c0 19.333 6.5 35.5 19.5 48.5s29.167 19.5 48.5 19.5s35.666 -6.66699 48.999 -20s20 -29.333 20 -48s-6.66699 -34.334 -20 -47.001s-29.666 -19 -48.999 -19s-35.5 6.33301 -48.5 19s-19.5 28.334 -19.5 47.001z" />
    <glyph glyph-name="f_j" unicode="fj" horiz-adv-x="592" 
d="M262 740c23.333 0 44 -3.66699 62 -11v-95c-20 7.33301 -39 11 -57 11c-39.333 0 -59 -25.333 -59 -76v-63h116v-97h-116v-409h-107v409h-89v97h89v66c0 54 13.833 95.5 41.5 124.5s67.5 43.5 119.5 43.5zM410 506h106.001v-546c0 -124 -53.333 -186 -160 -186
c-31.333 0 -56 3 -74 9v96c18 -5.33301 36.667 -8 56 -8c25.333 0 43.666 7.5 54.999 22.5s17 38.167 17 69.5v543zM395.001 657c0 19.333 6.5 35.5 19.5 48.5s29.167 19.5 48.5 19.5s35.666 -6.66699 48.999 -20s20 -29.333 20 -48s-6.66699 -34.334 -20 -47.001
s-29.666 -19 -48.999 -19s-35.5 6.33301 -48.5 19s-19.5 28.334 -19.5 47.001z" />
    <glyph glyph-name=".notdef" horiz-adv-x="594" 
d="M62 0v700h470v-700h-470zM296 401l150 240h-301zM474 119v454l-145 -227zM442 59l-146 232l-147 -232h293zM261 346l-140 222v-444z" />
    <glyph glyph-name="space" unicode=" " horiz-adv-x="202" 
 />
    <glyph glyph-name="exclam" unicode="!" 
d="M75 700h106v-494h-106v494zM77 108c14 13.333 31 20 51 20s37 -6.66699 51 -20c14 -12.667 21 -29 21 -49s-7 -36.667 -21 -50s-31 -20 -51 -20s-37 6.66699 -51 20c-13.333 13.333 -20 30 -20 50s6.66699 36.333 20 49z" />
    <glyph glyph-name="quotedbl" unicode="&#x22;" horiz-adv-x="332" 
d="M35 728h100l-23 -214h-69zM203 728h100l-23 -214h-69z" />
    <glyph glyph-name="numbersign" unicode="#" horiz-adv-x="667" 
d="M495 267h111v-99h-129l-29 -168h-106l29 168h-143l-29 -168h-106l29 168h-107v99h125l32 184h-111v99h129l26 150h106l-26 -150h143l26 150h106l-26 -150h107v-99h-125zM421 451h-143l-32 -184h143z" />
    <glyph glyph-name="dollar" unicode="$" horiz-adv-x="553" 
d="M240 804l80.9941 0.00390625v-94c50.667 -8 90.334 -29 119.001 -63s44.334 -79.667 47.001 -137h-114c-0.666992 32 -10 57.167 -28 75.5s-42.333 27.5 -73 27.5c-29.333 0 -52.5 -8.16699 -69.5 -24.5s-25.5 -38.833 -25.5 -67.5s9.33301 -50.334 28 -65.001
s53.334 -31.667 104.001 -51c72 -24.667 123.333 -53.334 154 -86.001c30.667 -30.667 46 -72.334 46 -125.001c0 -56.667 -17 -103.167 -51 -139.5s-79.667 -57.833 -137 -64.5v-94h-81v94c-61.333 7.33301 -108.666 30.5 -141.999 69.5s-50.666 89.167 -51.999 150.5h113
c1.33301 -40 12.833 -70.667 34.5 -92s52.167 -32 91.5 -32c34.667 0 61.834 9 81.501 27s29.5 42.333 29.5 73c0 26 -10.167 47.667 -30.5 65s-55.833 34.333 -106.5 51c-66.667 22.667 -116 49.667 -148 81c-31.333 31.333 -47 74.333 -47 129
c0 53.333 15.833 98.166 47.5 134.499s74.5 57.833 128.5 64.5v93z" />
    <glyph glyph-name="percent" unicode="%" horiz-adv-x="862" 
d="M574 700h114l-400 -700h-114zM200 713c48 0 88.668 -16.666 122.001 -49.999c32.667 -32.667 49 -74.667 49 -126c0 -50.667 -16.333 -92.334 -49 -125.001c-33.333 -33.333 -74 -50 -122 -50c-50 0 -91.333 16.333 -124 49s-49 74.667 -49 126s16.333 93.333 49 126
c33.333 33.333 74.666 50 123.999 50zM115.001 537.001c0 -26 8.00098 -47.667 24.001 -65s36 -26 60 -26s43.833 8.66699 59.5 26s23.5 39 23.5 65c0 26.667 -7.66699 48.667 -23 66s-35.333 26 -60 26s-44.834 -8.66699 -60.501 -26s-23.5 -39.333 -23.5 -66z
M664.002 338.001c48 0 88.6689 -17.001 122.002 -51.001c33.333 -33.333 50 -75.333 50 -126c0 -50 -16.667 -91.667 -50 -125c-32.667 -32.667 -73.334 -49 -122.001 -49c-50 0 -91.333 16.333 -124 49s-49 74.334 -49 125.001c0 51.333 16.333 93.333 49 126
c33.333 34 74.666 51 123.999 51zM664.004 254c-24.667 0 -45 -8.83301 -61 -26.5s-24 -39.5 -24 -65.5s8 -47.667 24 -65s36.333 -26 61 -26c24 0 43.833 8.66699 59.5 26s23.5 39 23.5 65s-7.83301 47.833 -23.5 65.5s-35.5 26.5 -59.5 26.5z" />
    <glyph glyph-name="ampersand" unicode="&#x26;" horiz-adv-x="656" 
d="M282 713c56 0 101.333 -14.998 136 -44.998c35.333 -30 53 -70.333 53 -121c0 -48.667 -14.333 -87.334 -43 -116.001c-24 -24 -54.667 -46.667 -92 -68l-2 -1l127 -138l6 27c6.66699 38.667 6.66699 76.334 0 113.001l103 5c6.66699 -44 7 -88 1 -132
c-6 -34.667 -16.667 -67.334 -32 -98.001l128 -139h-144l-50 54c-50.667 -44.667 -114.334 -67 -191.001 -67c-76 0 -135.833 17.833 -179.5 53.5s-65.5 84.5 -65.5 146.5c0 42 10.833 77.5 32.5 106.5s54.834 56.5 99.501 82.5l6 4l-16 18
c-43.333 47.333 -65 95.666 -65 144.999c0 50.667 17 91.667 51 123s79.667 47 137 47zM286 82.002c48.667 0 89 15.0029 121 45.0029l-166 181h-1c-31.333 -18.667 -54 -36.834 -68 -54.501s-21 -38.834 -21 -63.501c0 -34.667 12 -61.334 36 -80.001s57 -28 99 -28z
M205 543.005c0 -12 2.66992 -24.333 8.00293 -37c8 -16.667 22.333 -36 43 -58l12 -14l2 1c1.33301 0.666992 6.16602 3.5 14.499 8.5s13.166 7.83301 14.499 8.5c1.33301 1.33301 5.66602 4.33301 12.999 9l14 9c12 12 20.667 22.833 26 32.5s8 22.5 8 38.5
c0 22.667 -7 41.167 -21 55.5s-32.333 21.5 -55 21.5s-41.5 -7 -56.5 -21s-22.5 -32 -22.5 -54z" />
    <glyph glyph-name="quotesingle" unicode="'" horiz-adv-x="164" 
d="M35 728h100l-23 -214h-69z" />
    <glyph glyph-name="parenleft" unicode="(" horiz-adv-x="284" 
d="M199 739l76 -51.999c-45.333 -59.333 -78.333 -116.666 -99 -171.999c-20 -55.333 -30 -120 -30 -194s10 -139 30 -195c21.333 -54.667 54.333 -111.667 99 -171l-76 -52c-52 64.667 -90.667 130.167 -116 196.5s-38 140.166 -38 221.499s12.667 155.166 38 221.499
s64 131.833 116 196.5z" />
    <glyph glyph-name="parenright" unicode=")" horiz-adv-x="284" 
d="M9 687l76 52c52.667 -66 91.667 -132 117 -198s38 -139.333 38 -220s-12.667 -154 -38 -220s-64.333 -132 -117 -198l-76 52c45.333 58.667 78 115.334 98 170.001c20.667 55.333 31 120.666 31 195.999c0 76 -10.333 141 -31 195c-20 55.333 -52.667 112.333 -98 171z
" />
    <glyph glyph-name="asterisk" unicode="*" horiz-adv-x="356" 
d="M139 738h77l-3 -118l108 40l25 -73l-111 -34l72 -94l-62 -45l-67 95l-66 -95l-62 45l70 92l-111 35l24 73l109 -39z" />
    <glyph glyph-name="plus" unicode="+" horiz-adv-x="472" 
d="M188 556h96v-159h158v-95h-158v-158h-96v158h-158v95h158v159z" />
    <glyph glyph-name="comma" unicode="," horiz-adv-x="208" 
d="M172 51c0 -62.667 -25.667 -123.668 -77 -183.001l-33 12c18 33.333 29 71.333 33 114c-18 2 -32.333 8.83301 -43 20.5s-16 26.5 -16 44.5c0 18.667 6.5 34.334 19.5 47.001s29.167 19 48.5 19c20 0 36.333 -6.83301 49 -20.5s19 -31.5 19 -53.5z" />
    <glyph glyph-name="hyphen" unicode="-" horiz-adv-x="365" 
d="M25 307h315v-95h-315v95z" />
    <glyph glyph-name="period" unicode="." horiz-adv-x="211" 
d="M55 108c13.333 13.333 30 20 50 20s36.667 -6.66699 50 -20c14 -12.667 21 -29 21 -49s-7 -36.667 -21 -50c-13.333 -13.333 -30 -20 -50 -20s-36.667 6.66699 -50 20s-20 30 -20 50s6.66699 36.333 20 49z" />
    <glyph glyph-name="slash" unicode="/" horiz-adv-x="398" 
d="M288 700h105l-283 -700h-105z" />
    <glyph glyph-name="zero" unicode="0" horiz-adv-x="564" 
d="M523 351c0 -112.667 -21 -201.667 -63 -267c-42 -64.667 -101.333 -97 -178 -97s-136 32.333 -178 97c-42 65.333 -63 154.333 -63 267c0 111.333 21 199.666 63 264.999c42 64.667 101.333 97 178 97s136 -32.333 178 -97c42 -65.333 63 -153.666 63 -264.999zM155 351
c0 -82.667 10.833 -146.5 32.5 -191.5s53.167 -67.5 94.5 -67.5s72.833 22.5 94.5 67.5s32.5 108.833 32.5 191.5s-10.833 146.167 -32.5 190.5s-53.167 66.5 -94.5 66.5s-72.833 -22.167 -94.5 -66.5s-32.5 -107.833 -32.5 -190.5z" />
    <glyph glyph-name="one" unicode="1" horiz-adv-x="361" 
d="M205 700h83.999v-700h-112v513h-148v95c55.333 0 96.333 6.83301 123 20.5s44.334 37.5 53.001 71.5z" />
    <glyph glyph-name="two" unicode="2" horiz-adv-x="492" 
d="M252 713c64 0 113.498 -17.666 148.498 -52.999s52.5 -83.666 52.5 -144.999c0 -65.333 -28.667 -133.333 -86 -204l-164 -206h257v-105h-412v82l220 271c26.667 32.667 45.334 60.167 56.001 82.5s16 47.166 16 74.499c0 65.333 -30 98 -90 98
c-30 0 -53.5 -9.66699 -70.5 -29s-25.167 -48 -24.5 -86h-112c-1.33301 67.333 17.334 120.666 56.001 159.999c38 40 89 60 153 60z" />
    <glyph glyph-name="three" unicode="3" horiz-adv-x="538" 
d="M263 713c63.333 0 113.663 -19.001 150.996 -57.001c36.667 -36.667 55 -84.334 55 -143.001c0 -37.333 -8.66699 -69 -26 -95s-39.666 -44 -66.999 -54c34.667 -10 62.834 -29.667 84.501 -59s32.5 -66 32.5 -110c0 -62.667 -20.667 -113 -62 -151
c-40.667 -38 -95 -57 -163 -57c-70.667 0 -126.167 19.333 -166.5 58s-60.5 92.667 -60.5 162h112c0.666992 -38 11.334 -66.667 32.001 -86s49.334 -29 86.001 -29c32.667 0 58.834 9.66699 78.501 29s29.5 45.333 29.5 78c0 37.333 -12.333 65.666 -37 84.999
s-60.334 29 -107.001 29h-31v98h30c42 0 72.833 7.83301 92.5 23.5s29.5 40.5 29.5 74.5c0 30.667 -8 54.834 -24 72.501s-38.667 26.5 -68 26.5c-28.667 0 -52 -9.66699 -70 -29s-27 -46.666 -27 -81.999h-112c0 66.667 18.833 119.334 56.5 158.001s88.167 58 151.5 58z
" />
    <glyph glyph-name="four" unicode="4" horiz-adv-x="556" 
d="M295 700h137v-464h94v-101h-94v-135h-113v135h-293v91zM321 235v316l-20 -41l-155 -275h175z" />
    <glyph glyph-name="five" unicode="5" horiz-adv-x="537" 
d="M74 700h390.997v-105h-277v-174c27.333 15.333 62.333 23 105 23c63.333 0 113.833 -19.333 151.5 -58s56.5 -92.334 56.5 -161.001c0 -72 -20.333 -129.667 -61 -173c-40 -43.333 -94.667 -65 -164 -65s-123.666 18.333 -162.999 55s-59 88.334 -59 155.001h113
c0.666992 -34.667 10.667 -60.834 30 -78.501s46 -26.5 80 -26.5c34.667 0 61.834 11.5 81.501 34.5s29.5 54.167 29.5 93.5c0 38.667 -10 68.834 -30 90.501s-48 32.5 -84 32.5c-37.333 0 -70.666 -9.66699 -99.999 -29h-100v386z" />
    <glyph glyph-name="six" unicode="6" horiz-adv-x="552" 
d="M291 713c58.667 0 107.333 -18.666 146 -55.999c38.667 -36.667 59.334 -85.334 62.001 -146.001h-114c-4.66699 64.667 -37.334 97 -98.001 97c-42 0 -73.5 -18.667 -94.5 -56s-32.167 -96.333 -33.5 -177c14 18 33.333 32.667 58 44s51.334 17 80.001 17
c65.333 0 117.666 -20.667 156.999 -62s59 -93.666 59 -156.999c0 -68.667 -21 -124.334 -63 -167.001c-41.333 -42 -95.333 -63 -162 -63c-72.667 0 -129.667 23.667 -171 71c-47.333 55.333 -71 147.333 -71 276c0 126.667 20 221.5 60 284.5s101.667 94.5 185 94.5z
M283.999 336.001c-32 0 -59.668 -11.001 -83.001 -33.001c-22 -21.333 -33.667 -48.666 -35 -81.999v-5c0 -34 11 -63.333 33 -88c22 -25.333 50.333 -38 85 -38c34 0 61.5 11.833 82.5 35.5s31.5 53.5 31.5 89.5c0 34.667 -10.667 63.5 -32 86.5s-48.666 34.5 -81.999 34.5
z" />
    <glyph glyph-name="seven" unicode="7" horiz-adv-x="497" 
d="M37 700h425v-91l-270 -609h-122l264 594h-297v106z" />
    <glyph glyph-name="eight" unicode="8" horiz-adv-x="551" 
d="M276 713c60.667 0 110.667 -19.668 150 -59.001c38.667 -38.667 58 -86.334 58 -143.001c0 -34.667 -7.66699 -65.5 -23 -92.5s-34.666 -46.833 -57.999 -59.5c68 -33.333 102 -87.666 102 -162.999c0 -60 -22 -110 -66 -150c-44.667 -39.333 -99 -59 -163 -59
c-64.667 0 -119.334 19.667 -164.001 59c-44 40 -66 90 -66 150c0 39.333 9.33301 73.166 28 101.499s43.334 48.833 74.001 61.5c-23.333 13.333 -42.5 33.333 -57.5 60s-22.5 57.334 -22.5 92.001c0 56.667 19 104.334 57 143.001c39.333 39.333 89.666 59 150.999 59z
M276 309.999c-33.333 0 -61.166 -10.333 -83.499 -31s-33.5 -47.334 -33.5 -80.001s11.167 -59 33.5 -79s50.166 -30 83.499 -30s60.833 10 82.5 30s32.5 46.333 32.5 79s-11 59.334 -33 80.001s-49.333 31 -82 31zM276 608.999c-29.333 0 -53 -9.16699 -71 -27.5
s-27 -42.833 -27 -73.5c0 -30 9 -54 27 -72s41.667 -27 71 -27c28.667 0 52 9 70 27s27 42 27 72s-9.16699 54.333 -27.5 73s-41.5 28 -69.5 28z" />
    <glyph glyph-name="nine" unicode="9" horiz-adv-x="552" 
d="M260 -13c-59.333 0 -108.333 18.332 -147 54.999c-37.333 36.667 -57.666 85.667 -60.999 147h114c4.66699 -64.667 37.334 -97 98.001 -97c42 0 73.5 18.5 94.5 55.5s32.167 95.833 33.5 176.5c-14 -18 -33.333 -32.5 -58 -43.5s-51.334 -16.5 -80.001 -16.5
c-66.667 0 -119.334 20.333 -158.001 61s-58 93.334 -58 158.001c0 68 20.667 123.333 62 166c42 42.667 96.333 64 163 64c72.667 0 129.667 -23.667 171 -71c47.333 -55.333 71 -147.333 71 -276c0 -126.667 -20 -221.5 -60 -284.5s-101.667 -94.5 -185 -94.5z
M267 363.999c32.667 0 60.334 11.334 83.001 34.001c23.333 23.333 35 52 35 86c0 33.333 -11 62.666 -33 87.999s-50.333 38 -85 38c-34 0 -61.5 -11.833 -82.5 -35.5s-31.5 -53.5 -31.5 -89.5c0 -34.667 10.667 -63.5 32 -86.5s48.666 -34.5 81.999 -34.5z" />
    <glyph glyph-name="colon" unicode=":" horiz-adv-x="211" 
d="M176 446c0 -19.333 -6.83301 -35.666 -20.5 -48.999s-30.5 -20 -50.5 -20s-36.667 6.66699 -50 20s-20 29.666 -20 48.999c0 20 6.66699 36.833 20 50.5s30 20.5 50 20.5s36.833 -6.83301 50.5 -20.5s20.5 -30.5 20.5 -50.5zM55 108c13.333 13.333 30 20 50 20
s36.667 -6.66699 50 -20c14 -12.667 21 -29 21 -49s-7 -36.667 -21 -50c-13.333 -13.333 -30 -20 -50 -20s-36.667 6.66699 -50 20s-20 30 -20 50s6.66699 36.333 20 49z" />
    <glyph glyph-name="semicolon" unicode=";" horiz-adv-x="211" 
d="M176 446c0 -19.333 -6.83301 -35.666 -20.5 -48.999s-30.5 -20 -50.5 -20s-36.667 6.66699 -50 20s-20 29.666 -20 48.999c0 20 6.66699 36.833 20 50.5s30 20.5 50 20.5s36.833 -6.83301 50.5 -20.5s20.5 -30.5 20.5 -50.5zM174 51c0 -63.333 -26 -124.334 -78 -183.001
l-32 12c17.333 30.667 28.333 68.667 33 114c-18 2 -32.5 8.83301 -43.5 20.5s-16.5 26.5 -16.5 44.5c0 18.667 6.5 34.334 19.5 47.001s29.167 19 48.5 19c20 0 36.5 -6.83301 49.5 -20.5s19.5 -31.5 19.5 -53.5z" />
    <glyph glyph-name="less" unicode="&#x3c;" horiz-adv-x="270" 
d="M154 446h103l-147 -196l147 -195h-103l-142 187v17z" />
    <glyph glyph-name="equal" unicode="=" horiz-adv-x="472" 
d="M30 499h412v-93h-412v93zM30 293h412v-94h-412v94z" />
    <glyph glyph-name="greater" unicode="&#x3e;" horiz-adv-x="270" 
d="M12 446h104l141 -187v-17l-141 -187h-104l148 195z" />
    <glyph glyph-name="question" unicode="?" horiz-adv-x="428" 
d="M209 715c58 0 106.668 -17.001 146.001 -51.001s59 -81 59 -141c0 -63.333 -18.333 -114 -55 -152l-34 -32.5c-15.333 -14.333 -27 -25.666 -35 -33.999s-15.5 -18.833 -22.5 -31.5s-10.5 -25 -10.5 -37v-30h-107v34c0 46 19 85.667 57 119
c3.33301 2.66699 11.166 9.5 23.499 20.5s20.833 18.833 25.5 23.5s11.5 12.167 20.5 22.5s15.5 19.5 19.5 27.5s7.66699 18 11 30s5 24.333 5 37c0 34 -9.16699 60.5 -27.5 79.5s-42.833 28.5 -73.5 28.5c-34 0 -60.333 -10 -79 -30s-28 -48 -28 -84h-101
c1.33301 63.333 21 112.333 59 147c38.667 36 87.667 54 147 54zM153.001 107.999c14 13.333 31 20 51 20s36.667 -6.66699 50 -20c14 -12.667 21 -29 21 -49s-7 -36.667 -21 -50c-13.333 -13.333 -30 -20 -50 -20s-37 6.66699 -51 20c-13.333 13.333 -20 30 -20 50
s6.66699 36.333 20 49z" />
    <glyph glyph-name="at" unicode="@" horiz-adv-x="817" 
d="M398 363c-32.667 0 -59 -11.5 -79 -34.5s-30 -52.833 -30 -89.5c0 -36 10 -65.167 30 -87.5s45.667 -33.5 77 -33.5s57.5 10.167 78.5 30.5s31.5 47.833 31.5 82.5v14c0 35.333 -10.5 63.833 -31.5 85.5s-46.5 32.5 -76.5 32.5zM781 240
c0 -70.667 -15.3311 -122.332 -45.998 -154.999c-30 -33.333 -66 -50 -108 -50c-52 0 -87.333 20.333 -106 61c-32 -41.333 -77.667 -62 -137 -62c-55.333 0 -100.333 19.333 -135 58s-52 87.667 -52 147s17.333 108.333 52 147c35.333 39.333 79.333 59 132 59
c60 0 103 -22.667 129 -68l5 59h78v-278c0 -20 3.5 -34.5 10.5 -43.5s18.5 -13.5 34.5 -13.5c46.667 0 70 46.333 70 139c0 88 -27.333 160.333 -82 217c-54 57.333 -126 86 -216 86c-92 0 -165.333 -28.333 -220 -85s-82 -129.334 -82 -218.001
c0 -89.333 27.333 -162.333 82 -219s128 -85 220 -85c48.667 0 94 10 136 30l24 -66c-46.667 -21.333 -100 -32 -160 -32c-112.667 0 -203.334 35 -272.001 105c-68 68.667 -102 157.667 -102 267c0 110 34.333 199.333 103 268c69.333 69.333 159.666 104 270.999 104
c112 0 201.667 -35 269 -105c68 -70 102 -159 102 -267z" />
    <glyph glyph-name="A" unicode="A" horiz-adv-x="706" 
d="M293 700h120l277 -700h-123l-67 171h-295l-66 -171h-123zM365 522l-13 38l-13 -38l-97 -250h222z" />
    <glyph glyph-name="B" unicode="B" horiz-adv-x="583" 
d="M75 700l207.001 -0.000976562c69.333 0 124.166 -17.5 164.499 -52.5s60.5 -82.167 60.5 -141.5c0 -61.333 -23 -108.333 -69 -141c34.667 -13.333 61.667 -34.166 81 -62.499s29 -61.5 29 -99.5c0 -62 -21.333 -111.333 -64 -148c-41.333 -36.667 -98 -55 -170 -55h-239
v700zM314.001 304.999l-127 0.000976562v-200h127c36.667 0 65.5 8.83301 86.5 26.5s31.5 42.5 31.5 74.5c0 31.333 -10.5 55.666 -31.5 72.999s-49.833 26 -86.5 26zM282.001 595h-95v-190h98c32.667 0 58.667 8.5 78 25.5s29 39.5 29 67.5
c0 31.333 -9.66699 55.333 -29 72s-46.333 25 -81 25z" />
    <glyph glyph-name="C" unicode="C" horiz-adv-x="732" 
d="M386 713c82.667 0 151 -20 205 -60s91 -96.333 111 -169h-124c-30 82.667 -94 124 -192 124c-68 0 -123.333 -24.333 -166 -73c-42.667 -47.333 -64 -109 -64 -185c0 -74.667 21.333 -136.334 64 -185.001s98.667 -73 168 -73c100 0 165.333 43 196 129h120
c-20 -75.333 -56.833 -133.166 -110.5 -173.499s-122.167 -60.5 -205.5 -60.5c-102 0 -186 34.333 -252 103c-65.333 69.333 -98 156 -98 260s32.667 190.667 98 260c64.667 68.667 148 103 250 103z" />
    <glyph glyph-name="D" unicode="D" horiz-adv-x="731" 
d="M75 700h255.999c108.667 0 195.334 -32.333 260.001 -97c65.333 -64 98 -148.333 98 -253c0 -105.333 -32.667 -190 -98 -254s-152 -96 -260 -96h-256v700zM330.999 595h-143.999v-490h144c76 0 135.5 21.5 178.5 64.5s64.5 103.167 64.5 180.5s-21.333 137.5 -64 180.5
s-102.334 64.5 -179.001 64.5z" />
    <glyph glyph-name="E" unicode="E" horiz-adv-x="514" 
d="M75 700h393v-105h-281v-183h245v-104h-245v-203h281v-105h-393v700z" />
    <glyph glyph-name="F" unicode="F" horiz-adv-x="486" 
d="M75 700h386v-105h-274v-192h233v-105h-233v-298h-112v700z" />
    <glyph glyph-name="G" unicode="G" horiz-adv-x="758" 
d="M386 713c82.667 0 151 -19.998 205 -59.998s91 -96.333 111 -169h-124c-30 82.667 -94.333 124 -193 124c-67.333 0 -122.333 -24.333 -165 -73c-42.667 -47.333 -64 -109 -64 -185c0 -74.667 21.333 -136.334 64 -185.001s99 -73 169 -73
c60.667 0 108.667 14.667 144 44s54.333 71.666 57 126.999h-190v105h309v-54c0 -102 -29 -182 -87 -240c-57.333 -58 -135 -87 -233 -87c-102.667 0 -187 34.333 -253 103c-65.333 69.333 -98 156 -98 260s32.667 190.667 98 260c64.667 68.667 148 103 250 103z" />
    <glyph glyph-name="H" unicode="H" horiz-adv-x="712" 
d="M525 700h112v-700h-112v309h-338v-309h-112v700h112v-285h338v285z" />
    <glyph glyph-name="I" unicode="I" horiz-adv-x="262" 
d="M75 700h112v-700h-112v700z" />
    <glyph glyph-name="J" unicode="J" horiz-adv-x="514" 
d="M336 700l112 0.000976562v-493c0 -70 -17.667 -123.5 -53 -160.5s-86 -55.5 -152 -55.5c-70 0 -123.167 20 -159.5 60s-55.5 96.667 -57.5 170h112c4 -83.333 39 -125 105 -125c30 0 53 10.167 69 30.5s24 49.166 24 86.499v487z" />
    <glyph glyph-name="K" unicode="K" horiz-adv-x="676" 
d="M467 700h138l-228 -311l282 -389h-135l-223 299l-110 -140v-159h-112v700h112v-377z" />
    <glyph glyph-name="L" unicode="L" horiz-adv-x="512" 
d="M74 700h112v-595h303v-105h-415v700z" />
    <glyph glyph-name="M" unicode="M" horiz-adv-x="882" 
d="M681 700h127v-700h-112v486l-20 -57l-189 -429h-93l-188 429l-19 57v-486h-112v700h126l222 -485l17 -43l19 43z" />
    <glyph glyph-name="N" unicode="N" horiz-adv-x="720" 
d="M534 700h112v-700h-111l-321 466l-27 44v-510h-112v700h110l319 -465l30 -47v512z" />
    <glyph glyph-name="O" unicode="O" horiz-adv-x="797" 
d="M399 713c105.333 0 191.333 -34.333 258 -103c67.333 -68.667 101 -155 101 -259c0 -104.667 -33.667 -191.667 -101 -261c-66.667 -68.667 -152.667 -103 -258 -103s-192 34.333 -260 103c-67.333 69.333 -101 156.333 -101 261c0 104 33.667 190.333 101 259
c68 68.667 154.667 103 260 103zM156 351c0 -75.333 22.333 -137.333 67 -186s103.334 -73 176.001 -73c72 0 130.333 24.333 175 73s67 110.667 67 186s-22.333 136.666 -67 183.999c-44.667 48.667 -103 73 -175 73c-72.667 0 -131.334 -24.333 -176.001 -73
c-44.667 -47.333 -67 -108.666 -67 -183.999z" />
    <glyph glyph-name="P" unicode="P" horiz-adv-x="551" 
d="M75 700h215c72 0 129.333 -20.333 172 -61c43.333 -41.333 65 -94.333 65 -159c0 -64 -21.667 -116.667 -65 -158c-42.667 -40 -100 -60 -172 -60h-103v-262h-112v700zM290 595h-103v-228h103c38 0 68 10 90 30s33 47.667 33 83c0 36 -11 64.167 -33 84.5
s-52 30.5 -90 30.5z" />
    <glyph glyph-name="Q" unicode="Q" horiz-adv-x="792" 
d="M399 713c105.333 0 191.333 -34.333 258 -103c67.333 -68.667 101 -155 101 -259c0 -116 -39.333 -208.333 -118 -277l177 -178h-156l-118 118c-47.333 -18 -95.333 -27 -144 -27c-105.333 0 -192 34.333 -260 103c-67.333 69.333 -101 156.333 -101 261
c0 104 33.667 190.333 101 259c68 68.667 154.667 103 260 103zM156 351c0 -75.333 22.333 -137.332 67 -185.999s103.334 -73 176.001 -73c20.667 0 40 2 58 6l-119 117h157l65 -63c54 49.333 81 115.666 81 198.999c0 75.333 -22.333 136.666 -67 183.999
c-44.667 48.667 -103 73 -175 73c-72.667 0 -131.334 -24.333 -176.001 -73c-44.667 -47.333 -67 -108.666 -67 -183.999z" />
    <glyph glyph-name="R" unicode="R" horiz-adv-x="563" 
d="M75 700h202.001c71.333 0 128.666 -20 171.999 -60c43.333 -39.333 65 -91.333 65 -156c0 -44.667 -11.167 -83.667 -33.5 -117s-53.5 -58 -93.5 -74l157 -293h-128l-146 274h-83v-274h-112v700zM277.001 595l-90 0.000976562v-221h90c38 0 68 9.5 90 28.5
s33 46.167 33 81.5s-11 62.666 -33 81.999s-52 29 -90 29z" />
    <glyph glyph-name="S" unicode="S" horiz-adv-x="538" 
d="M268 713c64.667 0 115.497 -17.4971 152.497 -52.4971s56.833 -85.167 59.5 -150.5h-114c-0.666992 32 -10.167 57.167 -28.5 75.5s-42.5 27.5 -72.5 27.5c-29.333 0 -52.5 -8.16699 -69.5 -24.5s-25.5 -38.833 -25.5 -67.5s9.33301 -50.334 28 -65.001
s53.334 -31.667 104.001 -51c72 -24.667 123.333 -53.334 154 -86.001c30.667 -30.667 46 -72.334 46 -125.001c0 -64 -21 -114.667 -63 -152c-41.333 -36.667 -95.333 -55 -162 -55c-74.667 0 -132.667 19.833 -174 59.5s-62.666 94.167 -63.999 163.5h113
c1.33301 -40 12.833 -70.667 34.5 -92s52.167 -32 91.5 -32c34.667 0 61.834 9 81.501 27s29.5 42.333 29.5 73c0 26 -10.167 47.667 -30.5 65s-55.833 34.333 -106.5 51c-66.667 22.667 -116 49.667 -148 81c-31.333 31.333 -47 74.333 -47 129c0 58.667 19 106.667 57 144
c38 38 89.333 57 154 57z" />
    <glyph glyph-name="T" unicode="T" horiz-adv-x="611" 
d="M11 700h589v-105h-239v-595h-112v595h-238v105z" />
    <glyph glyph-name="U" unicode="U" horiz-adv-x="690" 
d="M511 700h113.002v-421c0 -93.333 -24.333 -165.333 -73 -216s-117.334 -76 -206.001 -76s-157.334 25.333 -206.001 76s-73 122.667 -73 216v421h112v-421c0 -124.667 55.667 -187 167 -187c110.667 0 166 62.333 166 187v421z" />
    <glyph glyph-name="V" unicode="V" horiz-adv-x="689" 
d="M555 700h120l-278 -700h-104l-279 700h120l196 -498l14 -47l15 47z" />
    <glyph glyph-name="W" unicode="W" horiz-adv-x="994" 
d="M859 700h118l-218 -700h-115l-136 448l-11 47l-10 -47l-136 -448h-116l-218 700h119l148 -480l11 -51l10 51l142 480h100l143 -480l9 -51l11 51z" />
    <glyph glyph-name="X" unicode="X" horiz-adv-x="691" 
d="M525 700h133l-236 -344l245 -356h-133l-189 272l-187 -272h-133l244 356l-235 344h133l178 -259z" />
    <glyph glyph-name="Y" unicode="Y" horiz-adv-x="680" 
d="M537 700h131l-271 -437v-263h-114v263l-271 437h131l171 -271l25 -47l26 47z" />
    <glyph glyph-name="Z" unicode="Z" horiz-adv-x="595" 
d="M42 700h503v-91l-361 -504h374v-105h-519v91l364 504h-361v105z" />
    <glyph glyph-name="bracketleft" unicode="[" horiz-adv-x="306" 
d="M70 716h211v-97h-110v-599h110v-97h-211v793z" />
    <glyph glyph-name="backslash" unicode="\" horiz-adv-x="398" 
d="M5 700h105l283 -700h-105z" />
    <glyph glyph-name="bracketright" unicode="]" horiz-adv-x="306" 
d="M25 716h211v-793h-211v97h110v599h-110v97z" />
    <glyph glyph-name="asciicircum" unicode="^" horiz-adv-x="539" 
d="M17 462l252 300l253 -300h-111l-142 169l-140 -169h-112z" />
    <glyph glyph-name="underscore" unicode="_" horiz-adv-x="635" 
d="M25 0h585v-95h-585v95z" />
    <glyph glyph-name="grave" unicode="`" horiz-adv-x="263" 
d="M10 732h134l109 -158h-95z" />
    <glyph glyph-name="a" unicode="a" horiz-adv-x="504" 
d="M252 517c60 0 106.667 -15.834 140 -47.501s50 -77.167 50 -136.5v-333h-94l-5 66c-30 -51.333 -79.667 -77 -149 -77c-46 0 -82.667 13 -110 39s-41 61 -41 105c0 80.667 49.333 130.334 148 149.001l144 26v23c0 60.667 -27.667 91 -83 91
c-26.667 0 -48.5 -7.33301 -65.5 -22s-25.5 -34 -25.5 -58h-103c2 50 20.667 91.667 56 125s81.333 50 138 50zM335 209.999l-0.000976562 17.998l-121 -26c-42.667 -8.66699 -64 -30 -64 -64c0 -17.333 6 -31.166 18 -41.499s29 -15.5 51 -15.5
c40.667 0 71.334 16.333 92.001 49c16 22.667 24 49.334 24 80.001z" />
    <glyph glyph-name="b" unicode="b" horiz-adv-x="609" 
d="M73 730h106.001v-287c15.333 22 37 39.833 65 53.5s59.667 20.5 95 20.5c69.333 0 126 -25.333 170 -76c44 -50 66 -112.667 66 -188s-22 -138.333 -66 -189c-44 -50 -100.333 -75 -169 -75c-74.667 0 -130.334 27.333 -167.001 82l-8 -71h-92v730zM320.001 416
c-37.333 0 -70.667 -15 -100 -45c-28.667 -28.667 -43 -67.667 -43 -117v-5c0 -48.667 14 -87.667 42 -117c28.667 -28.667 62.667 -43 102 -43c42.667 0 77.5 15.167 104.5 45.5s40.5 69.833 40.5 118.5c0 48 -13.667 87.167 -41 117.5s-62.333 45.5 -105 45.5z" />
    <glyph glyph-name="c" unicode="c" horiz-adv-x="550" 
d="M283 517c60.667 0 111.335 -15.666 152.002 -46.999s66.334 -75.333 77.001 -132h-104c-8.66699 26 -23.834 46 -45.501 60s-47.5 21 -77.5 21c-40 0 -73.667 -15.667 -101 -47c-26.667 -30.667 -40 -70.667 -40 -120c0 -48 13.333 -87.333 40 -118
c27.333 -31.333 61.666 -47 102.999 -47c29.333 0 55 7.33301 77 22s36.667 34 44 58h105c-12 -56.667 -38.667 -100.5 -80 -131.5s-91.333 -46.5 -150 -46.5c-72.667 0 -132.334 24.333 -179.001 73s-70 112 -70 190c0 77.333 23.333 140.666 70 189.999
c47.333 50 107 75 179 75z" />
    <glyph glyph-name="d" unicode="d" horiz-adv-x="609" 
d="M431 730h105.999v-730h-93l-7 71c-38 -54.667 -94 -82 -168 -82c-68.667 0 -125 25 -169 75c-44 50.667 -66 113.667 -66 189s22 138 66 188c44.667 50.667 101.334 76 170.001 76c72 0 125.667 -24.667 161 -74v287zM288.999 416c-42 0 -76.668 -15.167 -104.001 -45.5
s-41 -69.5 -41 -117.5c0 -48.667 13.333 -88.167 40 -118.5s61.334 -45.5 104.001 -45.5c39.333 0 73 14.333 101 43c28.667 28.667 43 67.667 43 117v5c0 49.333 -14.333 88.333 -43 117c-28.667 30 -62 45 -100 45z" />
    <glyph glyph-name="e" unicode="e" horiz-adv-x="556" 
d="M281 517c70.667 0 127 -22.667 169 -68s63 -109.333 63 -192v-41h-369c2.66699 -40.667 16.834 -73 42.501 -97s58.167 -36 97.5 -36c61.333 0 101.666 24 120.999 72h104c-16 -53.333 -43.5 -94.333 -82.5 -123s-87.5 -43 -145.5 -43c-73.333 0 -133 24 -179 72
c-45.333 48.667 -68 112.334 -68 191.001c0 77.333 22.667 140.666 68 189.999c45.333 50 105 75 179 75zM280 424c-37.333 0 -68.333 -11.5 -93 -34.5s-38.667 -53.167 -42 -90.5h261c-0.666992 38 -12.5 68.333 -35.5 91s-53.167 34 -90.5 34z" />
    <glyph glyph-name="f" unicode="f" horiz-adv-x="344" 
d="M267 740c26.667 0 49 -3.66699 67 -11v-95c-20 7.33301 -39 11 -57 11c-46 0 -69 -25.333 -69 -76v-63h121v-97h-121v-409h-107v409h-86v97h86v66c0 54 14.333 95.5 43 124.5s69.667 43.5 123 43.5z" />
    <glyph glyph-name="g" unicode="g" horiz-adv-x="512" 
d="M326 506h187.002v-92h-81c11.333 -26 17 -52 17 -78c0 -51.333 -18 -94 -54 -128c-36.667 -33.333 -83.667 -50 -141 -50c-35.333 0 -68 6.66699 -98 20c-10.667 -10.667 -16 -25 -16 -43c0 -14.667 5.16699 -26.167 15.5 -34.5s24.5 -12.5 42.5 -12.5h127
c52 0 92 -12.333 120 -37s42 -59.334 42 -104.001c0 -54 -19.333 -96.333 -58 -127s-91.334 -46 -158.001 -46c-72.667 0 -128.334 13.5 -167.001 40.5s-58 65.5 -58 115.5c0 40 18 70.333 54 91c-42.667 24.667 -64 60 -64 106c0 43.333 17.333 78.333 52 105
c-22 30.667 -33 65.334 -33 104.001c0 52.667 18.333 96 55 130c37.333 34 85.333 51 144 51c24 0 48 -3.66699 72 -11zM253.002 430c-28.667 0 -51.499 -8.66699 -68.499 -26s-25.5 -40 -25.5 -68c0 -26.667 8.66699 -48.834 26 -66.501s40 -26.5 68 -26.5
c27.333 0 49.666 8.83301 66.999 26.5s26 39.834 26 66.501c0 28 -8.5 50.667 -25.5 68s-39.5 26 -67.5 26zM301.003 2l-87.001 -0.00195312c-19.333 -1.33301 -34.666 -7.66602 -45.999 -18.999s-17 -26.666 -17 -45.999c0 -51.333 40 -77 120 -77c74.667 0 112 27 112 81
c0 40.667 -27.333 61 -82 61z" />
    <glyph glyph-name="h" unicode="h" horiz-adv-x="541" 
d="M73 730l106 -0.000976562v-283c26 46.667 70.333 70 133 70c52 0 92.333 -17 121 -51s43 -80 43 -138v-328h-107v307c0 34.667 -7.5 61 -22.5 79s-36.167 27 -63.5 27c-31.333 0 -56.5 -12.667 -75.5 -38s-28.5 -60.666 -28.5 -105.999v-269h-106v730z" />
    <glyph glyph-name="i" unicode="i" 
d="M75 506h106v-506h-106v506zM128 725c19.333 1.33301 35.8311 -5.33496 49.498 -20.002s20.334 -30.667 20.001 -48s-7.16602 -33 -20.499 -47c-14.667 -12 -31 -18.167 -49 -18.5s-34.167 5.83398 -48.5 18.501s-20.833 28.334 -19.5 47.001
c0 19.333 6.66699 35.5 20 48.5s29.333 19.5 48 19.5z" />
    <glyph glyph-name="j" unicode="j" 
d="M75 506h106.001v-546c0 -124 -53.333 -186 -160 -186c-31.333 0 -56 3 -74 9v96c18 -5.33301 36.667 -8 56 -8c25.333 0 43.666 7.5 54.999 22.5s17 38.167 17 69.5v543zM128.001 725c19.333 1.33301 35.8311 -5.33496 49.498 -20.002s20.334 -30.667 20.001 -48
s-7.16602 -33 -20.499 -47c-14.667 -12 -31 -18.167 -49 -18.5s-34.167 5.83398 -48.5 18.501s-20.833 28.334 -19.5 47.001c0 19.333 6.66699 35.5 20 48.5s29.333 19.5 48 19.5z" />
    <glyph glyph-name="k" unicode="k" horiz-adv-x="518" 
d="M77 730h106v-447l170 223h128l-156 -211l182 -295h-121l-136 213l-67 -83v-130h-106v730z" />
    <glyph glyph-name="l" unicode="l" 
d="M75 730h106v-730h-106v730z" />
    <glyph glyph-name="m" unicode="m" horiz-adv-x="833" 
d="M606 517c52 0 91.999 -16.832 119.999 -50.499s42 -79.834 42 -138.501v-328h-106v307c0 70.667 -28.333 106 -85 106c-30.667 0 -55.667 -12.833 -75 -38.5s-29 -60.834 -29 -105.501v-269h-106v307c0 70.667 -28.333 106 -85 106c-31.333 0 -56.333 -12.667 -75 -38
s-28 -60.666 -28 -105.999v-269h-106v506h92l8 -68c28 52.667 73.667 79 137 79c72.667 0 121.334 -31.333 146.001 -94c32.667 62.667 82.667 94 150 94z" />
    <glyph glyph-name="n" unicode="n" horiz-adv-x="541" 
d="M312 517c52 0 92.333 -17.001 121 -51.001s43 -80 43 -138v-328h-107v307c0 34.667 -7.5 61 -22.5 79s-36.167 27 -63.5 27c-31.333 0 -56.5 -12.667 -75.5 -38s-28.5 -60.666 -28.5 -105.999v-269h-106v506h92l8 -68c28 52.667 74.333 79 139 79z" />
    <glyph glyph-name="o" unicode="o" horiz-adv-x="589" 
d="M107 443c49.333 49.333 111.666 73.998 186.999 73.998s137.666 -24.667 186.999 -74s74 -112.666 74 -189.999s-24.667 -140.666 -74 -189.999s-111.666 -74 -186.999 -74s-137.666 24.667 -186.999 74c-48.667 48.667 -73 112 -73 190s24.333 141.333 73 190z
M403 371.998c-27.333 31.333 -63.333 47 -108 47s-81 -15.667 -109 -47c-28 -30.667 -42 -70.334 -42 -119.001s14 -88.334 42 -119.001c28 -31.333 64.333 -47 109 -47s80.667 15.667 108 47c28 30.667 42 70.334 42 119.001s-14 88.334 -42 119.001z" />
    <glyph glyph-name="p" unicode="p" horiz-adv-x="615" 
d="M345 517c69.333 0 126 -25.333 170 -76c44 -50 66 -112.667 66 -188s-22.333 -138.333 -67 -189c-44 -50 -100.333 -75 -169 -75c-36 0 -68 6.83301 -96 20.5s-49.333 31.5 -64 53.5v-278h-107v721h93l7 -72c37.333 55.333 93 83 167 83zM326 417
c-38 0 -71.666 -14.666 -100.999 -43.999c-28.667 -28.667 -43 -67.334 -43 -116.001v-6c1.33301 -49.333 15.666 -88.666 42.999 -117.999c29.333 -29.333 62.666 -44 99.999 -44c42.667 0 77.334 15.333 104.001 46c28 31.333 42 70.666 42 117.999
c0 48.667 -13.5 88.167 -40.5 118.5s-61.833 45.5 -104.5 45.5z" />
    <glyph glyph-name="q" unicode="q" horiz-adv-x="615" 
d="M269 517c72.667 0 128.667 -27.667 168 -83l7 72h93v-721h-106v278c-35.333 -49.333 -89 -74 -161 -74c-68 0 -124.667 25 -170 75c-44 50.667 -66 113.667 -66 189s22 138 66 188c44 50.667 100.333 76 169 76zM288 417c-42.667 0 -77.332 -15.167 -103.999 -45.5
s-40 -69.833 -40 -118.5c0 -48 13.667 -87.333 41 -118s62 -46 104 -46c37.333 0 70.666 14.667 99.999 44c28.667 29.333 43 68.666 43 117.999v6c0 48.667 -14.333 87.334 -43 116.001c-29.333 29.333 -63 44 -101 44z" />
    <glyph glyph-name="r" unicode="r" horiz-adv-x="353" 
d="M328 511v-107c-42 0 -75.667 -11.333 -101 -34c-28 -23.333 -42.667 -59 -44 -107v-263h-106v506h93l9 -86c10 27.333 27.667 49.333 53 66s57.333 25 96 25z" />
    <glyph glyph-name="s" unicode="s" horiz-adv-x="450" 
d="M224 517c50 0 91.3369 -14.666 124.004 -43.999c32.667 -28.667 49.667 -67.334 51 -116.001h-106c-0.666992 46 -24.334 69 -71.001 69c-21.333 0 -37.833 -5.33301 -49.5 -16s-17.5 -25 -17.5 -43s6.33301 -31.667 19 -41s37 -18 73 -26
c59.333 -12 101.666 -29.833 126.999 -53.5s38 -56.5 38 -98.5c0 -49.333 -17 -88.166 -51 -116.499s-78.667 -42.5 -134 -42.5c-58.667 0 -104.834 14.667 -138.501 44s-51.167 69.333 -52.5 120h107c0.666992 -23.333 8.5 -41.5 23.5 -54.5s35.833 -19.5 62.5 -19.5
c24 0 42.667 5.33301 56 16s20 25 20 43c0 20 -7 35.167 -21 45.5s-40 19.5 -78 27.5c-54.667 11.333 -94.667 28.666 -120 51.999s-38 55 -38 95c0 44 15.333 81.333 46 112c31.333 31.333 74.666 47 129.999 47z" />
    <glyph glyph-name="t" unicode="t" horiz-adv-x="363" 
d="M102 630l106.999 0.000976562l-1 -124h123v-98h-124l-2 -240c0 -28.667 5 -48.834 15 -60.501s28 -17.5 54 -17.5c20.667 0 39.667 2.66699 57 8v-94c-20 -7.33301 -46 -11 -78 -11c-52.667 0 -91.667 12.333 -117 37s-37.666 63 -36.999 115l2 263h-89v98h89z" />
    <glyph glyph-name="u" unicode="u" horiz-adv-x="538" 
d="M359 506l106 0.000976562v-506h-93l-7 68c-26 -52.667 -71.667 -79 -137 -79c-52.667 0 -92.834 16.667 -120.501 50s-41.5 79.666 -41.5 138.999v328h106v-307c0 -71.333 28.333 -107 85 -107c30.667 0 55.334 12.167 74.001 36.5s28 57.833 28 100.5v277z" />
    <glyph glyph-name="v" unicode="v" horiz-adv-x="508" 
d="M382 506h114l-188 -506h-107l-188 506h114l117 -339l10 -41l10 41z" />
    <glyph glyph-name="w" unicode="w" horiz-adv-x="774" 
d="M647 506h114l-157 -506h-109l-109 332l-111 -332h-105l-157 506h114l92 -331l10 -50l11 50l101 331h92l101 -331l11 -50l10 50z" />
    <glyph glyph-name="x" unicode="x" horiz-adv-x="521" 
d="M368 506h124l-159 -247l168 -259h-125l-116 177l-115 -177h-125l168 259l-159 247h124l107 -164z" />
    <glyph glyph-name="y" unicode="y" horiz-adv-x="512" 
d="M382 506h114l-268 -721h-111l81 222l-185 499h114l117 -339l10 -41l10 41z" />
    <glyph glyph-name="z" unicode="z" horiz-adv-x="468" 
d="M37 506h390v-81l-250 -331h264v-94h-406v80l250 332h-248v94z" />
    <glyph glyph-name="braceleft" unicode="{" horiz-adv-x="306" 
d="M255 716h26v-97h-23c-43.333 0 -65 -24 -65 -72v-125c0 -54 -20.333 -88.333 -61 -103c40.667 -14.667 61 -48.667 61 -102v-125c0 -48 21.667 -72 65 -72h23v-97h-26c-52 0 -91.667 14.5 -119 43.5s-41 69.833 -41 122.5v112c0 48 -21.667 72 -65 72h-15v93h15
c43.333 0 65 24 65 72v112c0 52.667 13.667 93.5 41 122.5s67 43.5 119 43.5z" />
    <glyph glyph-name="bar" unicode="|" horiz-adv-x="228" 
d="M65 726h100v-793h-100v793z" />
    <glyph glyph-name="braceright" unicode="}" horiz-adv-x="306" 
d="M25 716h26c52 0 91.833 -14.5 119.5 -43.5s41.5 -69.833 41.5 -122.5v-112c0 -48 21.667 -72 65 -72h14v-93h-14c-43.333 0 -65 -24 -65 -72v-112c0 -52.667 -13.833 -93.5 -41.5 -122.5s-67.5 -43.5 -119.5 -43.5h-26v97h23c43.333 0 65 24 65 72v125
c0 53.333 20.333 87.333 61 102c-40.667 14.667 -61 49 -61 103v125c0 48 -21.667 72 -65 72h-23v97z" />
    <glyph glyph-name="asciitilde" unicode="~" horiz-adv-x="569" 
d="M185 447c22 0 43 -4.5 63 -13.5s35.667 -20.167 47 -33.5c30.667 -30.667 61 -46 91 -46c43.333 0 72.333 27.333 87 82l73 -34c-26.667 -94.667 -80.667 -142 -162 -142c-43.333 0 -80.333 15.333 -111 46c-30 31.333 -60 47 -90 47c-42 0 -71 -27.333 -87 -82l-73 34
c26.667 94.667 80.667 142 162 142z" />
    <glyph glyph-name="exclamdown" unicode="&#xa1;" 
d="M180 -196h-106v494h106v-494zM177 395c-13.333 -12.667 -30 -19 -50 -19s-37 6.33301 -51 19c-14 13.333 -21 30 -21 50s7 36.667 21 50s31 20 51 20s36.667 -6.66699 50 -20c14 -13.333 21 -30 21 -50s-7 -36.667 -21 -50z" />
    <glyph glyph-name="cent" unicode="&#xa2;" horiz-adv-x="550" 
d="M244 609l82.002 -0.00488281v-95c49.333 -7.33301 90.333 -26.166 123 -56.499s53.667 -70.166 63 -119.499h-104c-8.66699 26 -23.834 46 -45.501 60s-47.5 21 -77.5 21c-40 0 -73.667 -15.667 -101 -47c-26.667 -30.667 -40 -70.667 -40 -120
c0 -48 13.333 -87.333 40 -118c27.333 -31.333 61.666 -47 102.999 -47c29.333 0 55 7.33301 77 22s36.667 34 44 58h105c-11.333 -49.333 -33.333 -89.166 -66 -119.499s-73 -48.833 -121 -55.5v-96h-82v96c-62 8.66699 -112.667 36.667 -152 84
c-38.667 46.667 -58 105.334 -58 176.001c0 70 19.333 128.667 58 176c39.333 48.667 90 77.334 152 86.001v95z" />
    <glyph glyph-name="sterling" unicode="&#xa3;" horiz-adv-x="520" 
d="M206 375l145 -0.00195312v-81h-122c2 -14 3 -29 3 -45c0 -42 -11.667 -81.667 -35 -119l-14 -24h150c28 0 48.333 6.66699 61 20s19 34.333 19 63h99c-0.666992 -61.333 -16.834 -108.166 -48.501 -140.499s-76.834 -48.5 -135.501 -48.5h-303v34l42 58
c37.333 49.333 56 102.666 56 159.999c0 12.667 -1.33301 26.667 -4 42h-102v81h77c-22.667 57.333 -34 102.333 -34 135c0 61.333 19 110.333 57 147c38.667 37.333 87.334 56 146.001 56c62 0 110.833 -17.333 146.5 -52s54.167 -84 55.5 -148h-102
c0 30.667 -8.66699 55.334 -26 74.001s-40.666 28 -69.999 28c-30 0 -53.5 -9.5 -70.5 -28.5s-25.5 -45.5 -25.5 -79.5c0 -8 1.33301 -19.667 4 -35s4 -23.666 4 -24.999l12 -36c0.666992 -1.33301 2.16699 -4.83301 4.5 -10.5l6.5 -16c2 -5 3.33301 -8.16699 4 -9.5z" />
    <glyph glyph-name="currency" unicode="&#xa4;" horiz-adv-x="641" 
d="M424 435l121.998 121.001l68 -69l-120 -120c20 -32.667 30 -68 30 -106c0 -39.333 -10.333 -74.666 -31 -105.999l121 -120l-68 -68l-123 120c-32.667 -18.667 -67 -28 -103 -28c-36.667 0 -70.667 9.33301 -102 28l-122 -120l-70 68l121 120
c-19.333 31.333 -29 66.666 -29 105.999s9.66699 74.666 29 105.999l-121 120l70 69l120 -120c32.667 20 67.334 30 104.001 30c32.667 0 67.334 -10.333 104.001 -31zM208.998 261.001c0 -34 10.5 -62.333 31.5 -85s47.5 -34 79.5 -34s58.833 11.333 80.5 34
s32.5 51 32.5 85c0 34.667 -10.833 63.667 -32.5 87s-48.5 35 -80.5 35s-58.5 -11.667 -79.5 -35s-31.5 -52.333 -31.5 -87z" />
    <glyph glyph-name="yen" unicode="&#xa5;" horiz-adv-x="664" 
d="M530 700h131l-229 -369h87v-81h-129v-71h129v-81h-129v-98h-114v98h-132v81h132v71h-132v81h90l-229 369h131l171 -271l25 -47l26 47z" />
    <glyph glyph-name="brokenbar" unicode="&#xa6;" horiz-adv-x="228" 
d="M65 726h100v-280h-100v280zM65 213h100v-280h-100v280z" />
    <glyph glyph-name="section" unicode="&#xa7;" horiz-adv-x="514" 
d="M258 720c58.667 0 105.332 -14.333 139.999 -43s52.667 -67.334 54 -116.001h-108c-0.666992 24.667 -8.66699 43.667 -24 57s-36.333 20 -63 20c-25.333 0 -45 -6.33301 -59 -19s-21 -29.334 -21 -50.001s8.16699 -37.167 24.5 -49.5s44.5 -22.166 84.5 -29.499
c68.667 -11.333 118.167 -28.833 148.5 -52.5s45.5 -57.167 45.5 -100.5c0 -48 -25.667 -87.667 -77 -119c39.333 -25.333 59 -62.333 59 -111c0 -50.667 -18.667 -89.667 -56 -117s-84.666 -41 -141.999 -41c-61.333 0 -110.333 14.333 -147 43s-55.667 67.334 -57 116.001
h108c0 -24 8.66699 -42.833 26 -56.5s41 -20.5 71 -20.5c28.667 0 50.667 6.16699 66 18.5s23 29.166 23 50.499c0 20.667 -10 37.334 -30 50.001s-54.667 23 -104 31c-122.667 22 -184 71.667 -184 149c0 52.667 26.667 95 80 127c-32 23.333 -48 58.333 -48 105
c0 50.667 18 89.667 54 117c36.667 27.333 82 41 136 41zM280.998 259l36 -6.99805c37.333 17.333 56 41.666 56 72.999c0 24 -9.33301 42 -28 54s-53.667 22.667 -105 32l-44 9c-34.667 -16 -52 -40.667 -52 -74c0 -24 9.83301 -42.333 29.5 -55
s55.5 -23.334 107.5 -32.001z" />
    <glyph glyph-name="dieresis" unicode="&#xa8;" horiz-adv-x="341" 
d="M73 699c17.333 0 32 -5.83301 44 -17.5s18 -26.167 18 -43.5s-6 -31.833 -18 -43.5s-26.667 -17.5 -44 -17.5c-18 0 -33 5.83301 -45 17.5s-18 26.167 -18 43.5s6 31.833 18 43.5s27 17.5 45 17.5zM224 681c12 12 26.667 18 44 18s32 -6 44 -18
c12.667 -11.333 19 -25.666 19 -42.999s-6.33301 -32 -19 -44c-12 -11.333 -26.667 -17 -44 -17s-32 5.66699 -44 17c-12 12 -18 26.667 -18 44s6 31.666 18 42.999z" />
    <glyph glyph-name="copyright" unicode="&#xa9;" horiz-adv-x="597" 
d="M302 621c69.333 0 112.668 -34.001 130.001 -102.001h-78c-8.66699 22.667 -26 34 -52 34c-20.667 0 -37.167 -7.16699 -49.5 -21.5s-18.5 -32.833 -18.5 -55.5c0 -23.333 6.16699 -42.166 18.5 -56.499s28.833 -21.5 49.5 -21.5c28.667 0 47.667 12.667 57 38h75
c-14.667 -70 -58.667 -105 -132 -105c-42.667 0 -77.334 13.5 -104.001 40.5s-40 61.833 -40 104.5c0 42 13.5 76.667 40.5 104s61.5 41 103.5 41zM104.002 671.999c50 51.333 115 77 195 77s144.667 -25.667 194 -77s74 -116.666 74 -195.999
s-24.667 -144.666 -74 -195.999s-114 -77 -194 -77s-145 25.667 -195 77c-49.333 51.333 -74 116.666 -74 195.999s24.667 144.666 74 195.999zM501.002 475.999c0 61.333 -18.668 111.667 -56.001 151c-37.333 40 -86 60 -146 60c-60.667 0 -109.667 -20 -147 -60
c-37.333 -40.667 -56 -91 -56 -151s18.667 -110.333 56 -151c37.333 -40 86.333 -60 147 -60s109.334 20 146.001 60c37.333 40.667 56 91 56 151z" />
    <glyph glyph-name="ordfeminine" unicode="&#xaa;" horiz-adv-x="384" 
d="M191 711c44 0 78.167 -10.834 102.5 -32.501s36.5 -52.5 36.5 -92.5v-227h-71l-4 40c-25.333 -31.333 -60.333 -47 -105 -47c-32.667 0 -58.667 8.66699 -78 26s-29 41 -29 71c0 56.667 36 91 108 103l97 18v14c0 36 -19 54 -57 54c-18 0 -32.167 -4.16699 -42.5 -12.5
s-15.5 -20.166 -15.5 -35.499h-81c2 36.667 15.5 66 40.5 88s57.833 33 98.5 33zM248 494.999v13.999l-81 -15c-28 -6 -42 -19 -42 -39c0 -22 14.333 -33 43 -33c30 0 51.667 9.66699 65 29c10 12.667 15 27.334 15 44.001z" />
    <glyph glyph-name="guillemotleft" unicode="&#xab;" horiz-adv-x="471" 
d="M138 446h104l-132 -196l132 -195h-104l-126 187v17zM355 446h104l-132 -196l132 -195h-104l-126 187v17z" />
    <glyph glyph-name="logicalnot" unicode="&#xac;" horiz-adv-x="596" 
d="M40 440h520v-287h-76v209h-444v78z" />
    <glyph glyph-name="registered" unicode="&#xae;" horiz-adv-x="597" 
d="M104 672c50 51.333 115 77 195 77s144.667 -25.667 194 -77s74 -116.666 74 -195.999s-24.667 -144.666 -74 -195.999s-114 -77 -194 -77s-145 25.667 -195 77c-49.333 51.333 -74 116.666 -74 195.999s24.667 144.666 74 195.999zM501 476
c0 61.333 -18.668 111.667 -56.001 151c-37.333 40 -86 60 -146 60c-60.667 0 -109.667 -20 -147 -60c-37.333 -40.667 -56 -91 -56 -151s18.667 -110.333 56 -151c37.333 -40 86.333 -60 147 -60s109.334 20 146.001 60c37.333 40.667 56 91 56 151zM195.999 615.001h108
c32 0 57.5 -8.66699 76.5 -26s28.5 -40 28.5 -68c0 -34 -15.333 -59.333 -46 -76l58 -110h-84l-44 97h-24v-97h-73v280zM297.999 555.001h-29v-69h29c25.333 0 38 11.333 38 34c0 23.333 -12.667 35 -38 35z" />
    <glyph glyph-name="overscore" unicode="&#xaf;" horiz-adv-x="290" 
d="M10 675h270v-83h-270v83z" />
    <glyph glyph-name="degree" unicode="&#xb0;" horiz-adv-x="349" 
d="M173 722c44.667 0 81.333 -14 110 -42c29.333 -27.333 44 -63.333 44 -108s-14.667 -81 -44 -109c-29.333 -27.333 -66 -41 -110 -41c-42.667 0 -78.667 13.667 -108 41c-28.667 28 -43 64.333 -43 109c0 44 14.333 80 43 108s64.667 42 108 42zM172.999 651
c-22 0 -40.333 -7.33301 -55 -22s-22 -33.667 -22 -57s7.33301 -42.333 22 -57s33 -22 55 -22c23.333 0 42.5 7.33301 57.5 22s22.5 33.667 22.5 57s-7.5 42.333 -22.5 57s-34.167 22 -57.5 22z" />
    <glyph glyph-name="plusminus" unicode="&#xb1;" horiz-adv-x="472" 
d="M188 645h96v-159h158v-95h-158v-158h-96v158h-158v95h158v159zM30 173h412v-95h-412v95z" />
    <glyph glyph-name="two.sups" unicode="&#xb2;" horiz-adv-x="323" 
d="M164 807c41.333 0 73 -10.165 95 -30.498s33 -48.5 33 -84.5c0 -36.667 -17.667 -74.334 -53 -113.001l-86 -93h140v-78h-255v60l128 139c28 31.333 42 57.666 42 78.999c0 29.333 -15 44 -45 44c-32 0 -48 -17.667 -48 -53h-83c-0.666992 38.667 11.333 70 36 94
s56.667 36 96 36z" />
    <glyph glyph-name="three.sups" unicode="&#xb3;" horiz-adv-x="352" 
d="M302 692c0 -38.667 -17.3301 -65.333 -51.9971 -80c44 -14 66 -44 66 -90c0 -37.333 -12.667 -66.833 -38 -88.5s-59 -32.5 -101 -32.5c-44 0 -78.5 11.167 -103.5 33.5s-37.5 53.5 -37.5 93.5h82c1.33301 -34 21.666 -51 60.999 -51c16 0 29 4.5 39 13.5
s15 20.833 15 35.5c0 34 -24 51 -72 51h-25v67h24c39.333 0 59 15 59 45c2.66699 19.333 -6.33301 32.333 -27 39c-22.667 6.66699 -41 3 -55 -11c-8.66699 -8.66699 -12.334 -20 -11.001 -34h-83c0 38.667 11.667 69 35 91s55 33 95 33c39.333 0 70.666 -10.667 93.999 -32
s35 -49 35 -83z" />
    <glyph glyph-name="acute" unicode="&#xb4;" horiz-adv-x="263" 
d="M119 732h134l-148 -158h-95z" />
    <glyph glyph-name="mu" unicode="&#xb5;" horiz-adv-x="544" 
d="M366 506h106.001v-506h-93l-7 68c-26.667 -52.667 -72.334 -79 -137.001 -79c-19.333 0 -38 2.66699 -56 8v-212h-106v721h106v-307c0 -71.333 28 -107 84 -107c30.667 0 55.5 12.167 74.5 36.5s28.5 57.833 28.5 100.5v277z" />
    <glyph glyph-name="paragraph" unicode="&#xb6;" horiz-adv-x="607" 
d="M229 700h358v-72h-86v-708h-72v708h-109v-708h-73v391h-18c-60 0 -109 18 -147 54s-57 82.333 -57 139c0 58 19 105 57 141c37.333 36.667 86.333 55 147 55z" />
    <glyph glyph-name="middot" unicode="&#xb7;" horiz-adv-x="211" 
d="M176 260c0 -20 -6.83301 -36.833 -20.5 -50.5s-30.5 -20.5 -50.5 -20.5s-36.667 6.83301 -50 20.5s-20 30.5 -20 50.5c0 19.333 6.66699 35.666 20 48.999s30 20 50 20s36.833 -6.66699 50.5 -20s20.5 -29.666 20.5 -48.999z" />
    <glyph glyph-name="cedilla" unicode="&#xb8;" horiz-adv-x="219" 
d="M79 6h55.001l-14 -61c26.667 0 48.167 -7.5 64.5 -22.5s24.5 -35.167 24.5 -60.5c0 -28.667 -9.83301 -51.167 -29.5 -67.5s-45.5 -24.5 -77.5 -24.5c-38.667 0 -69.334 11.333 -92.001 34l35 50c14 -16.667 33 -25 57 -25c26.667 0 40 10.667 40 32s-13 32 -39 32
c-10.667 0 -21 -1.33301 -31 -4l-20 7z" />
    <glyph glyph-name="one.sups" unicode="&#xb9;" 
d="M141 800h61v-392h-83v273h-88v63c64 0 100.667 18.667 110 56z" />
    <glyph glyph-name="ordmasculine" unicode="&#xba;" horiz-adv-x="440" 
d="M220 711c52.667 0 96.667 -16.667 132 -50c34.667 -32.667 52 -76 52 -130c0 -53.333 -17.333 -96.333 -52 -129c-35.333 -33.333 -79.333 -50 -132 -50c-53.333 0 -97.666 16.667 -132.999 50c-34.667 32.667 -52 75.667 -52 129c0 54 17.333 97.333 52 130
c35.333 33.333 79.666 50 132.999 50zM221 636c-29.333 0 -53.333 -9.83203 -72 -29.499s-28 -44.5 -28 -74.5c0 -30.667 9.16699 -55.834 27.5 -75.501s42.5 -29.5 72.5 -29.5c28.667 0 52.167 10 70.5 30s27.5 45 27.5 75s-9.16699 54.833 -27.5 74.5
s-41.833 29.5 -70.5 29.5z" />
    <glyph glyph-name="guillemotright" unicode="&#xbb;" horiz-adv-x="471" 
d="M12 446h104l126 -187v-17l-126 -187h-104l132 195zM229 446h104l126 -187v-17l-126 -187h-104l132 195z" />
    <glyph glyph-name="onequarter" unicode="&#xbc;" horiz-adv-x="733" 
d="M545 392h103v-251h53v-73h-53v-68h-83v68h-177v66zM566 141v151l-11 -22l-80 -129h91zM141 700h61v-392h-83v273h-88v63c64 0 100.667 18.667 110 56zM486 700h114l-400 -700h-114z" />
    <glyph glyph-name="onehalf" unicode="&#xbd;" horiz-adv-x="734" 
d="M574 399c41.333 0 73 -10.165 95 -30.498s33 -48.5 33 -84.5c0 -36.667 -17.667 -74.334 -53 -113.001l-86 -93h140v-78h-255v60l128 139c28 31.333 42 57.666 42 78.999c0 29.333 -15 44 -45 44c-32 0 -48 -17.667 -48 -53h-83c-0.666992 38.667 11.333 70 36 94
s56.667 36 96 36zM141 700.002h61v-392h-83v273h-88v63c64 0 100.667 18.667 110 56zM486 700.002h114l-400 -700h-114z" />
    <glyph glyph-name="threequarters" unicode="&#xbe;" horiz-adv-x="810" 
d="M302 592c0 -38.667 -17.3301 -65.333 -51.9971 -80c44 -14 66 -44 66 -90c0 -37.333 -12.667 -66.833 -38 -88.5s-59 -32.5 -101 -32.5c-44 0 -78.5 11.167 -103.5 33.5s-37.5 53.5 -37.5 93.5h82c1.33301 -34 21.666 -51 60.999 -51c16 0 29 4.5 39 13.5
s15 20.833 15 35.5c0 34 -24 51 -72 51h-25v67h24c39.333 0 59 15 59 45c2.66699 19.333 -6.33301 32.333 -27 39c-22.667 6.66699 -41 3 -55 -11c-8.66699 -8.66699 -12.334 -20 -11.001 -34h-83c0 38.667 11.667 69 35 91s55 33 95 33c39.333 0 70.666 -10.667 93.999 -32
s35 -49 35 -83zM622.003 392.001h103v-251h53v-73h-53v-68h-83v68h-177v66zM643.003 141.001v151l-11 -22l-80 -129h91zM563.003 700.001h114l-400 -700h-114z" />
    <glyph glyph-name="questiondown" unicode="&#xbf;" horiz-adv-x="428" 
d="M218 -211c-58.667 0 -107.332 16.998 -145.999 50.998c-39.333 34 -59 81 -59 141c0 63.333 18.333 114 55 152c6 6 17.5 16.833 34.5 32.5s29 27.334 36 35.001s14 17.834 21 30.501s10.5 25 10.5 37v30h107v-34c0 -45.333 -19 -85.333 -57 -120
c-2.66699 -2 -8.66699 -7 -18 -15l-19 -16.5c-3.33301 -3 -8.83301 -8.33301 -16.5 -16s-13.334 -13.834 -17.001 -18.501s-8.16699 -11.167 -13.5 -19.5s-9.16602 -15.833 -11.499 -22.5s-4.5 -14.667 -6.5 -24s-3 -18.666 -3 -27.999c0 -34 9.16699 -60.5 27.5 -79.5
s42.833 -28.5 73.5 -28.5c34 0 60.333 10 79 30s28 48 28 84h101c-1.33301 -62.667 -21.333 -111.667 -60 -147c-38.667 -36 -87.334 -54 -146.001 -54zM273.002 394.998c-13.333 -12.667 -30 -19 -50 -19s-37 6.33301 -51 19c-13.333 13.333 -20 30 -20 50
s6.66699 36.667 20 50c14 13.333 31 20 51 20s36.667 -6.66699 50 -20c14 -13.333 21 -30 21 -50s-7 -36.667 -21 -50z" />
    <glyph glyph-name="Agrave" unicode="&#xc0;" horiz-adv-x="706" 
d="M293 700h120l277 -700h-123l-67 171h-295l-66 -171h-123zM365 522l-13 38l-13 -38l-97 -250h222zM164 847h154l94 -114h-111z" />
    <glyph glyph-name="Aacute" unicode="&#xc1;" horiz-adv-x="706" 
d="M293 700h120l277 -700h-123l-67 171h-295l-66 -171h-123zM365 522l-13 38l-13 -38l-97 -250h222zM379 847h153l-136 -114h-112z" />
    <glyph glyph-name="Acircumflex" unicode="&#xc2;" horiz-adv-x="706" 
d="M293 700h120l277 -700h-123l-67 171h-295l-66 -171h-123zM365 522l-13 38l-13 -38l-97 -250h222zM321 851h64l148 -119h-123l-58 53l-57 -53h-122z" />
    <glyph glyph-name="Atilde" unicode="&#xc3;" horiz-adv-x="706" 
d="M293 700h120l277 -700h-123l-67 171h-295l-66 -171h-123zM365 522l-13 38l-13 -38l-97 -250h222zM290 865c21.333 0 40.166 -5.5 56.499 -16.5s30.166 -22 41.499 -33s21.666 -16.5 30.999 -16.5c24.667 0 37 19 37 57h66c0 -40.667 -9.16699 -72.667 -27.5 -96
s-44.833 -35 -79.5 -35c-21.333 0 -40.166 5.5 -56.499 16.5s-30.166 22 -41.499 33s-21.666 16.5 -30.999 16.5c-24.667 0 -37 -19 -37 -57h-66c0 40.667 9.16699 72.667 27.5 96s44.833 35 79.5 35z" />
    <glyph glyph-name="Adieresis" unicode="&#xc4;" horiz-adv-x="706" 
d="M293 700h120l277 -700h-123l-67 171h-295l-66 -171h-123zM365 522l-13 38l-13 -38l-97 -250h222zM254 854c17.333 0 32 -6 44 -18s18 -26.667 18 -44c0 -16.667 -6 -31 -18 -43s-26.667 -18 -44 -18c-18 0 -33 5.83301 -45 17.5s-18 26.167 -18 43.5s6 32 18 44
s27 18 45 18zM512 792c0 -16.667 -6.16699 -31 -18.5 -43s-27.166 -18 -44.499 -18s-32 5.83301 -44 17.5s-18 26.167 -18 43.5s6 32 18 44s26.667 18 44 18s32.166 -6 44.499 -18s18.5 -26.667 18.5 -44z" />
    <glyph glyph-name="Aring" unicode="&#xc5;" horiz-adv-x="706" 
d="M293 700h120l277 -700h-123l-67 171h-295l-66 -171h-123zM365 522l-13 38l-13 -38l-97 -250h222zM351 920c29.333 0 53.333 -9.33301 72 -28s28 -42 28 -70s-9.33301 -51.167 -28 -69.5s-42.667 -27.5 -72 -27.5c-28.667 0 -52.5 9.33301 -71.5 28s-28.5 41.667 -28.5 69
c0 28 9.5 51.333 28.5 70s42.833 28 71.5 28zM351 861c-10.667 0 -19.5 -3.66699 -26.5 -11s-10.5 -16.666 -10.5 -27.999c0 -10 3.66699 -18.833 11 -26.5s16 -11.5 26 -11.5c11.333 0 20.666 3.83301 27.999 11.5s11 16.5 11 26.5c0 11.333 -3.66699 20.666 -11 27.999
s-16.666 11 -27.999 11z" />
    <glyph glyph-name="AE" unicode="&#xc6;" horiz-adv-x="943" 
d="M463 700h434v-105h-281v-183h245v-104h-245v-203h281v-105h-394v173h-246l-115 -173h-133zM503 271v291l-21 -39l-164 -252h185z" />
    <glyph glyph-name="Ccedilla" unicode="&#xc7;" horiz-adv-x="732" 
d="M386 713c82.667 0 151.001 -19.999 205.001 -59.999s91 -96.333 111 -169h-124c-30 82.667 -94 124 -192 124c-68 0 -123.333 -24.333 -166 -73c-42.667 -47.333 -64 -109 -64 -185c0 -74.667 21.333 -136.334 64 -185.001s98.667 -73 168 -73c100 0 165.333 43 196 129
h120c-40 -148 -138.333 -225.667 -295 -233l-9 -43c26.667 0 48.167 -7.5 64.5 -22.5s24.5 -35.167 24.5 -60.5c0 -28.667 -9.83301 -51.167 -29.5 -67.5s-45.5 -24.5 -77.5 -24.5c-38.667 0 -69.334 11.333 -92.001 34l35 50c14 -16.667 33 -25 57 -25
c26.667 0 40 10.667 40 32s-13 32 -39 32c-10.667 0 -21 -1.33301 -31 -4l-20 7l22 93c-93.333 7.33301 -169.333 44.333 -228 111s-88 150 -88 250c0 104 32.667 190.667 98 260c64.667 68.667 148 103 250 103z" />
    <glyph glyph-name="Egrave" unicode="&#xc8;" horiz-adv-x="514" 
d="M75 700h393v-105h-281v-183h245v-104h-245v-203h281v-105h-393v700zM93 847h154l94 -114h-111z" />
    <glyph glyph-name="Eacute" unicode="&#xc9;" horiz-adv-x="514" 
d="M75 700h393v-105h-281v-183h245v-104h-245v-203h281v-105h-393v700zM307 847h153l-136 -114h-112z" />
    <glyph glyph-name="Ecircumflex" unicode="&#xca;" horiz-adv-x="514" 
d="M75 700h393v-105h-281v-183h245v-104h-245v-203h281v-105h-393v700zM246 851h64l148 -119h-123l-58 53l-57 -53h-122z" />
    <glyph glyph-name="Edieresis" unicode="&#xcb;" horiz-adv-x="514" 
d="M180 854c17.333 0 32 -6 44 -18s18 -26.667 18 -44c0 -16.667 -6 -31 -18 -43s-26.667 -18 -44 -18c-18 0 -33 5.83301 -45 17.5s-18 26.167 -18 43.5s6 32 18 44s27 18 45 18zM438 792c0 -16.667 -6.16699 -31 -18.5 -43s-27.166 -18 -44.499 -18s-32 5.83301 -44 17.5
s-18 26.167 -18 43.5s6 32 18 44s26.667 18 44 18s32.166 -6 44.499 -18s18.5 -26.667 18.5 -44zM75 700h393v-105h-281v-183h245v-104h-245v-203h281v-105h-393v700z" />
    <glyph glyph-name="Igrave" unicode="&#xcc;" horiz-adv-x="262" 
d="M75 700h112v-700h-112v700zM-57 847h154l94 -114h-111z" />
    <glyph glyph-name="Iacute" unicode="&#xcd;" horiz-adv-x="262" 
d="M75 700h112v-700h-112v700zM156 847h153l-136 -114h-112z" />
    <glyph glyph-name="Icircumflex" unicode="&#xce;" horiz-adv-x="262" 
d="M100 851h64l148 -119h-123l-58 53l-57 -53h-122zM75 700h112v-700h-112v700z" />
    <glyph glyph-name="Idieresis" unicode="&#xcf;" horiz-adv-x="262" 
d="M34 854c17.333 0 32 -6 44 -18s18 -26.667 18 -44c0 -16.667 -6 -31 -18 -43s-26.667 -18 -44 -18c-18 0 -33 5.83301 -45 17.5s-18 26.167 -18 43.5s6 32 18 44s27 18 45 18zM292 792c0 -16.667 -6.16699 -31 -18.5 -43s-27.166 -18 -44.499 -18s-32 5.83301 -44 17.5
s-18 26.167 -18 43.5s6 32 18 44s26.667 18 44 18s32.166 -6 44.499 -18s18.5 -26.667 18.5 -44zM75 700h112v-700h-112v700z" />
    <glyph glyph-name="Eth" unicode="&#xd0;" horiz-adv-x="740" 
d="M84 700h256c108.667 0 195.334 -32.333 260.001 -97c65.333 -64 98 -148.333 98 -253c0 -105.333 -32.667 -190 -98 -254c-64.667 -64 -151.334 -96 -260.001 -96h-256v316h-81v82h81v302zM340 595h-143.999v-197h116v-82h-116v-211h144c76 0 135.5 21.5 178.5 64.5
s64.5 103.167 64.5 180.5s-21.333 137.5 -64 180.5s-102.334 64.5 -179.001 64.5z" />
    <glyph glyph-name="Ntilde" unicode="&#xd1;" horiz-adv-x="720" 
d="M534 700h112v-700h-111l-321 466l-27 44v-510h-112v700h110l319 -465l30 -47v512zM297 865c21.333 0 40.166 -5.5 56.499 -16.5s30.166 -22 41.499 -33s21.666 -16.5 30.999 -16.5c24.667 0 37 19 37 57h66c0 -40.667 -9.16699 -72.667 -27.5 -96s-44.833 -35 -79.5 -35
c-21.333 0 -40.166 5.5 -56.499 16.5s-30.166 22 -41.499 33s-21.666 16.5 -30.999 16.5c-24.667 0 -37 -19 -37 -57h-66c0 40.667 9.16699 72.667 27.5 96s44.833 35 79.5 35z" />
    <glyph glyph-name="Ograve" unicode="&#xd2;" horiz-adv-x="797" 
d="M399 713c105.333 0 191.333 -34.333 258 -103c67.333 -68.667 101 -155 101 -259c0 -104.667 -33.667 -191.667 -101 -261c-66.667 -68.667 -152.667 -103 -258 -103s-192 34.333 -260 103c-67.333 69.333 -101 156.333 -101 261c0 104 33.667 190.333 101 259
c68 68.667 154.667 103 260 103zM156 351c0 -75.333 22.333 -137.333 67 -186s103.334 -73 176.001 -73c72 0 130.333 24.333 175 73s67 110.667 67 186s-22.333 136.666 -67 183.999c-44.667 48.667 -103 73 -175 73c-72.667 0 -131.334 -24.333 -176.001 -73
c-44.667 -47.333 -67 -108.666 -67 -183.999zM210 857h154l94 -114h-111z" />
    <glyph glyph-name="Oacute" unicode="&#xd3;" horiz-adv-x="797" 
d="M399 713c105.333 0 191.333 -34.333 258 -103c67.333 -68.667 101 -155 101 -259c0 -104.667 -33.667 -191.667 -101 -261c-66.667 -68.667 -152.667 -103 -258 -103s-192 34.333 -260 103c-67.333 69.333 -101 156.333 -101 261c0 104 33.667 190.333 101 259
c68 68.667 154.667 103 260 103zM156 351c0 -75.333 22.333 -137.333 67 -186s103.334 -73 176.001 -73c72 0 130.333 24.333 175 73s67 110.667 67 186s-22.333 136.666 -67 183.999c-44.667 48.667 -103 73 -175 73c-72.667 0 -131.334 -24.333 -176.001 -73
c-44.667 -47.333 -67 -108.666 -67 -183.999zM425 857h153l-136 -114h-112z" />
    <glyph glyph-name="Ocircumflex" unicode="&#xd4;" horiz-adv-x="797" 
d="M399 713c105.333 0 191.333 -34.333 258 -103c67.333 -68.667 101 -155 101 -259c0 -104.667 -33.667 -191.667 -101 -261c-66.667 -68.667 -152.667 -103 -258 -103s-192 34.333 -260 103c-67.333 69.333 -101 156.333 -101 261c0 104 33.667 190.333 101 259
c68 68.667 154.667 103 260 103zM156 351c0 -75.333 22.333 -137.333 67 -186s103.334 -73 176.001 -73c72 0 130.333 24.333 175 73s67 110.667 67 186s-22.333 136.666 -67 183.999c-44.667 48.667 -103 73 -175 73c-72.667 0 -131.334 -24.333 -176.001 -73
c-44.667 -47.333 -67 -108.666 -67 -183.999zM367 861h64l148 -119h-123l-58 53l-57 -53h-122z" />
    <glyph glyph-name="Otilde" unicode="&#xd5;" horiz-adv-x="797" 
d="M336 875c21.333 0 40.166 -5.5 56.499 -16.5s30.166 -22 41.499 -33s21.666 -16.5 30.999 -16.5c24.667 0 37 19 37 57h66c0 -40.667 -9.16699 -72.667 -27.5 -96s-44.833 -35 -79.5 -35c-21.333 0 -40.166 5.5 -56.499 16.5s-30.166 22 -41.499 33
s-21.666 16.5 -30.999 16.5c-24.667 0 -37 -19 -37 -57h-66c0 40.667 9.16699 72.667 27.5 96s44.833 35 79.5 35zM399 713c105.333 0 191.333 -34.333 258 -103c67.333 -68.667 101 -155 101 -259c0 -104.667 -33.667 -191.667 -101 -261
c-66.667 -68.667 -152.667 -103 -258 -103s-192 34.333 -260 103c-67.333 69.333 -101 156.333 -101 261c0 104 33.667 190.333 101 259c68 68.667 154.667 103 260 103zM156 351c0 -75.333 22.333 -137.333 67 -186s103.334 -73 176.001 -73c72 0 130.333 24.333 175 73
s67 110.667 67 186s-22.333 136.666 -67 183.999c-44.667 48.667 -103 73 -175 73c-72.667 0 -131.334 -24.333 -176.001 -73c-44.667 -47.333 -67 -108.666 -67 -183.999z" />
    <glyph glyph-name="Odieresis" unicode="&#xd6;" horiz-adv-x="797" 
d="M399 713c105.333 0 191.333 -34.333 258 -103c67.333 -68.667 101 -155 101 -259c0 -104.667 -33.667 -191.667 -101 -261c-66.667 -68.667 -152.667 -103 -258 -103s-192 34.333 -260 103c-67.333 69.333 -101 156.333 -101 261c0 104 33.667 190.333 101 259
c68 68.667 154.667 103 260 103zM156 351c0 -75.333 22.333 -137.333 67 -186s103.334 -73 176.001 -73c72 0 130.333 24.333 175 73s67 110.667 67 186s-22.333 136.666 -67 183.999c-44.667 48.667 -103 73 -175 73c-72.667 0 -131.334 -24.333 -176.001 -73
c-44.667 -47.333 -67 -108.666 -67 -183.999zM300 864c17.333 0 32 -6 44 -18s18 -26.667 18 -44c0 -16.667 -6 -31 -18 -43s-26.667 -18 -44 -18c-18 0 -33 5.83301 -45 17.5s-18 26.167 -18 43.5s6 32 18 44s27 18 45 18zM558 802c0 -16.667 -6.16699 -31 -18.5 -43
s-27.166 -18 -44.499 -18s-32 5.83301 -44 17.5s-18 26.167 -18 43.5s6 32 18 44s26.667 18 44 18s32.166 -6 44.499 -18s18.5 -26.667 18.5 -44z" />
    <glyph glyph-name="multiply" unicode="&#xd7;" horiz-adv-x="427" 
d="M213 418l121 120l67 -68l-120 -121l120 -120l-68 -67l-119 120l-121 -120l-68 67l121 121l-121 121l67 67z" />
    <glyph glyph-name="Oslash" unicode="&#xd8;" horiz-adv-x="797" 
d="M399 713c48.667 0 95 -8.66504 139 -25.998l48 84l83 -42l-50 -86c44 -32.667 78.167 -74.334 102.5 -125.001s36.5 -106.334 36.5 -167.001c0 -104.667 -33.667 -191.667 -101 -261c-66.667 -68.667 -152.667 -103 -258 -103c-48 0 -95 8.66699 -141 26l-49 -86l-83 41
l51 89c-44 32.667 -78.167 74.5 -102.5 125.5s-36.5 107.167 -36.5 168.5c0 104 33.667 190.333 101 259c68 68.667 154.667 103 260 103zM641 351.002c0 80.667 -26 145.333 -78 194l-251 -439c28 -9.33301 57 -14 87 -14c72 0 130.333 24.333 175 73s67 110.667 67 186z
M399 608.001c-72.667 0 -131.334 -24.334 -176.001 -73.001c-44.667 -47.333 -67 -108.666 -67 -183.999c0 -82.667 25.667 -148 77 -196l251 438c-29.333 10 -57.666 15 -84.999 15z" />
    <glyph glyph-name="Ugrave" unicode="&#xd9;" horiz-adv-x="690" 
d="M511 700h113.002v-421c0 -93.333 -24.333 -165.333 -73 -216s-117.334 -76 -206.001 -76s-157.334 25.333 -206.001 76s-73 122.667 -73 216v421h112v-421c0 -124.667 55.667 -187 167 -187c110.667 0 166 62.333 166 187v421zM156.002 847h154l94 -114h-111z" />
    <glyph glyph-name="Uacute" unicode="&#xda;" horiz-adv-x="690" 
d="M511 700h113.002v-421c0 -93.333 -24.333 -165.333 -73 -216s-117.334 -76 -206.001 -76s-157.334 25.333 -206.001 76s-73 122.667 -73 216v421h112v-421c0 -124.667 55.667 -187 167 -187c110.667 0 166 62.333 166 187v421zM371.002 847h153l-136 -114h-112z" />
    <glyph glyph-name="Ucircumflex" unicode="&#xdb;" horiz-adv-x="690" 
d="M511 700h113.002v-421c0 -93.333 -24.333 -165.333 -73 -216s-117.334 -76 -206.001 -76s-157.334 25.333 -206.001 76s-73 122.667 -73 216v421h112v-421c0 -124.667 55.667 -187 167 -187c110.667 0 166 62.333 166 187v421zM313.002 851h64l148 -119h-123l-58 53
l-57 -53h-122z" />
    <glyph glyph-name="Udieresis" unicode="&#xdc;" horiz-adv-x="690" 
d="M246 854c17.333 0 32 -6 44 -18s18 -26.667 18 -44c0 -16.667 -6 -31 -18 -43s-26.667 -18 -44 -18c-18 0 -33 5.83301 -45 17.5s-18 26.167 -18 43.5s6 32 18 44s27 18 45 18zM504 792c0 -16.667 -6.16699 -31 -18.5 -43s-27.166 -18 -44.499 -18s-32 5.83301 -44 17.5
s-18 26.167 -18 43.5s6 32 18 44s26.667 18 44 18s32.166 -6 44.499 -18s18.5 -26.667 18.5 -44zM511 700h113.002v-421c0 -93.333 -24.333 -165.333 -73 -216s-117.334 -76 -206.001 -76s-157.334 25.333 -206.001 76s-73 122.667 -73 216v421h112v-421
c0 -124.667 55.667 -187 167 -187c110.667 0 166 62.333 166 187v421z" />
    <glyph glyph-name="Yacute" unicode="&#xdd;" horiz-adv-x="680" 
d="M537 700h131l-271 -437v-263h-114v263l-271 437h131l171 -271l25 -47l26 47zM366 847h153l-136 -114h-112z" />
    <glyph glyph-name="Thorn" unicode="&#xde;" horiz-adv-x="575" 
d="M75 700h112v-107h122c70 0 126 -19 168 -57s63 -88.333 63 -151c0 -61.333 -21 -111 -63 -149c-40.667 -38 -96.667 -57 -168 -57h-122v-179h-112v700zM309 487h-122v-203h122c36 0 64.5 8.83301 85.5 26.5s31.5 42.5 31.5 74.5s-10.5 57 -31.5 75s-49.5 27 -85.5 27z
" />
    <glyph glyph-name="germandbls" unicode="&#xdf;" horiz-adv-x="566" 
d="M283 737v-101.001c-66.667 0 -100 -36.333 -100 -109v-21h328v-85l-130 -203c55.333 -8 99.333 -32 132 -72c32.667 -39.333 49 -85.666 49 -138.999c0 -71.333 -20.333 -127 -61 -167s-98.667 -60 -174 -60c-26 0 -54.333 2.66699 -85 8l3 107
c30.667 -7.33301 54.667 -11 72 -11c42 0 74.5 10.5 97.5 31.5s34.5 51.167 34.5 90.5c0 38 -12.833 67.667 -38.5 89s-60.5 32 -104.5 32h-47v74l130 207h-206v-408h-112v525c0 141.333 70.667 212 212 212z" />
    <glyph glyph-name="agrave" unicode="&#xe0;" horiz-adv-x="504" 
d="M252 517c60 0 106.667 -15.834 140 -47.501s50 -77.167 50 -136.5v-333h-94l-5 66c-30 -51.333 -79.667 -77 -149 -77c-46 0 -82.667 13 -110 39s-41 61 -41 105c0 80.667 49.333 130.334 148 149.001l144 26v23c0 60.667 -27.667 91 -83 91
c-26.667 0 -48.5 -7.33301 -65.5 -22s-25.5 -34 -25.5 -58h-103c2 50 20.667 91.667 56 125s81.333 50 138 50zM335 209.999l-0.000976562 17.998l-121 -26c-42.667 -8.66699 -64 -30 -64 -64c0 -17.333 6 -31.166 18 -41.499s29 -15.5 51 -15.5
c40.667 0 71.334 16.333 92.001 49c16 22.667 24 49.334 24 80.001zM61.999 731.997h134l109 -158h-95z" />
    <glyph glyph-name="aacute" unicode="&#xe1;" horiz-adv-x="504" 
d="M252 517c60 0 106.667 -15.834 140 -47.501s50 -77.167 50 -136.5v-333h-94l-5 66c-30 -51.333 -79.667 -77 -149 -77c-46 0 -82.667 13 -110 39s-41 61 -41 105c0 80.667 49.333 130.334 148 149.001l144 26v23c0 60.667 -27.667 91 -83 91
c-26.667 0 -48.5 -7.33301 -65.5 -22s-25.5 -34 -25.5 -58h-103c2 50 20.667 91.667 56 125s81.333 50 138 50zM335 209.999l-0.000976562 17.998l-121 -26c-42.667 -8.66699 -64 -30 -64 -64c0 -17.333 6 -31.166 18 -41.499s29 -15.5 51 -15.5
c40.667 0 71.334 16.333 92.001 49c16 22.667 24 49.334 24 80.001zM306.999 731.997h134l-148 -158h-95z" />
    <glyph glyph-name="acircumflex" unicode="&#xe2;" horiz-adv-x="504" 
d="M252 517c60 0 106.667 -15.834 140 -47.501s50 -77.167 50 -136.5v-333h-94l-5 66c-30 -51.333 -79.667 -77 -149 -77c-46 0 -82.667 13 -110 39s-41 61 -41 105c0 80.667 49.333 130.334 148 149.001l144 26v23c0 60.667 -27.667 91 -83 91
c-26.667 0 -48.5 -7.33301 -65.5 -22s-25.5 -34 -25.5 -58h-103c2 50 20.667 91.667 56 125s81.333 50 138 50zM335 209.999l-0.000976562 17.998l-121 -26c-42.667 -8.66699 -64 -30 -64 -64c0 -17.333 6 -31.166 18 -41.499s29 -15.5 51 -15.5
c40.667 0 71.334 16.333 92.001 49c16 22.667 24 49.334 24 80.001zM217.999 731.997h74l137 -158h-112l-62 86l-63 -86h-112z" />
    <glyph glyph-name="atilde" unicode="&#xe3;" horiz-adv-x="504" 
d="M252 517c60 0 106.667 -15.834 140 -47.501s50 -77.167 50 -136.5v-333h-94l-5 66c-30 -51.333 -79.667 -77 -149 -77c-46 0 -82.667 13 -110 39s-41 61 -41 105c0 80.667 49.333 130.334 148 149.001l144 26v23c0 60.667 -27.667 91 -83 91
c-26.667 0 -48.5 -7.33301 -65.5 -22s-25.5 -34 -25.5 -58h-103c2 50 20.667 91.667 56 125s81.333 50 138 50zM335 209.999l-0.000976562 17.998l-121 -26c-42.667 -8.66699 -64 -30 -64 -64c0 -17.333 6 -31.166 18 -41.499s29 -15.5 51 -15.5
c40.667 0 71.334 16.333 92.001 49c16 22.667 24 49.334 24 80.001zM194.999 712.997c18.667 0 34.834 -3.66797 48.501 -11.001s23.667 -15.333 30 -24s13.833 -16.667 22.5 -24s18 -11 28 -11c24.667 0 37 20.333 37 61h66c0 -41.333 -9.16699 -74.166 -27.5 -98.499
s-44.833 -36.5 -79.5 -36.5c-18.667 0 -34.834 3.66699 -48.501 11s-23.667 15.5 -30 24.5s-13.833 17.167 -22.5 24.5s-18 11 -28 11c-24.667 0 -37 -20.667 -37 -62h-66c0 42 9.16699 75 27.5 99s44.833 36 79.5 36z" />
    <glyph glyph-name="adieresis" unicode="&#xe4;" horiz-adv-x="504" 
d="M252 517c60 0 106.667 -15.834 140 -47.501s50 -77.167 50 -136.5v-333h-94l-5 66c-30 -51.333 -79.667 -77 -149 -77c-46 0 -82.667 13 -110 39s-41 61 -41 105c0 80.667 49.333 130.334 148 149.001l144 26v23c0 60.667 -27.667 91 -83 91
c-26.667 0 -48.5 -7.33301 -65.5 -22s-25.5 -34 -25.5 -58h-103c2 50 20.667 91.667 56 125s81.333 50 138 50zM335 209.999l-0.000976562 17.998l-121 -26c-42.667 -8.66699 -64 -30 -64 -64c0 -17.333 6 -31.166 18 -41.499s29 -15.5 51 -15.5
c40.667 0 71.334 16.333 92.001 49c16 22.667 24 49.334 24 80.001zM156.999 698.997c17.333 0 32 -5.83301 44 -17.5s18 -26.167 18 -43.5s-6 -31.833 -18 -43.5s-26.667 -17.5 -44 -17.5c-18 0 -33 5.83301 -45 17.5s-18 26.167 -18 43.5s6 31.833 18 43.5
s27 17.5 45 17.5zM307.999 680.997c12 12 26.667 18 44 18s32 -6 44 -18c12.667 -11.333 19 -25.666 19 -42.999s-6.33301 -32 -19 -44c-12 -11.333 -26.667 -17 -44 -17s-32 5.66699 -44 17c-12 12 -18 26.667 -18 44s6 31.666 18 42.999z" />
    <glyph glyph-name="aring" unicode="&#xe5;" horiz-adv-x="504" 
d="M252 517c60 0 106.667 -15.834 140 -47.501s50 -77.167 50 -136.5v-333h-94l-5 66c-30 -51.333 -79.667 -77 -149 -77c-46 0 -82.667 13 -110 39s-41 61 -41 105c0 80.667 49.333 130.334 148 149.001l144 26v23c0 60.667 -27.667 91 -83 91
c-26.667 0 -48.5 -7.33301 -65.5 -22s-25.5 -34 -25.5 -58h-103c2 50 20.667 91.667 56 125s81.333 50 138 50zM335 209.999l-0.000976562 17.998l-121 -26c-42.667 -8.66699 -64 -30 -64 -64c0 -17.333 6 -31.166 18 -41.499s29 -15.5 51 -15.5
c40.667 0 71.334 16.333 92.001 49c16 22.667 24 49.334 24 80.001zM255.999 765.997c32 0 58.167 -10 78.5 -30s30.5 -45.333 30.5 -76c0 -30 -10.167 -55 -30.5 -75s-46.5 -30 -78.5 -30c-31.333 0 -57.166 10 -77.499 30s-30.5 45 -30.5 75c0 30.667 10.167 56 30.5 76
s46.166 30 77.499 30zM255.999 707.997c-13.333 0 -24.5 -4.5 -33.5 -13.5s-13.5 -20.167 -13.5 -33.5s4.5 -24.666 13.5 -33.999s20.167 -14 33.5 -14c14 0 25.5 4.66699 34.5 14s13.5 20.666 13.5 33.999s-4.5 24.5 -13.5 33.5s-20.5 13.5 -34.5 13.5z" />
    <glyph glyph-name="ae" unicode="&#xe6;" horiz-adv-x="857" 
d="M582 517c70.667 0 126.998 -22.667 168.998 -68s63 -109.333 63 -192v-41h-369c2.66699 -40.667 16.834 -73 42.501 -97s58.167 -36 97.5 -36c62 0 102.333 24 121 72h104c-16 -53.333 -43.5 -94.333 -82.5 -123s-87.5 -43 -145.5 -43c-88 0 -155.333 33.333 -202 100
c-42.667 -66.667 -103 -100 -181 -100c-48 0 -86 13 -114 39s-42 60.333 -42 103c0 81.333 49.333 131.333 148 150l144 27v20c0 62.667 -28.333 94 -85 94c-26.667 0 -48.167 -7.16699 -64.5 -21.5s-24.5 -33.833 -24.5 -58.5h-103c2 51.333 20.333 93.333 55 126
s80.334 49 137.001 49c72 0 124.667 -23 158 -69c46 46 104 69 174 69zM580.998 424c-37.333 0 -68.333 -11.5 -93 -34.5s-38.667 -53.167 -42 -90.5h261c-0.666992 38 -12.5 68.333 -35.5 91s-53.167 34 -90.5 34zM334.998 201l0.000976562 26.999l-114 -25
c-24.667 -4.66699 -42.667 -12 -54 -22s-17 -24.333 -17 -43c0 -17.333 6.16699 -31.166 18.5 -41.499s29.166 -15.5 50.499 -15.5c40.667 0 71 15 91 45c16.667 22.667 25 47.667 25 75z" />
    <glyph glyph-name="ccedilla" unicode="&#xe7;" horiz-adv-x="550" 
d="M283 517c60.667 0 111.335 -15.666 152.002 -46.999s66.334 -75.333 77.001 -132h-104c-8.66699 26 -23.834 46 -45.501 60s-47.5 21 -77.5 21c-40 0 -73.667 -15.667 -101 -47c-26.667 -30.667 -40 -70.667 -40 -120c0 -48 13.333 -87.333 40 -118
c27.333 -31.333 61.666 -47 102.999 -47c29.333 0 55 7.33301 77 22s36.667 34 44 58h105c-12 -52.667 -36 -94.167 -72 -124.5s-80.667 -47.833 -134 -52.5l-10 -45c26.667 0 48.167 -7.5 64.5 -22.5s24.5 -35.167 24.5 -60.5c0 -28.667 -9.83301 -51.167 -29.5 -67.5
s-45.5 -24.5 -77.5 -24.5c-38.667 0 -69.334 11.333 -92.001 34l35 50c14 -16.667 33 -25 57 -25c26.667 0 40 10.667 40 32s-13 32 -39 32c-10.667 0 -21 -1.33301 -31 -4l-20 7l23 95c-63.333 6.66699 -116 34 -158 82c-40 48 -60 107.667 -60 179
c0 77.333 23.333 140.666 70 189.999c47.333 50 107 75 179 75z" />
    <glyph glyph-name="egrave" unicode="&#xe8;" horiz-adv-x="556" 
d="M281 517c70.667 0 127 -22.667 169 -68s63 -109.333 63 -192v-41h-369c2.66699 -40.667 16.834 -73 42.501 -97s58.167 -36 97.5 -36c61.333 0 101.666 24 120.999 72h104c-16 -53.333 -43.5 -94.333 -82.5 -123s-87.5 -43 -145.5 -43c-73.333 0 -133 24 -179 72
c-45.333 48.667 -68 112.334 -68 191.001c0 77.333 22.667 140.666 68 189.999c45.333 50 105 75 179 75zM280 424c-37.333 0 -68.333 -11.5 -93 -34.5s-38.667 -53.167 -42 -90.5h261c-0.666992 38 -12.5 68.333 -35.5 91s-53.167 34 -90.5 34zM84 732h134l109 -158h-95z
" />
    <glyph glyph-name="eacute" unicode="&#xe9;" horiz-adv-x="556" 
d="M281 517c70.667 0 127 -22.667 169 -68s63 -109.333 63 -192v-41h-369c2.66699 -40.667 16.834 -73 42.501 -97s58.167 -36 97.5 -36c61.333 0 101.666 24 120.999 72h104c-16 -53.333 -43.5 -94.333 -82.5 -123s-87.5 -43 -145.5 -43c-73.333 0 -133 24 -179 72
c-45.333 48.667 -68 112.334 -68 191.001c0 77.333 22.667 140.666 68 189.999c45.333 50 105 75 179 75zM280 424c-37.333 0 -68.333 -11.5 -93 -34.5s-38.667 -53.167 -42 -90.5h261c-0.666992 38 -12.5 68.333 -35.5 91s-53.167 34 -90.5 34zM329 732h134l-148 -158h-95z
" />
    <glyph glyph-name="ecircumflex" unicode="&#xea;" horiz-adv-x="556" 
d="M281 517c70.667 0 127 -22.667 169 -68s63 -109.333 63 -192v-41h-369c2.66699 -40.667 16.834 -73 42.501 -97s58.167 -36 97.5 -36c61.333 0 101.666 24 120.999 72h104c-16 -53.333 -43.5 -94.333 -82.5 -123s-87.5 -43 -145.5 -43c-73.333 0 -133 24 -179 72
c-45.333 48.667 -68 112.334 -68 191.001c0 77.333 22.667 140.666 68 189.999c45.333 50 105 75 179 75zM239 732h74l137 -158h-112l-62 86l-63 -86h-112zM280 424c-37.333 0 -68.333 -11.5 -93 -34.5s-38.667 -53.167 -42 -90.5h261c-0.666992 38 -12.5 68.333 -35.5 91
s-53.167 34 -90.5 34z" />
    <glyph glyph-name="edieresis" unicode="&#xeb;" horiz-adv-x="556" 
d="M281 517c70.667 0 127 -22.667 169 -68s63 -109.333 63 -192v-41h-369c2.66699 -40.667 16.834 -73 42.501 -97s58.167 -36 97.5 -36c61.333 0 101.666 24 120.999 72h104c-16 -53.333 -43.5 -94.333 -82.5 -123s-87.5 -43 -145.5 -43c-73.333 0 -133 24 -179 72
c-45.333 48.667 -68 112.334 -68 191.001c0 77.333 22.667 140.666 68 189.999c45.333 50 105 75 179 75zM280 424c-37.333 0 -68.333 -11.5 -93 -34.5s-38.667 -53.167 -42 -90.5h261c-0.666992 38 -12.5 68.333 -35.5 91s-53.167 34 -90.5 34zM333 681
c12 12 26.667 18 44 18s32 -6 44 -18c12.667 -11.333 19 -25.666 19 -42.999s-6.33301 -32 -19 -44c-12 -11.333 -26.667 -17 -44 -17s-32 5.66699 -44 17c-12 12 -18 26.667 -18 44s6 31.666 18 42.999zM182 699c17.333 0 32 -5.83301 44 -17.5s18 -26.167 18 -43.5
s-6 -31.833 -18 -43.5s-26.667 -17.5 -44 -17.5c-18 0 -33 5.83301 -45 17.5s-18 26.167 -18 43.5s6 31.833 18 43.5s27 17.5 45 17.5z" />
    <glyph glyph-name="igrave" unicode="&#xec;" 
d="M75 506h106v-506h-106v506zM-64 732h134l109 -158h-95z" />
    <glyph glyph-name="iacute" unicode="&#xed;" 
d="M180 732h134l-148 -158h-95zM75 506h106v-506h-106v506z" />
    <glyph glyph-name="icircumflex" unicode="&#xee;" 
d="M92 732h74l137 -158h-112l-62 86l-63 -86h-112zM75 506h106v-506h-106v506z" />
    <glyph glyph-name="idieresis" unicode="&#xef;" 
d="M31 699c17.333 0 32 -5.83301 44 -17.5s18 -26.167 18 -43.5s-6 -31.833 -18 -43.5s-26.667 -17.5 -44 -17.5c-18 0 -33 5.83301 -45 17.5s-18 26.167 -18 43.5s6 31.833 18 43.5s27 17.5 45 17.5zM182 681c12 12 26.667 18 44 18s32 -6 44 -18
c12.667 -11.333 19 -25.666 19 -42.999s-6.33301 -32 -19 -44c-12 -11.333 -26.667 -17 -44 -17s-32 5.66699 -44 17c-12 12 -18 26.667 -18 44s6 31.666 18 42.999zM75 506h106v-506h-106v506z" />
    <glyph glyph-name="eth" unicode="&#xf0;" horiz-adv-x="564" 
d="M286 631l150.001 0.000976562v-86h-84l113 -147c41.333 -53.333 62 -108.666 62 -165.999c0 -72 -23.333 -130.333 -70 -175c-46.667 -45.333 -105 -68 -175 -68c-70.667 0 -129.334 22.667 -176.001 68c-45.333 45.333 -68 103.666 -68 174.999
c0 70 22.333 127.333 67 172c46 45.333 103.333 68.666 172 69.999l-54 71h-154v86h88l-76 99h130zM382.001 337.001l-3.00098 3.99902c-24.667 24.667 -57 37 -97 37c-40.667 0 -73.667 -13.667 -99 -41s-38 -62.333 -38 -105c0 -42 12.667 -77.333 38 -106
c25.333 -27.333 58.333 -41 99 -41s73.834 13.833 99.501 41.5s38.5 62.834 38.5 105.501c0 38.667 -12.667 73.667 -38 105z" />
    <glyph glyph-name="ntilde" unicode="&#xf1;" horiz-adv-x="548" 
d="M312 517c52 0 92.333 -17.001 121 -51.001s43 -80 43 -138v-328h-107v307c0 34.667 -7.5 61 -22.5 79s-36.167 27 -63.5 27c-31.333 0 -56.5 -12.667 -75.5 -38s-28.5 -60.666 -28.5 -105.999v-269h-106v506h92l8 -68c28 52.667 74.333 79 139 79zM219 712.999
c18.667 0 34.834 -3.66797 48.501 -11.001s23.667 -15.333 30 -24s13.833 -16.667 22.5 -24s18 -11 28 -11c24.667 0 37 20.333 37 61h66c0 -41.333 -9.16699 -74.166 -27.5 -98.499s-44.833 -36.5 -79.5 -36.5c-18.667 0 -34.834 3.66699 -48.501 11s-23.667 15.5 -30 24.5
s-13.833 17.167 -22.5 24.5s-18 11 -28 11c-24.667 0 -37 -20.667 -37 -62h-66c0 42 9.16699 75 27.5 99s44.833 36 79.5 36z" />
    <glyph glyph-name="ograve" unicode="&#xf2;" horiz-adv-x="589" 
d="M107 443c49.333 49.333 111.666 73.998 186.999 73.998s137.666 -24.667 186.999 -74s74 -112.666 74 -189.999s-24.667 -140.666 -74 -189.999s-111.666 -74 -186.999 -74s-137.666 24.667 -186.999 74c-48.667 48.667 -73 112 -73 190s24.333 141.333 73 190z
M403 371.998c-27.333 31.333 -63.333 47 -108 47s-81 -15.667 -109 -47c-28 -30.667 -42 -70.334 -42 -119.001s14 -88.334 42 -119.001c28 -31.333 64.333 -47 109 -47s80.667 15.667 108 47c28 30.667 42 70.334 42 119.001s-14 88.334 -42 119.001zM102 731.998h134
l109 -158h-95z" />
    <glyph glyph-name="oacute" unicode="&#xf3;" horiz-adv-x="589" 
d="M107 443c49.333 49.333 111.666 73.998 186.999 73.998s137.666 -24.667 186.999 -74s74 -112.666 74 -189.999s-24.667 -140.666 -74 -189.999s-111.666 -74 -186.999 -74s-137.666 24.667 -186.999 74c-48.667 48.667 -73 112 -73 190s24.333 141.333 73 190z
M403 371.998c-27.333 31.333 -63.333 47 -108 47s-81 -15.667 -109 -47c-28 -30.667 -42 -70.334 -42 -119.001s14 -88.334 42 -119.001c28 -31.333 64.333 -47 109 -47s80.667 15.667 108 47c28 30.667 42 70.334 42 119.001s-14 88.334 -42 119.001zM347 731.998h134
l-148 -158h-95z" />
    <glyph glyph-name="ocircumflex" unicode="&#xf4;" horiz-adv-x="589" 
d="M107 443c49.333 49.333 111.666 73.998 186.999 73.998s137.666 -24.667 186.999 -74s74 -112.666 74 -189.999s-24.667 -140.666 -74 -189.999s-111.666 -74 -186.999 -74s-137.666 24.667 -186.999 74c-48.667 48.667 -73 112 -73 190s24.333 141.333 73 190z
M403 371.998c-27.333 31.333 -63.333 47 -108 47s-81 -15.667 -109 -47c-28 -30.667 -42 -70.334 -42 -119.001s14 -88.334 42 -119.001c28 -31.333 64.333 -47 109 -47s80.667 15.667 108 47c28 30.667 42 70.334 42 119.001s-14 88.334 -42 119.001zM257 731.998h74
l137 -158h-112l-62 86l-63 -86h-112z" />
    <glyph glyph-name="otilde" unicode="&#xf5;" horiz-adv-x="589" 
d="M232 713c18.667 0 34.834 -3.66797 48.501 -11.001s23.667 -15.333 30 -24s13.833 -16.667 22.5 -24s18 -11 28 -11c24.667 0 37 20.333 37 61h66c0 -41.333 -9.16699 -74.166 -27.5 -98.499s-44.833 -36.5 -79.5 -36.5c-18.667 0 -34.834 3.66699 -48.501 11
s-23.667 15.5 -30 24.5s-13.833 17.167 -22.5 24.5s-18 11 -28 11c-24.667 0 -37 -20.667 -37 -62h-66c0 42 9.16699 75 27.5 99s44.833 36 79.5 36zM107 442.999c49.333 49.333 111.666 73.998 186.999 73.998s137.666 -24.667 186.999 -74s74 -112.666 74 -189.999
s-24.667 -140.666 -74 -189.999s-111.666 -74 -186.999 -74s-137.666 24.667 -186.999 74c-48.667 48.667 -73 112 -73 190s24.333 141.333 73 190zM403 371.997c-27.333 31.333 -63.333 47 -108 47s-81 -15.667 -109 -47c-28 -30.667 -42 -70.334 -42 -119.001
s14 -88.334 42 -119.001c28 -31.333 64.333 -47 109 -47s80.667 15.667 108 47c28 30.667 42 70.334 42 119.001s-14 88.334 -42 119.001z" />
    <glyph glyph-name="odieresis" unicode="&#xf6;" horiz-adv-x="589" 
d="M107 443c49.333 49.333 111.666 73.998 186.999 73.998s137.666 -24.667 186.999 -74s74 -112.666 74 -189.999s-24.667 -140.666 -74 -189.999s-111.666 -74 -186.999 -74s-137.666 24.667 -186.999 74c-48.667 48.667 -73 112 -73 190s24.333 141.333 73 190z
M403 371.998c-27.333 31.333 -63.333 47 -108 47s-81 -15.667 -109 -47c-28 -30.667 -42 -70.334 -42 -119.001s14 -88.334 42 -119.001c28 -31.333 64.333 -47 109 -47s80.667 15.667 108 47c28 30.667 42 70.334 42 119.001s-14 88.334 -42 119.001zM196 698.998
c17.333 0 32 -5.83301 44 -17.5s18 -26.167 18 -43.5s-6 -31.833 -18 -43.5s-26.667 -17.5 -44 -17.5c-18 0 -33 5.83301 -45 17.5s-18 26.167 -18 43.5s6 31.833 18 43.5s27 17.5 45 17.5zM347 680.998c12 12 26.667 18 44 18s32 -6 44 -18
c12.667 -11.333 19 -25.666 19 -42.999s-6.33301 -32 -19 -44c-12 -11.333 -26.667 -17 -44 -17s-32 5.66699 -44 17c-12 12 -18 26.667 -18 44s6 31.666 18 42.999z" />
    <glyph glyph-name="divide" unicode="&#xf7;" horiz-adv-x="472" 
d="M298 536c0 -18.667 -6.66699 -34.334 -20 -47.001s-29.666 -19 -48.999 -19s-35.5 6.33301 -48.5 19s-19.5 28.334 -19.5 47.001s6.5 34.5 19.5 47.5s29.167 19.5 48.5 19.5s35.666 -6.33301 48.999 -19s20 -28.667 20 -48zM298 163c0 -18.667 -6.66699 -34.5 -20 -47.5
s-29.666 -19.5 -48.999 -19.5s-35.5 6.5 -48.5 19.5s-19.5 28.833 -19.5 47.5s6.5 34.5 19.5 47.5s29.167 19.5 48.5 19.5s35.666 -6.33301 48.999 -19s20 -28.667 20 -48zM30 397h412v-95h-412v95z" />
    <glyph glyph-name="oslash" unicode="&#xf8;" horiz-adv-x="589" 
d="M294 517c33.333 0 66 -5.66797 98 -17.001l42 79l58 -27l-44 -82c71.333 -50 107 -122.333 107 -217c0 -77.333 -24.667 -140.666 -74 -189.999s-111.666 -74 -186.999 -74c-33.333 0 -65 5.33301 -95 16l-42 -79l-58 26l43 81c-72 50 -108 123.333 -108 220
c0 78 24.333 141.333 73 190c49.333 49.333 111.666 74 186.999 74zM295 418.999c-44.667 0 -81.001 -15.666 -109.001 -46.999c-28 -30.667 -42 -70.334 -42 -119.001c0 -52 16 -94 48 -126l152 284c-17.333 5.33301 -33.666 8 -48.999 8zM444.999 253
c0 51.333 -15.667 92.666 -47 123.999l-151 -283c13.333 -4.66699 29.333 -7 48 -7c44.667 0 80.667 15.667 108 47c28 30.667 42 70.334 42 119.001z" />
    <glyph glyph-name="ugrave" unicode="&#xf9;" horiz-adv-x="538" 
d="M359 506l106 0.000976562v-506h-93l-7 68c-26 -52.667 -71.667 -79 -137 -79c-52.667 0 -92.834 16.667 -120.501 50s-41.5 79.666 -41.5 138.999v328h106v-307c0 -71.333 28.333 -107 85 -107c30.667 0 55.334 12.167 74.001 36.5s28 57.833 28 100.5v277zM76 732.001
h134l109 -158h-95z" />
    <glyph glyph-name="uacute" unicode="&#xfa;" horiz-adv-x="538" 
d="M359 506l106 0.000976562v-506h-93l-7 68c-26 -52.667 -71.667 -79 -137 -79c-52.667 0 -92.834 16.667 -120.501 50s-41.5 79.666 -41.5 138.999v328h106v-307c0 -71.333 28.333 -107 85 -107c30.667 0 55.334 12.167 74.001 36.5s28 57.833 28 100.5v277zM320 732.001
h134l-148 -158h-95z" />
    <glyph glyph-name="ucircumflex" unicode="&#xfb;" horiz-adv-x="538" 
d="M359 506l106 0.000976562v-506h-93l-7 68c-26 -52.667 -71.667 -79 -137 -79c-52.667 0 -92.834 16.667 -120.501 50s-41.5 79.666 -41.5 138.999v328h106v-307c0 -71.333 28.333 -107 85 -107c30.667 0 55.334 12.167 74.001 36.5s28 57.833 28 100.5v277zM229 732.001
h74l137 -158h-112l-62 86l-63 -86h-112z" />
    <glyph glyph-name="udieresis" unicode="&#xfc;" horiz-adv-x="538" 
d="M359 506l106 0.000976562v-506h-93l-7 68c-26 -52.667 -71.667 -79 -137 -79c-52.667 0 -92.834 16.667 -120.501 50s-41.5 79.666 -41.5 138.999v328h106v-307c0 -71.333 28.333 -107 85 -107c30.667 0 55.334 12.167 74.001 36.5s28 57.833 28 100.5v277zM168 699.001
c17.333 0 32 -5.83301 44 -17.5s18 -26.167 18 -43.5s-6 -31.833 -18 -43.5s-26.667 -17.5 -44 -17.5c-18 0 -33 5.83301 -45 17.5s-18 26.167 -18 43.5s6 31.833 18 43.5s27 17.5 45 17.5zM319 681.001c12 12 26.667 18 44 18s32 -6 44 -18
c12.667 -11.333 19 -25.666 19 -42.999s-6.33301 -32 -19 -44c-12 -11.333 -26.667 -17 -44 -17s-32 5.66699 -44 17c-12 12 -18 26.667 -18 44s6 31.666 18 42.999z" />
    <glyph glyph-name="yacute" unicode="&#xfd;" horiz-adv-x="512" 
d="M382 506h114l-268 -721h-111l81 222l-185 499h114l117 -339l10 -41l10 41zM306 732h134l-148 -158h-95z" />
    <glyph glyph-name="thorn" unicode="&#xfe;" horiz-adv-x="616" 
d="M78 730h107v-287c36 49.333 89.667 74 161 74c68.667 0 125 -25.333 169 -76c44 -50 66 -112.667 66 -188s-22.333 -138.333 -67 -189c-44 -50 -100.333 -75 -169 -75c-72.667 0 -126 24.667 -160 74v-278h-107v945zM327 416c-39.333 0 -73.334 -13.332 -102.001 -39.999
c-27.333 -26 -41.666 -62.667 -42.999 -110v-23c0 -48.667 14 -86.334 42 -113.001c29.333 -27.333 63.333 -41 102 -41c42 0 76.667 15.333 104 46s41 70 41 118s-13.5 87.167 -40.5 117.5s-61.5 45.5 -103.5 45.5z" />
    <glyph glyph-name="ydieresis" unicode="&#xff;" horiz-adv-x="512" 
d="M382 506h114l-268 -721h-111l81 222l-185 499h114l117 -339l10 -41l10 41zM156 699c17.333 0 32 -5.83301 44 -17.5s18 -26.167 18 -43.5s-6 -31.833 -18 -43.5s-26.667 -17.5 -44 -17.5c-18 0 -33 5.83301 -45 17.5s-18 26.167 -18 43.5s6 31.833 18 43.5
s27 17.5 45 17.5zM307 681c12 12 26.667 18 44 18s32 -6 44 -18c12.667 -11.333 19 -25.666 19 -42.999s-6.33301 -32 -19 -44c-12 -11.333 -26.667 -17 -44 -17s-32 5.66699 -44 17c-12 12 -18 26.667 -18 44s6 31.666 18 42.999z" />
    <glyph glyph-name="Amacron" unicode="&#x100;" horiz-adv-x="706" 
d="M293 700h120l277 -700h-123l-67 171h-295l-66 -171h-123zM365 522l-13 38l-13 -38l-97 -250h222zM217 822h270v-83h-270v83z" />
    <glyph glyph-name="amacron" unicode="&#x101;" horiz-adv-x="504" 
d="M252 517c60 0 106.667 -15.834 140 -47.501s50 -77.167 50 -136.5v-333h-94l-5 66c-30 -51.333 -79.667 -77 -149 -77c-46 0 -82.667 13 -110 39s-41 61 -41 105c0 80.667 49.333 130.334 148 149.001l144 26v23c0 60.667 -27.667 91 -83 91
c-26.667 0 -48.5 -7.33301 -65.5 -22s-25.5 -34 -25.5 -58h-103c2 50 20.667 91.667 56 125s81.333 50 138 50zM335 209.999l-0.000976562 17.998l-121 -26c-42.667 -8.66699 -64 -30 -64 -64c0 -17.333 6 -31.166 18 -41.499s29 -15.5 51 -15.5
c40.667 0 71.334 16.333 92.001 49c16 22.667 24 49.334 24 80.001zM123.999 674.997h270v-83h-270v83z" />
    <glyph glyph-name="Abreve" unicode="&#x102;" horiz-adv-x="706" 
d="M293 700h120l277 -700h-123l-67 171h-295l-66 -171h-123zM365 522l-13 38l-13 -38l-97 -250h222zM416 859h88c0 -38.667 -14.167 -70 -42.5 -94s-64.833 -36 -109.5 -36s-81 12 -109 36s-42 55.333 -42 94h87c0 -17.333 5.66699 -31.333 17 -42s27 -16 47 -16
s35.667 5.33301 47 16s17 24.667 17 42z" />
    <glyph glyph-name="abreve" unicode="&#x103;" horiz-adv-x="504" 
d="M252 517c60 0 106.667 -15.834 140 -47.501s50 -77.167 50 -136.5v-333h-94l-5 66c-30 -51.333 -79.667 -77 -149 -77c-46 0 -82.667 13 -110 39s-41 61 -41 105c0 80.667 49.333 130.334 148 149.001l144 26v23c0 60.667 -27.667 91 -83 91
c-26.667 0 -48.5 -7.33301 -65.5 -22s-25.5 -34 -25.5 -58h-103c2 50 20.667 91.667 56 125s81.333 50 138 50zM335 209.999l-0.000976562 17.998l-121 -26c-42.667 -8.66699 -64 -30 -64 -64c0 -17.333 6 -31.166 18 -41.499s29 -15.5 51 -15.5
c40.667 0 71.334 16.333 92.001 49c16 22.667 24 49.334 24 80.001zM319.999 710.997h88c0 -42.667 -14.167 -77.5 -42.5 -104.5s-64.833 -40.5 -109.5 -40.5s-81 13.5 -109 40.5s-42 61.833 -42 104.5h87c0 -22 5.83301 -39.833 17.5 -53.5s27.167 -20.5 46.5 -20.5
s34.833 6.83301 46.5 20.5s17.5 31.5 17.5 53.5z" />
    <glyph glyph-name="Aogonek" unicode="&#x104;" horiz-adv-x="706" 
d="M293 700l120 0.00195312l277 -700h-33c-44.667 -18.667 -67 -47.334 -67 -86.001c0 -17.333 4.33301 -30.333 13 -39s21.667 -13.334 39 -14.001s31 2 41 8l15 -58c-14 -8 -34 -12 -60 -12c-35.333 0 -64 10.167 -86 30.5s-33 47.5 -33 81.5c0 38.667 15.333 70 46 94
l-65 166h-295l-66 -171h-123zM365 522.002l-13 38l-13 -38l-97 -250h222z" />
    <glyph glyph-name="aogonek" unicode="&#x105;" horiz-adv-x="504" 
d="M252 517c60 0 106.667 -15.832 140 -47.499s50 -77.167 50 -136.5v-333h-9c-44.667 -18.667 -67 -47.334 -67 -86.001c0 -17.333 4.33301 -30.333 13 -39s21.667 -13.334 39 -14.001s31 2 41 8l15 -58c-14 -8 -34 -12 -60 -12c-35.333 0 -64 10.167 -86 30.5
s-33 47.5 -33 81.5c0 41.333 17.333 74.333 52 99l-4 56c-30 -51.333 -79.667 -77 -149 -77c-46 0 -82.667 13 -110 39s-41 61 -41 105c0 80.667 49.333 130.334 148 149.001l144 26v23c0 60.667 -27.667 91 -83 91c-26.667 0 -48.5 -7.33301 -65.5 -22s-25.5 -34 -25.5 -58
h-103c2 50 20.667 91.667 56 125s81.333 50 138 50zM335 210.001l-0.000976562 17.998l-121 -26c-42.667 -8.66699 -64 -30 -64 -64c0 -17.333 6 -31.166 18 -41.499s29 -15.5 51 -15.5c40.667 0 71.334 16.333 92.001 49c16 22.667 24 49.334 24 80.001z" />
    <glyph glyph-name="Cacute" unicode="&#x106;" horiz-adv-x="732" 
d="M386 713c82.667 0 151 -20 205 -60s91 -96.333 111 -169h-124c-30 82.667 -94 124 -192 124c-68 0 -123.333 -24.333 -166 -73c-42.667 -47.333 -64 -109 -64 -185c0 -74.667 21.333 -136.334 64 -185.001s98.667 -73 168 -73c100 0 165.333 43 196 129h120
c-20 -75.333 -56.833 -133.166 -110.5 -173.499s-122.167 -60.5 -205.5 -60.5c-102 0 -186 34.333 -252 103c-65.333 69.333 -98 156 -98 260s32.667 190.667 98 260c64.667 68.667 148 103 250 103zM412 857h153l-136 -114h-112z" />
    <glyph glyph-name="cacute" unicode="&#x107;" horiz-adv-x="550" 
d="M283 517c60.667 0 111.335 -15.666 152.002 -46.999s66.334 -75.333 77.001 -132h-104c-8.66699 26 -23.834 46 -45.501 60s-47.5 21 -77.5 21c-40 0 -73.667 -15.667 -101 -47c-26.667 -30.667 -40 -70.667 -40 -120c0 -48 13.333 -87.333 40 -118
c27.333 -31.333 61.666 -47 102.999 -47c29.333 0 55 7.33301 77 22s36.667 34 44 58h105c-12 -56.667 -38.667 -100.5 -80 -131.5s-91.333 -46.5 -150 -46.5c-72.667 0 -132.334 24.333 -179.001 73s-70 112 -70 190c0 77.333 23.333 140.666 70 189.999
c47.333 50 107 75 179 75zM335.001 732.001h134l-148 -158h-95z" />
    <glyph glyph-name="Ccircumflex" unicode="&#x108;" horiz-adv-x="732" 
d="M386 713c82.667 0 151 -20 205 -60s91 -96.333 111 -169h-124c-30 82.667 -94 124 -192 124c-68 0 -123.333 -24.333 -166 -73c-42.667 -47.333 -64 -109 -64 -185c0 -74.667 21.333 -136.334 64 -185.001s98.667 -73 168 -73c100 0 165.333 43 196 129h120
c-20 -75.333 -56.833 -133.166 -110.5 -173.499s-122.167 -60.5 -205.5 -60.5c-102 0 -186 34.333 -252 103c-65.333 69.333 -98 156 -98 260s32.667 190.667 98 260c64.667 68.667 148 103 250 103zM354 861h64l148 -119h-123l-58 53l-57 -53h-122z" />
    <glyph glyph-name="ccircumflex" unicode="&#x109;" horiz-adv-x="550" 
d="M283 517c60.667 0 111.335 -15.666 152.002 -46.999s66.334 -75.333 77.001 -132h-104c-8.66699 26 -23.834 46 -45.501 60s-47.5 21 -77.5 21c-40 0 -73.667 -15.667 -101 -47c-26.667 -30.667 -40 -70.667 -40 -120c0 -48 13.333 -87.333 40 -118
c27.333 -31.333 61.666 -47 102.999 -47c29.333 0 55 7.33301 77 22s36.667 34 44 58h105c-12 -56.667 -38.667 -100.5 -80 -131.5s-91.333 -46.5 -150 -46.5c-72.667 0 -132.334 24.333 -179.001 73s-70 112 -70 190c0 77.333 23.333 140.666 70 189.999
c47.333 50 107 75 179 75zM245.001 732.001h74l137 -158h-112l-62 86l-63 -86h-112z" />
    <glyph glyph-name="Cdotaccent" unicode="&#x10a;" horiz-adv-x="732" 
d="M386 713c82.667 0 151 -20 205 -60s91 -96.333 111 -169h-124c-30 82.667 -94 124 -192 124c-68 0 -123.333 -24.333 -166 -73c-42.667 -47.333 -64 -109 -64 -185c0 -74.667 21.333 -136.334 64 -185.001s98.667 -73 168 -73c100 0 165.333 43 196 129h120
c-20 -75.333 -56.833 -133.166 -110.5 -173.499s-122.167 -60.5 -205.5 -60.5c-102 0 -186 34.333 -252 103c-65.333 69.333 -98 156 -98 260s32.667 190.667 98 260c64.667 68.667 148 103 250 103zM386 867c17.333 0 32.333 -6 45 -18s19 -26.667 19 -44
c0 -18 -6.33301 -33.167 -19 -45.5s-27.667 -18.5 -45 -18.5c-18.667 0 -34.167 6.16699 -46.5 18.5s-18.5 27.5 -18.5 45.5c0 17.333 6.16699 32 18.5 44s27.833 18 46.5 18z" />
    <glyph glyph-name="cdotaccent" unicode="&#x10b;" horiz-adv-x="550" 
d="M283 517c60.667 0 111.335 -15.666 152.002 -46.999s66.334 -75.333 77.001 -132h-104c-8.66699 26 -23.834 46 -45.501 60s-47.5 21 -77.5 21c-40 0 -73.667 -15.667 -101 -47c-26.667 -30.667 -40 -70.667 -40 -120c0 -48 13.333 -87.333 40 -118
c27.333 -31.333 61.666 -47 102.999 -47c29.333 0 55 7.33301 77 22s36.667 34 44 58h105c-12 -56.667 -38.667 -100.5 -80 -131.5s-91.333 -46.5 -150 -46.5c-72.667 0 -132.334 24.333 -179.001 73s-70 112 -70 190c0 77.333 23.333 140.666 70 189.999
c47.333 50 107 75 179 75zM233.001 693.001c13.333 13.333 29.666 20 48.999 20s35.666 -6.66699 48.999 -20c13.333 -12.667 20 -28.334 20 -47.001s-6.66699 -34.667 -20 -48c-13.333 -12.667 -29.666 -19 -48.999 -19s-35.666 6.33301 -48.999 19
c-12.667 13.333 -19 29.333 -19 48s6.33301 34.334 19 47.001z" />
    <glyph glyph-name="Ccaron" unicode="&#x10c;" horiz-adv-x="732" 
d="M386 713c82.667 0 151 -20 205 -60s91 -96.333 111 -169h-124c-30 82.667 -94 124 -192 124c-68 0 -123.333 -24.333 -166 -73c-42.667 -47.333 -64 -109 -64 -185c0 -74.667 21.333 -136.334 64 -185.001s98.667 -73 168 -73c100 0 165.333 43 196 129h120
c-20 -75.333 -56.833 -133.166 -110.5 -173.499s-122.167 -60.5 -205.5 -60.5c-102 0 -186 34.333 -252 103c-65.333 69.333 -98 156 -98 260s32.667 190.667 98 260c64.667 68.667 148 103 250 103zM443 858h123l-148 -119h-64l-148 119h122l57 -53z" />
    <glyph glyph-name="ccaron" unicode="&#x10d;" horiz-adv-x="550" 
d="M283 517c60.667 0 111.335 -15.666 152.002 -46.999s66.334 -75.333 77.001 -132h-104c-8.66699 26 -23.834 46 -45.501 60s-47.5 21 -77.5 21c-40 0 -73.667 -15.667 -101 -47c-26.667 -30.667 -40 -70.667 -40 -120c0 -48 13.333 -87.333 40 -118
c27.333 -31.333 61.666 -47 102.999 -47c29.333 0 55 7.33301 77 22s36.667 34 44 58h105c-12 -56.667 -38.667 -100.5 -80 -131.5s-91.333 -46.5 -150 -46.5c-72.667 0 -132.334 24.333 -179.001 73s-70 112 -70 190c0 77.333 23.333 140.666 70 189.999
c47.333 50 107 75 179 75zM344.001 721.001h112l-137 -158h-74l-138 158h112l63 -86z" />
    <glyph glyph-name="Dcaron" unicode="&#x10e;" horiz-adv-x="731" 
d="M75 700h255.999c108.667 0 195.334 -32.333 260.001 -97c65.333 -64 98 -148.333 98 -253c0 -105.333 -32.667 -190 -98 -254s-152 -96 -260 -96h-256v700zM330.999 595h-143.999v-490h144c76 0 135.5 21.5 178.5 64.5s64.5 103.167 64.5 180.5s-21.333 137.5 -64 180.5
s-102.334 64.5 -179.001 64.5zM389 848h123l-148 -119h-64l-148 119h122l57 -53z" />
    <glyph glyph-name="dcaron" unicode="&#x10f;" horiz-adv-x="752" 
d="M431 730h105.999v-730h-93l-7 71c-38 -54.667 -94 -82 -168 -82c-68.667 0 -125 25 -169 75c-44 50.667 -66 113.667 -66 189s22 138 66 188c44.667 50.667 101.334 76 170.001 76c72 0 125.667 -24.667 161 -74v287zM288.999 416c-42 0 -76.668 -15.167 -104.001 -45.5
s-41 -69.5 -41 -117.5c0 -48.667 13.333 -88.167 40 -118.5s61.334 -45.5 104.001 -45.5c39.333 0 73 14.333 101 43c28.667 28.667 43 67.667 43 117v5c0 49.333 -14.333 88.333 -43 117c-28.667 30 -62 45 -100 45zM671.998 730c20 0 36.499 -6.83301 49.499 -20.5
s19.5 -31.5 19.5 -53.5c0 -64 -26 -125.333 -78 -184l-32 12c16.667 34 27.667 71.667 33 113c-17.333 2 -31.666 9 -42.999 21s-17 26.667 -17 44c0 18.667 6.66699 34.667 20 48s29.333 20 48 20z" />
    <glyph glyph-name="Dcroat" unicode="&#x110;" horiz-adv-x="740" 
d="M84 700h256c108.667 0 195.334 -32.333 260.001 -97c65.333 -64 98 -148.333 98 -253c0 -105.333 -32.667 -190 -98 -254c-64.667 -64 -151.334 -96 -260.001 -96h-256v316h-81v82h81v302zM340 595h-143.999v-197h116v-82h-116v-211h144c76 0 135.5 21.5 178.5 64.5
s64.5 103.167 64.5 180.5s-21.333 137.5 -64 180.5s-102.334 64.5 -179.001 64.5z" />
    <glyph glyph-name="dslash" unicode="&#x111;" horiz-adv-x="614" 
d="M431 730h105.999v-54h72v-80h-72v-596h-93l-7 71c-38 -54.667 -94 -82 -168 -82c-68.667 0 -125 25 -169 75c-44 50.667 -66 113.667 -66 189s22 138 66 188c44.667 50.667 101.334 76 170.001 76c72 0 125.667 -24.667 161 -74v153h-97v80h97v54zM288.999 416
c-42 0 -76.668 -15.167 -104.001 -45.5s-41 -69.5 -41 -117.5c0 -48.667 13.333 -88.167 40 -118.5s61.334 -45.5 104.001 -45.5c39.333 0 73 14.333 101 43c28.667 28.667 43 67.667 43 117v5c0 49.333 -14.333 88.333 -43 117c-28.667 30 -62 45 -100 45z" />
    <glyph glyph-name="Emacron" unicode="&#x112;" horiz-adv-x="514" 
d="M75 700h393v-105h-281v-183h245v-104h-245v-203h281v-105h-393v700zM142 822h270v-83h-270v83z" />
    <glyph glyph-name="emacron" unicode="&#x113;" horiz-adv-x="556" 
d="M281 517c70.667 0 127 -22.667 169 -68s63 -109.333 63 -192v-41h-369c2.66699 -40.667 16.834 -73 42.501 -97s58.167 -36 97.5 -36c61.333 0 101.666 24 120.999 72h104c-16 -53.333 -43.5 -94.333 -82.5 -123s-87.5 -43 -145.5 -43c-73.333 0 -133 24 -179 72
c-45.333 48.667 -68 112.334 -68 191.001c0 77.333 22.667 140.666 68 189.999c45.333 50 105 75 179 75zM280 424c-37.333 0 -68.333 -11.5 -93 -34.5s-38.667 -53.167 -42 -90.5h261c-0.666992 38 -12.5 68.333 -35.5 91s-53.167 34 -90.5 34zM141 675h270v-83h-270v83z
" />
    <glyph glyph-name="Ebreve" unicode="&#x114;" horiz-adv-x="514" 
d="M343 859h88c0 -38.667 -14.167 -70 -42.5 -94s-64.833 -36 -109.5 -36s-81 12 -109 36s-42 55.333 -42 94h87c0 -17.333 5.66699 -31.333 17 -42s27 -16 47 -16s35.667 5.33301 47 16s17 24.667 17 42zM75 700h393v-105h-281v-183h245v-104h-245v-203h281v-105h-393v700z
" />
    <glyph glyph-name="ebreve" unicode="&#x115;" horiz-adv-x="556" 
d="M281 517c70.667 0 127 -22.667 169 -68s63 -109.333 63 -192v-41h-369c2.66699 -40.667 16.834 -73 42.501 -97s58.167 -36 97.5 -36c61.333 0 101.666 24 120.999 72h104c-16 -53.333 -43.5 -94.333 -82.5 -123s-87.5 -43 -145.5 -43c-73.333 0 -133 24 -179 72
c-45.333 48.667 -68 112.334 -68 191.001c0 77.333 22.667 140.666 68 189.999c45.333 50 105 75 179 75zM340 711h88c0 -42.667 -14.167 -77.5 -42.5 -104.5s-64.833 -40.5 -109.5 -40.5s-81 13.5 -109 40.5s-42 61.833 -42 104.5h87c0 -22 5.83301 -39.833 17.5 -53.5
s27.167 -20.5 46.5 -20.5s34.833 6.83301 46.5 20.5s17.5 31.5 17.5 53.5zM280 424c-37.333 0 -68.333 -11.5 -93 -34.5s-38.667 -53.167 -42 -90.5h261c-0.666992 38 -12.5 68.333 -35.5 91s-53.167 34 -90.5 34z" />
    <glyph glyph-name="Edotaccent" unicode="&#x116;" horiz-adv-x="514" 
d="M75 700h393v-105h-281v-183h245v-104h-245v-203h281v-105h-393v700zM281 857c17.333 0 32.333 -6 45 -18s19 -26.667 19 -44c0 -18 -6.33301 -33.167 -19 -45.5s-27.667 -18.5 -45 -18.5c-18.667 0 -34.167 6.16699 -46.5 18.5s-18.5 27.5 -18.5 45.5
c0 17.333 6.16699 32 18.5 44s27.833 18 46.5 18z" />
    <glyph glyph-name="edotaccent" unicode="&#x117;" horiz-adv-x="556" 
d="M281 517c70.667 0 127 -22.667 169 -68s63 -109.333 63 -192v-41h-369c2.66699 -40.667 16.834 -73 42.501 -97s58.167 -36 97.5 -36c61.333 0 101.666 24 120.999 72h104c-16 -53.333 -43.5 -94.333 -82.5 -123s-87.5 -43 -145.5 -43c-73.333 0 -133 24 -179 72
c-45.333 48.667 -68 112.334 -68 191.001c0 77.333 22.667 140.666 68 189.999c45.333 50 105 75 179 75zM280 424c-37.333 0 -68.333 -11.5 -93 -34.5s-38.667 -53.167 -42 -90.5h261c-0.666992 38 -12.5 68.333 -35.5 91s-53.167 34 -90.5 34zM227 693
c13.333 13.333 29.666 20 48.999 20s35.666 -6.66699 48.999 -20c13.333 -12.667 20 -28.334 20 -47.001s-6.66699 -34.667 -20 -48c-13.333 -12.667 -29.666 -19 -48.999 -19s-35.666 6.33301 -48.999 19c-12.667 13.333 -19 29.333 -19 48s6.33301 34.334 19 47.001z" />
    <glyph glyph-name="Eogonek" unicode="&#x118;" horiz-adv-x="514" 
d="M75 700l393 0.000976562v-105h-281v-183h245v-104h-245v-203h281v-105h-23c-44.667 -18.667 -67 -47.334 -67 -86.001c0 -17.333 4.33301 -30.333 13 -39s21.667 -13.334 39 -14.001s31 2 41 8l15 -58c-14 -8 -34 -12 -60 -12c-35.333 0 -64 10.167 -86 30.5
s-33 47.5 -33 81.5c0 36.667 13.333 66.334 40 89.001h-272v700z" />
    <glyph glyph-name="eogonek" unicode="&#x119;" horiz-adv-x="556" 
d="M281 517c70.667 0 126.999 -22.666 168.999 -67.999s63 -109.333 63 -192v-41h-369c2.66699 -40.667 16.834 -73 42.501 -97s58.167 -36 97.5 -36c61.333 0 101.666 24 120.999 72h104c-16.667 -54.667 -46 -97 -88 -127h1l-4 -2c-8.66699 -6.66699 -18 -11.667 -28 -15
c-23.333 -16 -35 -39 -35 -69c0 -17.333 4.33301 -30.333 13 -39s21.667 -13.334 39 -14.001s31 2 41 8l15 -58c-14 -8 -34 -12 -60 -12c-35.333 0 -64 10.167 -86 30.5s-33 47.5 -33 81.5c0 20.667 3.33301 37.667 10 51c-1.33301 0 -3.66602 -0.166992 -6.99902 -0.5
s-5.33301 -0.5 -6 -0.5c-73.333 0 -133 24 -179 72c-45.333 48.667 -68 112.334 -68 191.001c0 77.333 22.667 140.666 68 189.999c45.333 50 105 75 179 75zM279.999 424.001c-37.333 0 -68.333 -11.5 -93 -34.5s-38.667 -53.167 -42 -90.5h261
c-0.666992 38 -12.5 68.333 -35.5 91s-53.167 34 -90.5 34z" />
    <glyph glyph-name="Ecaron" unicode="&#x11a;" horiz-adv-x="514" 
d="M75 700h393v-105h-281v-183h245v-104h-245v-203h281v-105h-393v700zM335 848h123l-148 -119h-64l-148 119h122l57 -53z" />
    <glyph glyph-name="ecaron" unicode="&#x11b;" horiz-adv-x="556" 
d="M281 517c70.667 0 127 -22.667 169 -68s63 -109.333 63 -192v-41h-369c2.66699 -40.667 16.834 -73 42.501 -97s58.167 -36 97.5 -36c61.333 0 101.666 24 120.999 72h104c-16 -53.333 -43.5 -94.333 -82.5 -123s-87.5 -43 -145.5 -43c-73.333 0 -133 24 -179 72
c-45.333 48.667 -68 112.334 -68 191.001c0 77.333 22.667 140.666 68 189.999c45.333 50 105 75 179 75zM338 721h112l-137 -158h-74l-138 158h112l63 -86zM280 424c-37.333 0 -68.333 -11.5 -93 -34.5s-38.667 -53.167 -42 -90.5h261c-0.666992 38 -12.5 68.333 -35.5 91
s-53.167 34 -90.5 34z" />
    <glyph glyph-name="Gcircumflex" unicode="&#x11c;" horiz-adv-x="758" 
d="M386 713c82.667 0 151 -19.998 205 -59.998s91 -96.333 111 -169h-124c-30 82.667 -94.333 124 -193 124c-67.333 0 -122.333 -24.333 -165 -73c-42.667 -47.333 -64 -109 -64 -185c0 -74.667 21.333 -136.334 64 -185.001s99 -73 169 -73
c60.667 0 108.667 14.667 144 44s54.333 71.666 57 126.999h-190v105h309v-54c0 -102 -29 -182 -87 -240c-57.333 -58 -135 -87 -233 -87c-102.667 0 -187 34.333 -253 103c-65.333 69.333 -98 156 -98 260s32.667 190.667 98 260c64.667 68.667 148 103 250 103z
M354 861.002h64l148 -119h-123l-58 53l-57 -53h-122z" />
    <glyph glyph-name="gcircumflex" unicode="&#x11d;" horiz-adv-x="512" 
d="M326 506h187.002v-92h-81c11.333 -26 17 -52 17 -78c0 -51.333 -18 -94 -54 -128c-36.667 -33.333 -83.667 -50 -141 -50c-35.333 0 -68 6.66699 -98 20c-10.667 -10.667 -16 -25 -16 -43c0 -14.667 5.16699 -26.167 15.5 -34.5s24.5 -12.5 42.5 -12.5h127
c52 0 92 -12.333 120 -37s42 -59.334 42 -104.001c0 -54 -19.333 -96.333 -58 -127s-91.334 -46 -158.001 -46c-72.667 0 -128.334 13.5 -167.001 40.5s-58 65.5 -58 115.5c0 40 18 70.333 54 91c-42.667 24.667 -64 60 -64 106c0 43.333 17.333 78.333 52 105
c-22 30.667 -33 65.334 -33 104.001c0 52.667 18.333 96 55 130c37.333 34 85.333 51 144 51c24 0 48 -3.66699 72 -11zM253.002 430c-28.667 0 -51.499 -8.66699 -68.499 -26s-25.5 -40 -25.5 -68c0 -26.667 8.66699 -48.834 26 -66.501s40 -26.5 68 -26.5
c27.333 0 49.666 8.83301 66.999 26.5s26 39.834 26 66.501c0 28 -8.5 50.667 -25.5 68s-39.5 26 -67.5 26zM222.003 732h74l137 -158h-112l-62 86l-63 -86h-112zM301.003 2l-87.001 -0.00195312c-19.333 -1.33301 -34.666 -7.66602 -45.999 -18.999
s-17 -26.666 -17 -45.999c0 -51.333 40 -77 120 -77c74.667 0 112 27 112 81c0 40.667 -27.333 61 -82 61z" />
    <glyph glyph-name="Gbreve" unicode="&#x11e;" horiz-adv-x="758" 
d="M386 713c82.667 0 151 -19.998 205 -59.998s91 -96.333 111 -169h-124c-30 82.667 -94.333 124 -193 124c-67.333 0 -122.333 -24.333 -165 -73c-42.667 -47.333 -64 -109 -64 -185c0 -74.667 21.333 -136.334 64 -185.001s99 -73 169 -73
c60.667 0 108.667 14.667 144 44s54.333 71.666 57 126.999h-190v105h309v-54c0 -102 -29 -182 -87 -240c-57.333 -58 -135 -87 -233 -87c-102.667 0 -187 34.333 -253 103c-65.333 69.333 -98 156 -98 260s32.667 190.667 98 260c64.667 68.667 148 103 250 103z
M450 869.002h88c0 -38.667 -14.167 -70 -42.5 -94s-64.833 -36 -109.5 -36s-81 12 -109 36s-42 55.333 -42 94h87c0 -17.333 5.66699 -31.333 17 -42s27 -16 47 -16s35.667 5.33301 47 16s17 24.667 17 42z" />
    <glyph glyph-name="gbreve" unicode="&#x11f;" horiz-adv-x="512" 
d="M326 506h187.002v-92h-81c11.333 -26 17 -52 17 -78c0 -51.333 -18 -94 -54 -128c-36.667 -33.333 -83.667 -50 -141 -50c-35.333 0 -68 6.66699 -98 20c-10.667 -10.667 -16 -25 -16 -43c0 -14.667 5.16699 -26.167 15.5 -34.5s24.5 -12.5 42.5 -12.5h127
c52 0 92 -12.333 120 -37s42 -59.334 42 -104.001c0 -54 -19.333 -96.333 -58 -127s-91.334 -46 -158.001 -46c-72.667 0 -128.334 13.5 -167.001 40.5s-58 65.5 -58 115.5c0 40 18 70.333 54 91c-42.667 24.667 -64 60 -64 106c0 43.333 17.333 78.333 52 105
c-22 30.667 -33 65.334 -33 104.001c0 52.667 18.333 96 55 130c37.333 34 85.333 51 144 51c24 0 48 -3.66699 72 -11zM253.002 430c-28.667 0 -51.499 -8.66699 -68.499 -26s-25.5 -40 -25.5 -68c0 -26.667 8.66699 -48.834 26 -66.501s40 -26.5 68 -26.5
c27.333 0 49.666 8.83301 66.999 26.5s26 39.834 26 66.501c0 28 -8.5 50.667 -25.5 68s-39.5 26 -67.5 26zM301.003 2l-87.001 -0.00195312c-19.333 -1.33301 -34.666 -7.66602 -45.999 -18.999s-17 -26.666 -17 -45.999c0 -51.333 40 -77 120 -77c74.667 0 112 27 112 81
c0 40.667 -27.333 61 -82 61zM323.002 710.998h88c0 -42.667 -14.167 -77.5 -42.5 -104.5s-64.833 -40.5 -109.5 -40.5s-81 13.5 -109 40.5s-42 61.833 -42 104.5h87c0 -22 5.83301 -39.833 17.5 -53.5s27.167 -20.5 46.5 -20.5s34.833 6.83301 46.5 20.5
s17.5 31.5 17.5 53.5z" />
    <glyph glyph-name="Gdotaccent" unicode="&#x120;" horiz-adv-x="758" 
d="M386 713c82.667 0 151 -19.998 205 -59.998s91 -96.333 111 -169h-124c-30 82.667 -94.333 124 -193 124c-67.333 0 -122.333 -24.333 -165 -73c-42.667 -47.333 -64 -109 -64 -185c0 -74.667 21.333 -136.334 64 -185.001s99 -73 169 -73
c60.667 0 108.667 14.667 144 44s54.333 71.666 57 126.999h-190v105h309v-54c0 -102 -29 -182 -87 -240c-57.333 -58 -135 -87 -233 -87c-102.667 0 -187 34.333 -253 103c-65.333 69.333 -98 156 -98 260s32.667 190.667 98 260c64.667 68.667 148 103 250 103z
M386 867.002c17.333 0 32.333 -6 45 -18s19 -26.667 19 -44c0 -18 -6.33301 -33.167 -19 -45.5s-27.667 -18.5 -45 -18.5c-18.667 0 -34.167 6.16699 -46.5 18.5s-18.5 27.5 -18.5 45.5c0 17.333 6.16699 32 18.5 44s27.833 18 46.5 18z" />
    <glyph glyph-name="gdotaccent" unicode="&#x121;" horiz-adv-x="512" 
d="M326 506h187.002v-92h-81c11.333 -26 17 -52 17 -78c0 -51.333 -18 -94 -54 -128c-36.667 -33.333 -83.667 -50 -141 -50c-35.333 0 -68 6.66699 -98 20c-10.667 -10.667 -16 -25 -16 -43c0 -14.667 5.16699 -26.167 15.5 -34.5s24.5 -12.5 42.5 -12.5h127
c52 0 92 -12.333 120 -37s42 -59.334 42 -104.001c0 -54 -19.333 -96.333 -58 -127s-91.334 -46 -158.001 -46c-72.667 0 -128.334 13.5 -167.001 40.5s-58 65.5 -58 115.5c0 40 18 70.333 54 91c-42.667 24.667 -64 60 -64 106c0 43.333 17.333 78.333 52 105
c-22 30.667 -33 65.334 -33 104.001c0 52.667 18.333 96 55 130c37.333 34 85.333 51 144 51c24 0 48 -3.66699 72 -11zM253.002 430c-28.667 0 -51.499 -8.66699 -68.499 -26s-25.5 -40 -25.5 -68c0 -26.667 8.66699 -48.834 26 -66.501s40 -26.5 68 -26.5
c27.333 0 49.666 8.83301 66.999 26.5s26 39.834 26 66.501c0 28 -8.5 50.667 -25.5 68s-39.5 26 -67.5 26zM301.003 2l-87.001 -0.00195312c-19.333 -1.33301 -34.666 -7.66602 -45.999 -18.999s-17 -26.666 -17 -45.999c0 -51.333 40 -77 120 -77c74.667 0 112 27 112 81
c0 40.667 -27.333 61 -82 61zM210.002 692.998c13.333 13.333 29.666 20 48.999 20s35.666 -6.66699 48.999 -20c13.333 -12.667 20 -28.334 20 -47.001s-6.66699 -34.667 -20 -48c-13.333 -12.667 -29.666 -19 -48.999 -19s-35.666 6.33301 -48.999 19
c-12.667 13.333 -19 29.333 -19 48s6.33301 34.334 19 47.001z" />
    <glyph glyph-name="Gcommaaccent" unicode="&#x122;" horiz-adv-x="758" 
d="M386 713c82.667 0 151 -19.998 205 -59.998s91 -96.333 111 -169h-124c-30 82.667 -94.333 124 -193 124c-67.333 0 -122.333 -24.333 -165 -73c-42.667 -47.333 -64 -109 -64 -185c0 -74.667 21.333 -136.334 64 -185.001s99 -73 169 -73
c60.667 0 108.667 14.667 144 44s54.333 71.666 57 126.999h-190v105h309v-54c0 -102 -29 -182 -87 -240c-57.333 -58 -135 -87 -233 -87c-102.667 0 -187 34.333 -253 103c-65.333 69.333 -98 156 -98 260s32.667 190.667 98 260c64.667 68.667 148 103 250 103z
M390 -44.998c20 0 36.333 -6.83301 49 -20.5s19 -31.5 19 -53.5c0 -28 -7.16699 -57.5 -21.5 -88.5s-32.833 -57.833 -55.5 -80.5l-30 15c17.333 31.333 27.333 63 30 95c-17.333 2 -31.5 9 -42.5 21s-16.5 26.667 -16.5 44c0 19.333 6.66699 35.5 20 48.5
s29.333 19.5 48 19.5z" />
    <glyph glyph-name="gcommaaccent" unicode="&#x123;" horiz-adv-x="512" 
d="M326 506h187.002v-92h-81c11.333 -26 17 -52 17 -78c0 -51.333 -18 -94 -54 -128c-36.667 -33.333 -83.667 -50 -141 -50c-35.333 0 -68 6.66699 -98 20c-10.667 -10.667 -16 -25 -16 -43c0 -14.667 5.16699 -26.167 15.5 -34.5s24.5 -12.5 42.5 -12.5h127
c52 0 92 -12.333 120 -37s42 -59.334 42 -104.001c0 -54 -19.333 -96.333 -58 -127s-91.334 -46 -158.001 -46c-72.667 0 -128.334 13.5 -167.001 40.5s-58 65.5 -58 115.5c0 40 18 70.333 54 91c-42.667 24.667 -64 60 -64 106c0 43.333 17.333 78.333 52 105
c-22 30.667 -33 65.334 -33 104.001c0 52.667 18.333 96 55 130c37.333 34 85.333 51 144 51c24 0 48 -3.66699 72 -11zM253.002 430c-28.667 0 -51.499 -8.66699 -68.499 -26s-25.5 -40 -25.5 -68c0 -26.667 8.66699 -48.834 26 -66.501s40 -26.5 68 -26.5
c27.333 0 49.666 8.83301 66.999 26.5s26 39.834 26 66.501c0 28 -8.5 50.667 -25.5 68s-39.5 26 -67.5 26zM301.003 2l-87.001 -0.00195312c-19.333 -1.33301 -34.666 -7.66602 -45.999 -18.999s-17 -26.666 -17 -45.999c0 -51.333 40 -77 120 -77c74.667 0 112 27 112 81
c0 40.667 -27.333 61 -82 61zM267.002 822.998l33.001 -11.999c-18 -34.667 -29 -72.334 -33 -113.001c17.333 -2 31.666 -9 42.999 -21s17 -26.667 17 -44c0 -18.667 -6.66699 -34.5 -20 -47.5s-29.333 -19.5 -48 -19.5c-20 0 -36.5 6.83301 -49.5 20.5
s-19.5 31.5 -19.5 53.5c0 61.333 25.667 122.333 77 183z" />
    <glyph glyph-name="Hcircumflex" unicode="&#x124;" horiz-adv-x="712" 
d="M525 700h112v-700h-112v309h-338v-309h-112v700h112v-285h338v285zM323 851h64l148 -119h-123l-58 53l-57 -53h-122z" />
    <glyph glyph-name="hcircumflex" unicode="&#x125;" horiz-adv-x="541" 
d="M73 730l106 -0.000976562v-283c26 46.667 70.333 70 133 70c52 0 92.333 -17 121 -51s43 -80 43 -138v-328h-107v307c0 34.667 -7.5 61 -22.5 79s-36.167 27 -63.5 27c-31.333 0 -56.5 -12.667 -75.5 -38s-28.5 -60.666 -28.5 -105.999v-269h-106v730zM98 874.999h64
l148 -119h-123l-58 53l-57 -53h-122z" />
    <glyph glyph-name="Hbar" unicode="&#x126;" horiz-adv-x="728" 
d="M532 700h112v-94h76v-81h-76v-525h-112v309h-338v-309h-112v525h-74v81h74v94h112v-94h338v94zM194 525v-110h338v110h-338z" />
    <glyph glyph-name="hbar" unicode="&#x127;" horiz-adv-x="546" 
d="M78 730l106 -0.000976562v-54h96v-80h-96v-149c26 46.667 70.333 70 133 70c52 0 92.333 -17 121 -51s43 -80 43 -138v-328h-107v307c0 34.667 -7.5 61 -22.5 79s-36.167 27 -63.5 27c-31.333 0 -56.5 -12.667 -75.5 -38s-28.5 -60.666 -28.5 -105.999v-269h-106v596h-73
v80h73v54z" />
    <glyph glyph-name="Itilde" unicode="&#x128;" horiz-adv-x="262" 
d="M70 865c21.333 0 40.166 -5.5 56.499 -16.5s30.166 -22 41.499 -33s21.666 -16.5 30.999 -16.5c24.667 0 37 19 37 57h66c0 -40.667 -9.16699 -72.667 -27.5 -96s-44.833 -35 -79.5 -35c-21.333 0 -40.166 5.5 -56.499 16.5s-30.166 22 -41.499 33
s-21.666 16.5 -30.999 16.5c-24.667 0 -37 -19 -37 -57h-66c0 40.667 9.16699 72.667 27.5 96s44.833 35 79.5 35zM75 700h112v-700h-112v700z" />
    <glyph glyph-name="itilde" unicode="&#x129;" 
d="M66 713c18.667 0 34.834 -3.66797 48.501 -11.001s23.667 -15.333 30 -24s13.833 -16.667 22.5 -24s18 -11 28 -11c24.667 0 37 20.333 37 61h66c0 -41.333 -9.16699 -74.166 -27.5 -98.499s-44.833 -36.5 -79.5 -36.5c-18.667 0 -34.834 3.66699 -48.501 11
s-23.667 15.5 -30 24.5s-13.833 17.167 -22.5 24.5s-18 11 -28 11c-24.667 0 -37 -20.667 -37 -62h-66c0 42 9.16699 75 27.5 99s44.833 36 79.5 36zM75 505.999h106v-506h-106v506z" />
    <glyph glyph-name="Imacron" unicode="&#x12a;" horiz-adv-x="262" 
d="M75 700h112v-700h-112v700zM-3 822h270v-83h-270v83z" />
    <glyph glyph-name="imacron" unicode="&#x12b;" 
d="M75 506h106v-506h-106v506zM-7 675h270v-83h-270v83z" />
    <glyph glyph-name="Ibreve" unicode="&#x12c;" horiz-adv-x="262" 
d="M194 859h88c0 -38.667 -14.167 -70 -42.5 -94s-64.833 -36 -109.5 -36s-81 12 -109 36s-42 55.333 -42 94h87c0 -17.333 5.66699 -31.333 17 -42s27 -16 47 -16s35.667 5.33301 47 16s17 24.667 17 42zM75 700h112v-700h-112v700z" />
    <glyph glyph-name="ibreve" unicode="&#x12d;" 
d="M192 711h88c0 -42.667 -14.167 -77.5 -42.5 -104.5s-64.833 -40.5 -109.5 -40.5s-81 13.5 -109 40.5s-42 61.833 -42 104.5h87c0 -22 5.83301 -39.833 17.5 -53.5s27.167 -20.5 46.5 -20.5s34.833 6.83301 46.5 20.5s17.5 31.5 17.5 53.5zM75 506h106v-506h-106v506z" />
    <glyph glyph-name="Iogonek" unicode="&#x12e;" horiz-adv-x="262" 
d="M75 700l112 0.00195312v-700h-33c-44.667 -18.667 -67 -47.334 -67 -86.001c0 -17.333 4.33301 -30.333 13 -39s21.667 -13.334 39 -14.001s31 2 41 8l15 -58c-14 -8 -34 -12 -60 -12c-35.333 0 -64 10.167 -86 30.5s-33 47.5 -33 81.5c0 44 19.667 78.667 59 104v685z
" />
    <glyph glyph-name="iogonek" unicode="&#x12f;" 
d="M75 506l106 0.00292969v-506h-18c-44.667 -18.667 -67 -47.334 -67 -86.001c0 -17.333 4.33301 -30.333 13 -39s21.667 -13.334 39 -14.001s31 2 41 8l15 -58c-14 -8 -34 -12 -60 -12c-35.333 0 -64 10.167 -86 30.5s-33 47.5 -33 81.5c0 41.333 16.667 73.666 50 96.999
v498zM128 725.003c19.333 1.33301 35.8311 -5.33496 49.498 -20.002s20.334 -30.667 20.001 -48s-7.16602 -33 -20.499 -47c-14.667 -12 -31 -18.167 -49 -18.5s-34.167 5.83398 -48.5 18.501s-20.833 28.334 -19.5 47.001c0 19.333 6.66699 35.5 20 48.5
s29.333 19.5 48 19.5z" />
    <glyph glyph-name="Idot" unicode="&#x130;" horiz-adv-x="262" 
d="M130 857c17.333 0 32.333 -6 45 -18s19 -26.667 19 -44c0 -18 -6.33301 -33.167 -19 -45.5s-27.667 -18.5 -45 -18.5c-18.667 0 -34.167 6.16699 -46.5 18.5s-18.5 27.5 -18.5 45.5c0 17.333 6.16699 32 18.5 44s27.833 18 46.5 18zM75 700h112v-700h-112v700z" />
    <glyph glyph-name="dotlessi" unicode="&#x131;" 
d="M75 506h106v-506h-106v506z" />
    <glyph glyph-name="Jcircumflex" unicode="&#x134;" horiz-adv-x="514" 
d="M336 700l112 0.000976562v-493c0 -70 -17.667 -123.5 -53 -160.5s-86 -55.5 -152 -55.5c-70 0 -123.167 20 -159.5 60s-55.5 96.667 -57.5 170h112c4 -83.333 39 -125 105 -125c30 0 53 10.167 69 30.5s24 49.166 24 86.499v487zM360 851.001h64l148 -119h-123l-58 53
l-57 -53h-122z" />
    <glyph glyph-name="jcircumflex" unicode="&#x135;" 
d="M75 506h106.001v-546c0 -124 -53.333 -186 -160 -186c-31.333 0 -56 3 -74 9v96c18 -5.33301 36.667 -8 56 -8c25.333 0 43.666 7.5 54.999 22.5s17 38.167 17 69.5v543zM93.001 732h74l137 -158h-112l-62 86l-63 -86h-112z" />
    <glyph glyph-name="Kcommaaccent" unicode="&#x136;" horiz-adv-x="676" 
d="M467 700h138l-228 -311l282 -389h-135l-223 299l-110 -140v-159h-112v700h112v-377zM411 -109c0 -28 -7.16699 -57.5 -21.5 -88.5s-32.833 -57.833 -55.5 -80.5l-30 15c17.333 31.333 27.333 63 30 95c-17.333 2 -31.5 9 -42.5 21s-16.5 26.667 -16.5 44
c0 19.333 6.5 35.5 19.5 48.5s29.167 19.5 48.5 19.5c20 0 36.333 -6.83301 49 -20.5s19 -31.5 19 -53.5z" />
    <glyph glyph-name="kcommaaccent" unicode="&#x137;" horiz-adv-x="518" 
d="M77 730h106v-447l170 223h128l-156 -211l182 -295h-121l-136 213l-67 -83v-130h-106v730zM345 -109c0 -28 -7.16699 -57.5 -21.5 -88.5s-32.833 -57.833 -55.5 -80.5l-30 15c17.333 31.333 27.333 63 30 95c-17.333 2 -31.5 9 -42.5 21s-16.5 26.667 -16.5 44
c0 19.333 6.5 35.5 19.5 48.5s29.167 19.5 48.5 19.5c20 0 36.333 -6.83301 49 -20.5s19 -31.5 19 -53.5z" />
    <glyph glyph-name="Lacute" unicode="&#x139;" horiz-adv-x="512" 
d="M74 700h112v-595h303v-105h-415v700zM156 847h153l-136 -114h-112z" />
    <glyph glyph-name="lacute" unicode="&#x13a;" 
d="M75 730h106v-730h-106v730zM169 885h153l-136 -114h-112z" />
    <glyph glyph-name="Lcommaaccent" unicode="&#x13b;" horiz-adv-x="512" 
d="M286 -35c20 0 36.333 -6.83301 49 -20.5s19 -31.5 19 -53.5c0 -28 -7.16699 -57.5 -21.5 -88.5s-32.833 -57.833 -55.5 -80.5l-30 15c17.333 31.333 27.333 63 30 95c-17.333 2 -31.5 9 -42.5 21s-16.5 26.667 -16.5 44c0 19.333 6.66699 35.5 20 48.5
s29.333 19.5 48 19.5zM74 700h112v-595h303v-105h-415v700z" />
    <glyph glyph-name="lcommaaccent" unicode="&#x13c;" 
d="M75 730h106v-730h-106v730zM195 -109c0 -28 -7.16699 -57.5 -21.5 -88.5s-32.833 -57.833 -55.5 -80.5l-30 15c17.333 31.333 27.333 63 30 95c-17.333 2 -31.5 9 -42.5 21s-16.5 26.667 -16.5 44c0 19.333 6.5 35.5 19.5 48.5s29.167 19.5 48.5 19.5
c20 0 36.333 -6.83301 49 -20.5s19 -31.5 19 -53.5z" />
    <glyph glyph-name="Lcaron" unicode="&#x13d;" horiz-adv-x="512" 
d="M74 700h112v-595h303v-105h-415v700zM442 706c20 0 36.499 -6.83301 49.499 -20.5s19.5 -31.5 19.5 -53.5c0 -64 -26 -125.333 -78 -184l-32 12c16.667 34 27.667 71.667 33 113c-17.333 2 -31.666 9 -42.999 21s-17 26.667 -17 44c0 18.667 6.66699 34.667 20 48
s29.333 20 48 20z" />
    <glyph glyph-name="lcaron" unicode="&#x13e;" horiz-adv-x="396" 
d="M75 730h106v-730h-106v730zM316 730c20 0 36.499 -6.83301 49.499 -20.5s19.5 -31.5 19.5 -53.5c0 -64 -26 -125.333 -78 -184l-32 12c16.667 34 27.667 71.667 33 113c-17.333 2 -31.666 9 -42.999 21s-17 26.667 -17 44c0 18.667 6.66699 34.667 20 48s29.333 20 48 20
z" />
    <glyph glyph-name="Ldot" unicode="&#x13f;" horiz-adv-x="512" 
d="M74 700h112v-595h303v-105h-415v700zM468 331c0 -20 -6.83301 -36.833 -20.5 -50.5s-30.5 -20.5 -50.5 -20.5s-36.667 6.83301 -50 20.5s-20 30.5 -20 50.5c0 19.333 6.66699 35.666 20 48.999s30 20 50 20s36.833 -6.66699 50.5 -20s20.5 -29.666 20.5 -48.999z" />
    <glyph glyph-name="ldot" unicode="&#x140;" horiz-adv-x="427" 
d="M392 260c0 -20 -6.83301 -36.833 -20.5 -50.5s-30.5 -20.5 -50.5 -20.5s-36.667 6.83301 -50 20.5s-20 30.5 -20 50.5c0 19.333 6.66699 35.666 20 48.999s30 20 50 20s36.833 -6.66699 50.5 -20s20.5 -29.666 20.5 -48.999zM75 730h106v-730h-106v730z" />
    <glyph glyph-name="Lslash" unicode="&#x141;" horiz-adv-x="527" 
d="M88 700h112v-308l85 34l27 -76l-112 -44v-201h303v-105h-415v262l-73 -29l-27 76l100 39v352z" />
    <glyph glyph-name="lslash" unicode="&#x142;" horiz-adv-x="289" 
d="M90 730h106v-340l77 31l27 -75l-104 -42v-304h-106v261l-74 -29l-27 75l101 40v383z" />
    <glyph glyph-name="Nacute" unicode="&#x143;" horiz-adv-x="720" 
d="M534 700h112v-700h-111l-321 466l-27 44v-510h-112v700h110l319 -465l30 -47v512zM386 847h153l-136 -114h-112z" />
    <glyph glyph-name="nacute" unicode="&#x144;" horiz-adv-x="548" 
d="M312 517c52 0 92.333 -17.001 121 -51.001s43 -80 43 -138v-328h-107v307c0 34.667 -7.5 61 -22.5 79s-36.167 27 -63.5 27c-31.333 0 -56.5 -12.667 -75.5 -38s-28.5 -60.666 -28.5 -105.999v-269h-106v506h92l8 -68c28 52.667 74.333 79 139 79zM338 731.999h134
l-148 -158h-95z" />
    <glyph glyph-name="Ncommaaccent" unicode="&#x145;" horiz-adv-x="720" 
d="M534 700h112v-700h-111l-321 466l-27 44v-510h-112v700h110l319 -465l30 -47v512zM427 -109c0 -28 -7.16699 -57.5 -21.5 -88.5s-32.833 -57.833 -55.5 -80.5l-30 15c17.333 31.333 27.333 63 30 95c-17.333 2 -31.5 9 -42.5 21s-16.5 26.667 -16.5 44
c0 19.333 6.5 35.5 19.5 48.5s29.167 19.5 48.5 19.5c20 0 36.333 -6.83301 49 -20.5s19 -31.5 19 -53.5z" />
    <glyph glyph-name="ncommaaccent" unicode="&#x146;" horiz-adv-x="548" 
d="M312 517c52 0 92.333 -17.001 121 -51.001s43 -80 43 -138v-328h-107v307c0 34.667 -7.5 61 -22.5 79s-36.167 27 -63.5 27c-31.333 0 -56.5 -12.667 -75.5 -38s-28.5 -60.666 -28.5 -105.999v-269h-106v506h92l8 -68c28 52.667 74.333 79 139 79zM274 -35.001
c20 0 36.333 -6.83301 49 -20.5s19 -31.5 19 -53.5c0 -28 -7.16699 -57.5 -21.5 -88.5s-32.833 -57.833 -55.5 -80.5l-30 15c17.333 31.333 27.333 63 30 95c-17.333 2 -31.5 9 -42.5 21s-16.5 26.667 -16.5 44c0 19.333 6.66699 35.5 20 48.5s29.333 19.5 48 19.5z" />
    <glyph glyph-name="Ncaron" unicode="&#x147;" horiz-adv-x="720" 
d="M534 700h112v-700h-111l-321 466l-27 44v-510h-112v700h110l319 -465l30 -47v512zM417 848h123l-148 -119h-64l-148 119h122l57 -53z" />
    <glyph glyph-name="ncaron" unicode="&#x148;" horiz-adv-x="548" 
d="M312 517c52 0 92.333 -17.001 121 -51.001s43 -80 43 -138v-328h-107v307c0 34.667 -7.5 61 -22.5 79s-36.167 27 -63.5 27c-31.333 0 -56.5 -12.667 -75.5 -38s-28.5 -60.666 -28.5 -105.999v-269h-106v506h92l8 -68c28 52.667 74.333 79 139 79zM342 720.999h112
l-137 -158h-74l-138 158h112l63 -86z" />
    <glyph glyph-name="Eng" unicode="&#x14a;" horiz-adv-x="720" 
d="M534 700h112v-700c-0.666992 -70 -19.167 -123.333 -55.5 -160s-87.833 -55 -154.5 -55v100c31.333 0 55.5 9.5 72.5 28.5s25.5 46.167 25.5 81.5v6l-320 465l-27 44v-510h-112v700h110l319 -465l30 -47v512z" />
    <glyph glyph-name="eng" unicode="&#x14b;" horiz-adv-x="541" 
d="M312 517c52 0 92.332 -17.001 120.999 -51.001s43 -80 43 -138v-368c0 -124 -62.667 -186 -188 -186v97c28.667 0 49.334 7.5 62.001 22.5s19 38.167 19 69.5v344c0 34.667 -7.5 61 -22.5 79s-36.167 27 -63.5 27c-31.333 0 -56.5 -12.667 -75.5 -38
s-28.5 -60.666 -28.5 -105.999v-269h-106v506h92l8 -68c28 52.667 74.333 79 139 79z" />
    <glyph glyph-name="Omacron" unicode="&#x14c;" horiz-adv-x="797" 
d="M399 713c105.333 0 191.333 -34.333 258 -103c67.333 -68.667 101 -155 101 -259c0 -104.667 -33.667 -191.667 -101 -261c-66.667 -68.667 -152.667 -103 -258 -103s-192 34.333 -260 103c-67.333 69.333 -101 156.333 -101 261c0 104 33.667 190.333 101 259
c68 68.667 154.667 103 260 103zM156 351c0 -75.333 22.333 -137.333 67 -186s103.334 -73 176.001 -73c72 0 130.333 24.333 175 73s67 110.667 67 186s-22.333 136.666 -67 183.999c-44.667 48.667 -103 73 -175 73c-72.667 0 -131.334 -24.333 -176.001 -73
c-44.667 -47.333 -67 -108.666 -67 -183.999zM263 832h270v-83h-270v83z" />
    <glyph glyph-name="omacron" unicode="&#x14d;" horiz-adv-x="589" 
d="M107 443c49.333 49.333 111.666 73.998 186.999 73.998s137.666 -24.667 186.999 -74s74 -112.666 74 -189.999s-24.667 -140.666 -74 -189.999s-111.666 -74 -186.999 -74s-137.666 24.667 -186.999 74c-48.667 48.667 -73 112 -73 190s24.333 141.333 73 190z
M403 371.998c-27.333 31.333 -63.333 47 -108 47s-81 -15.667 -109 -47c-28 -30.667 -42 -70.334 -42 -119.001s14 -88.334 42 -119.001c28 -31.333 64.333 -47 109 -47s80.667 15.667 108 47c28 30.667 42 70.334 42 119.001s-14 88.334 -42 119.001zM159 674.998h270v-83
h-270v83z" />
    <glyph glyph-name="Obreve" unicode="&#x14e;" horiz-adv-x="797" 
d="M399 713c105.333 0 191.333 -34.333 258 -103c67.333 -68.667 101 -155 101 -259c0 -104.667 -33.667 -191.667 -101 -261c-66.667 -68.667 -152.667 -103 -258 -103s-192 34.333 -260 103c-67.333 69.333 -101 156.333 -101 261c0 104 33.667 190.333 101 259
c68 68.667 154.667 103 260 103zM156 351c0 -75.333 22.333 -137.333 67 -186s103.334 -73 176.001 -73c72 0 130.333 24.333 175 73s67 110.667 67 186s-22.333 136.666 -67 183.999c-44.667 48.667 -103 73 -175 73c-72.667 0 -131.334 -24.333 -176.001 -73
c-44.667 -47.333 -67 -108.666 -67 -183.999zM462 869h88c0 -38.667 -14.167 -70 -42.5 -94s-64.833 -36 -109.5 -36s-81 12 -109 36s-42 55.333 -42 94h87c0 -17.333 5.66699 -31.333 17 -42s27 -16 47 -16s35.667 5.33301 47 16s17 24.667 17 42z" />
    <glyph glyph-name="obreve" unicode="&#x14f;" horiz-adv-x="589" 
d="M107 443c49.333 49.333 111.666 73.998 186.999 73.998s137.666 -24.667 186.999 -74s74 -112.666 74 -189.999s-24.667 -140.666 -74 -189.999s-111.666 -74 -186.999 -74s-137.666 24.667 -186.999 74c-48.667 48.667 -73 112 -73 190s24.333 141.333 73 190z
M403 371.998c-27.333 31.333 -63.333 47 -108 47s-81 -15.667 -109 -47c-28 -30.667 -42 -70.334 -42 -119.001s14 -88.334 42 -119.001c28 -31.333 64.333 -47 109 -47s80.667 15.667 108 47c28 30.667 42 70.334 42 119.001s-14 88.334 -42 119.001zM358 710.998h88
c0 -42.667 -14.167 -77.5 -42.5 -104.5s-64.833 -40.5 -109.5 -40.5s-81 13.5 -109 40.5s-42 61.833 -42 104.5h87c0 -22 5.83301 -39.833 17.5 -53.5s27.167 -20.5 46.5 -20.5s34.833 6.83301 46.5 20.5s17.5 31.5 17.5 53.5z" />
    <glyph glyph-name="Ohungarumlaut" unicode="&#x150;" horiz-adv-x="797" 
d="M399 713c105.333 0 191.333 -34.333 258 -103c67.333 -68.667 101 -155 101 -259c0 -104.667 -33.667 -191.667 -101 -261c-66.667 -68.667 -152.667 -103 -258 -103s-192 34.333 -260 103c-67.333 69.333 -101 156.333 -101 261c0 104 33.667 190.333 101 259
c68 68.667 154.667 103 260 103zM156 351c0 -75.333 22.333 -137.333 67 -186s103.334 -73 176.001 -73c72 0 130.333 24.333 175 73s67 110.667 67 186s-22.333 136.666 -67 183.999c-44.667 48.667 -103 73 -175 73c-72.667 0 -131.334 -24.333 -176.001 -73
c-44.667 -47.333 -67 -108.666 -67 -183.999zM334 860h113l-97 -121h-92zM507 860h113l-97 -121h-92z" />
    <glyph glyph-name="ohungarumlaut" unicode="&#x151;" horiz-adv-x="589" 
d="M107 443c49.333 49.333 111.666 73.998 186.999 73.998s137.666 -24.667 186.999 -74s74 -112.666 74 -189.999s-24.667 -140.666 -74 -189.999s-111.666 -74 -186.999 -74s-137.666 24.667 -186.999 74c-48.667 48.667 -73 112 -73 190s24.333 141.333 73 190z
M403 371.998c-27.333 31.333 -63.333 47 -108 47s-81 -15.667 -109 -47c-28 -30.667 -42 -70.334 -42 -119.001s14 -88.334 42 -119.001c28 -31.333 64.333 -47 109 -47s80.667 15.667 108 47c28 30.667 42 70.334 42 119.001s-14 88.334 -42 119.001zM233 731.998h114
l-105 -158h-91zM414 731.998h113l-105 -158h-90z" />
    <glyph glyph-name="OE" unicode="&#x152;" horiz-adv-x="1090" 
d="M646 700h393v-105h-281v-183h245v-104h-245v-203h281v-105h-393v82c-65.333 -63.333 -146.333 -95 -243 -95c-104.667 0 -191 34.333 -259 103c-67.333 69.333 -101 156.333 -101 261c0 104 33.667 190.333 101 259c66.667 68.667 153 103 259 103
c96.667 0 177.667 -31.667 243 -95v82zM160 351c0 -75.333 22.333 -137.334 67 -186.001s103.334 -73 176.001 -73c72 0 130.333 24.333 175 73c45.333 49.333 68 111.333 68 186c0 74 -22.667 135.333 -68 184c-44.667 48.667 -103 73 -175 73
c-72.667 0 -131.334 -24.333 -176.001 -73c-44.667 -47.333 -67 -108.666 -67 -183.999z" />
    <glyph glyph-name="oe" unicode="&#x153;" horiz-adv-x="966" 
d="M294 517c86.667 0 154.333 -31 203 -93c46 62 110.667 93 194 93c70.667 0 127 -22.667 169 -68s63 -109.333 63 -192v-41h-369c2.66699 -40.667 16.834 -73 42.501 -97s58.167 -36 97.5 -36c61.333 0 101.666 24 120.999 72h104c-16 -53.333 -43.5 -94.333 -82.5 -123
s-87.5 -43 -145.5 -43c-84 0 -149 30.333 -195 91c-48.667 -60.667 -116 -91 -202 -91c-75.333 0 -137.666 24.667 -186.999 74c-48.667 48.667 -73 112 -73 190s24.333 141.333 73 190c49.333 49.333 111.666 74 186.999 74zM294.999 419
c-44.667 0 -81 -15.665 -109 -46.998c-28 -30.667 -42 -70.334 -42 -119.001s14 -88.334 42 -119.001c28 -31.333 64.333 -47 109 -47c41.333 0 75.666 13.833 102.999 41.5s42.666 63.5 45.999 107.5v34c-3.33301 44 -18.666 79.833 -45.999 107.5
s-61.666 41.5 -102.999 41.5zM689.999 424.002c-37.333 0 -68.333 -11.5 -93 -34.5s-38.667 -53.167 -42 -90.5h261c-0.666992 38 -12.5 68.333 -35.5 91s-53.167 34 -90.5 34z" />
    <glyph glyph-name="Racute" unicode="&#x154;" horiz-adv-x="563" 
d="M75 700h202.001c71.333 0 128.666 -20 171.999 -60c43.333 -39.333 65 -91.333 65 -156c0 -44.667 -11.167 -83.667 -33.5 -117s-53.5 -58 -93.5 -74l157 -293h-128l-146 274h-83v-274h-112v700zM277.001 595l-90 0.000976562v-221h90c38 0 68 9.5 90 28.5
s33 46.167 33 81.5s-11 62.666 -33 81.999s-52 29 -90 29zM304.001 847.001h153l-136 -114h-112z" />
    <glyph glyph-name="racute" unicode="&#x155;" horiz-adv-x="353" 
d="M328 511v-107c-42 0 -75.667 -11.333 -101 -34c-28 -23.333 -42.667 -59 -44 -107v-263h-106v506h93l9 -86c10 27.333 27.667 49.333 53 66s57.333 25 96 25zM251 732h134l-148 -158h-95z" />
    <glyph glyph-name="Rcommaaccent" unicode="&#x156;" horiz-adv-x="563" 
d="M75 700h202.001c71.333 0 128.666 -20 171.999 -60c43.333 -39.333 65 -91.333 65 -156c0 -44.667 -11.167 -83.667 -33.5 -117s-53.5 -58 -93.5 -74l157 -293h-128l-146 274h-83v-274h-112v700zM277.001 595l-90 0.000976562v-221h90c38 0 68 9.5 90 28.5
s33 46.167 33 81.5s-11 62.666 -33 81.999s-52 29 -90 29zM292.001 -34.999c20 0 36.333 -6.83301 49 -20.5s19 -31.5 19 -53.5c0 -28 -7.16699 -57.5 -21.5 -88.5s-32.833 -57.833 -55.5 -80.5l-30 15c17.333 31.333 27.333 63 30 95c-17.333 2 -31.5 9 -42.5 21
s-16.5 26.667 -16.5 44c0 19.333 6.66699 35.5 20 48.5s29.333 19.5 48 19.5z" />
    <glyph glyph-name="rcommaaccent" unicode="&#x157;" horiz-adv-x="353" 
d="M328 511v-107c-42 0 -75.667 -11.333 -101 -34c-28 -23.333 -42.667 -59 -44 -107v-263h-106v506h93l9 -86c10 27.333 27.667 49.333 53 66s57.333 25 96 25zM128 -35c20 0 36.333 -6.83301 49 -20.5s19 -31.5 19 -53.5c0 -28 -7.16699 -57.5 -21.5 -88.5
s-32.833 -57.833 -55.5 -80.5l-30 15c17.333 31.333 27.333 63 30 95c-17.333 2 -31.5 9 -42.5 21s-16.5 26.667 -16.5 44c0 19.333 6.66699 35.5 20 48.5s29.333 19.5 48 19.5z" />
    <glyph glyph-name="Rcaron" unicode="&#x158;" horiz-adv-x="563" 
d="M75 700h202.001c71.333 0 128.666 -20 171.999 -60c43.333 -39.333 65 -91.333 65 -156c0 -44.667 -11.167 -83.667 -33.5 -117s-53.5 -58 -93.5 -74l157 -293h-128l-146 274h-83v-274h-112v700zM277.001 595l-90 0.000976562v-221h90c38 0 68 9.5 90 28.5
s33 46.167 33 81.5s-11 62.666 -33 81.999s-52 29 -90 29zM329.001 848.001h123l-148 -119h-64l-148 119h122l57 -53z" />
    <glyph glyph-name="rcaron" unicode="&#x159;" horiz-adv-x="353" 
d="M328 511v-107c-42 0 -75.667 -11.333 -101 -34c-28 -23.333 -42.667 -59 -44 -107v-263h-106v506h93l9 -86c10 27.333 27.667 49.333 53 66s57.333 25 96 25zM260 721h112l-137 -158h-74l-138 158h112l63 -86z" />
    <glyph glyph-name="Sacute" unicode="&#x15a;" horiz-adv-x="538" 
d="M268 713c64.667 0 115.497 -17.4971 152.497 -52.4971s56.833 -85.167 59.5 -150.5h-114c-0.666992 32 -10.167 57.167 -28.5 75.5s-42.5 27.5 -72.5 27.5c-29.333 0 -52.5 -8.16699 -69.5 -24.5s-25.5 -38.833 -25.5 -67.5s9.33301 -50.334 28 -65.001
s53.334 -31.667 104.001 -51c72 -24.667 123.333 -53.334 154 -86.001c30.667 -30.667 46 -72.334 46 -125.001c0 -64 -21 -114.667 -63 -152c-41.333 -36.667 -95.333 -55 -162 -55c-74.667 0 -132.667 19.833 -174 59.5s-62.666 94.167 -63.999 163.5h113
c1.33301 -40 12.833 -70.667 34.5 -92s52.167 -32 91.5 -32c34.667 0 61.834 9 81.501 27s29.5 42.333 29.5 73c0 26 -10.167 47.667 -30.5 65s-55.833 34.333 -106.5 51c-66.667 22.667 -116 49.667 -148 81c-31.333 31.333 -47 74.333 -47 129c0 58.667 19 106.667 57 144
c38 38 89.333 57 154 57zM294.997 857.003h153l-136 -114h-112z" />
    <glyph glyph-name="sacute" unicode="&#x15b;" horiz-adv-x="450" 
d="M224 517c50 0 91.3369 -14.666 124.004 -43.999c32.667 -28.667 49.667 -67.334 51 -116.001h-106c-0.666992 46 -24.334 69 -71.001 69c-21.333 0 -37.833 -5.33301 -49.5 -16s-17.5 -25 -17.5 -43s6.33301 -31.667 19 -41s37 -18 73 -26
c59.333 -12 101.666 -29.833 126.999 -53.5s38 -56.5 38 -98.5c0 -49.333 -17 -88.166 -51 -116.499s-78.667 -42.5 -134 -42.5c-58.667 0 -104.834 14.667 -138.501 44s-51.167 69.333 -52.5 120h107c0.666992 -23.333 8.5 -41.5 23.5 -54.5s35.833 -19.5 62.5 -19.5
c24 0 42.667 5.33301 56 16s20 25 20 43c0 20 -7 35.167 -21 45.5s-40 19.5 -78 27.5c-54.667 11.333 -94.667 28.666 -120 51.999s-38 55 -38 95c0 44 15.333 81.333 46 112c31.333 31.333 74.666 47 129.999 47zM277.004 732.001h134l-148 -158h-95z" />
    <glyph glyph-name="Scircumflex" unicode="&#x15c;" horiz-adv-x="538" 
d="M268 713c64.667 0 115.497 -17.4971 152.497 -52.4971s56.833 -85.167 59.5 -150.5h-114c-0.666992 32 -10.167 57.167 -28.5 75.5s-42.5 27.5 -72.5 27.5c-29.333 0 -52.5 -8.16699 -69.5 -24.5s-25.5 -38.833 -25.5 -67.5s9.33301 -50.334 28 -65.001
s53.334 -31.667 104.001 -51c72 -24.667 123.333 -53.334 154 -86.001c30.667 -30.667 46 -72.334 46 -125.001c0 -64 -21 -114.667 -63 -152c-41.333 -36.667 -95.333 -55 -162 -55c-74.667 0 -132.667 19.833 -174 59.5s-62.666 94.167 -63.999 163.5h113
c1.33301 -40 12.833 -70.667 34.5 -92s52.167 -32 91.5 -32c34.667 0 61.834 9 81.501 27s29.5 42.333 29.5 73c0 26 -10.167 47.667 -30.5 65s-55.833 34.333 -106.5 51c-66.667 22.667 -116 49.667 -148 81c-31.333 31.333 -47 74.333 -47 129c0 58.667 19 106.667 57 144
c38 38 89.333 57 154 57zM236.997 861.003h64l148 -119h-123l-58 53l-57 -53h-122z" />
    <glyph glyph-name="scircumflex" unicode="&#x15d;" horiz-adv-x="450" 
d="M224 517c50 0 91.3369 -14.666 124.004 -43.999c32.667 -28.667 49.667 -67.334 51 -116.001h-106c-0.666992 46 -24.334 69 -71.001 69c-21.333 0 -37.833 -5.33301 -49.5 -16s-17.5 -25 -17.5 -43s6.33301 -31.667 19 -41s37 -18 73 -26
c59.333 -12 101.666 -29.833 126.999 -53.5s38 -56.5 38 -98.5c0 -49.333 -17 -88.166 -51 -116.499s-78.667 -42.5 -134 -42.5c-58.667 0 -104.834 14.667 -138.501 44s-51.167 69.333 -52.5 120h107c0.666992 -23.333 8.5 -41.5 23.5 -54.5s35.833 -19.5 62.5 -19.5
c24 0 42.667 5.33301 56 16s20 25 20 43c0 20 -7 35.167 -21 45.5s-40 19.5 -78 27.5c-54.667 11.333 -94.667 28.666 -120 51.999s-38 55 -38 95c0 44 15.333 81.333 46 112c31.333 31.333 74.666 47 129.999 47zM187.004 732.001h74l137 -158h-112l-62 86l-63 -86h-112z
" />
    <glyph glyph-name="Scedilla" unicode="&#x15e;" horiz-adv-x="538" 
d="M268 713c64.667 0 115.501 -17.4941 152.501 -52.4941s56.833 -85.167 59.5 -150.5h-114c-0.666992 32 -10.167 57.167 -28.5 75.5s-42.5 27.5 -72.5 27.5c-29.333 0 -52.5 -8.16699 -69.5 -24.5s-25.5 -38.833 -25.5 -67.5s9.33301 -50.334 28 -65.001
s53.334 -31.667 104.001 -51c72 -24.667 123.333 -53.334 154 -86.001c30.667 -30.667 46 -72.334 46 -125.001c0 -59.333 -18.333 -107.333 -55 -144s-85.334 -57.334 -146.001 -62.001l-10 -43c26.667 0 48.167 -7.5 64.5 -22.5s24.5 -35.167 24.5 -60.5
c0 -28.667 -9.83301 -51.167 -29.5 -67.5s-45.5 -24.5 -77.5 -24.5c-38.667 0 -69.334 11.333 -92.001 34l35 50c14 -16.667 33 -25 57 -25c26.667 0 40 10.667 40 32s-13 32 -39 32c-10.667 0 -21 -1.33301 -31 -4l-20 7l22 93
c-64.667 5.33301 -114.834 27.666 -150.501 66.999s-54.167 90.666 -55.5 153.999h113c1.33301 -40 12.833 -70.667 34.5 -92s52.167 -32 91.5 -32c34.667 0 61.834 9 81.501 27s29.5 42.333 29.5 73c0 26 -10.167 47.667 -30.5 65s-55.833 34.333 -106.5 51
c-66.667 22.667 -116 49.667 -148 81c-31.333 31.333 -47 74.333 -47 129c0 58.667 19 106.667 57 144c38 38 89.333 57 154 57z" />
    <glyph glyph-name="scedilla" unicode="&#x15f;" horiz-adv-x="450" 
d="M224 517c50 0 91.3369 -14.665 124.004 -43.998c32.667 -28.667 49.667 -67.334 51 -116.001h-106c-0.666992 46 -24.334 69 -71.001 69c-21.333 0 -37.833 -5.33301 -49.5 -16s-17.5 -25 -17.5 -43s6.33301 -31.667 19 -41s37 -18 73 -26
c59.333 -12 101.666 -29.833 126.999 -53.5s38 -56.5 38 -98.5c0 -45.333 -14.5 -82 -43.5 -110s-67.833 -44 -116.5 -48l-10 -45c26.667 0 48.167 -7.5 64.5 -22.5s24.5 -35.167 24.5 -60.5c0 -28.667 -9.83301 -51.167 -29.5 -67.5s-45.5 -24.5 -77.5 -24.5
c-38.667 0 -69.334 11.333 -92.001 34l35 50c14 -16.667 33 -25 57 -25c26.667 0 40 10.667 40 32s-13 32 -39 32c-10.667 0 -21 -1.33301 -31 -4l-20 7l23 95c-50 4.66699 -89 21.167 -117 49.5s-42.667 65.833 -44 112.5h107c0.666992 -23.333 8.5 -41.5 23.5 -54.5
s35.833 -19.5 62.5 -19.5c24 0 42.667 5.33301 56 16s20 25 20 43c0 20 -7 35.167 -21 45.5s-40 19.5 -78 27.5c-54.667 11.333 -94.667 28.666 -120 51.999s-38 55 -38 95c0 44 15.333 81.333 46 112c31.333 31.333 74.666 47 129.999 47z" />
    <glyph glyph-name="Scaron" unicode="&#x160;" horiz-adv-x="538" 
d="M268 713c64.667 0 115.497 -17.4971 152.497 -52.4971s56.833 -85.167 59.5 -150.5h-114c-0.666992 32 -10.167 57.167 -28.5 75.5s-42.5 27.5 -72.5 27.5c-29.333 0 -52.5 -8.16699 -69.5 -24.5s-25.5 -38.833 -25.5 -67.5s9.33301 -50.334 28 -65.001
s53.334 -31.667 104.001 -51c72 -24.667 123.333 -53.334 154 -86.001c30.667 -30.667 46 -72.334 46 -125.001c0 -64 -21 -114.667 -63 -152c-41.333 -36.667 -95.333 -55 -162 -55c-74.667 0 -132.667 19.833 -174 59.5s-62.666 94.167 -63.999 163.5h113
c1.33301 -40 12.833 -70.667 34.5 -92s52.167 -32 91.5 -32c34.667 0 61.834 9 81.501 27s29.5 42.333 29.5 73c0 26 -10.167 47.667 -30.5 65s-55.833 34.333 -106.5 51c-66.667 22.667 -116 49.667 -148 81c-31.333 31.333 -47 74.333 -47 129c0 58.667 19 106.667 57 144
c38 38 89.333 57 154 57zM325.997 858.003h123l-148 -119h-64l-148 119h122l57 -53z" />
    <glyph glyph-name="scaron" unicode="&#x161;" horiz-adv-x="450" 
d="M224 517c50 0 91.3369 -14.666 124.004 -43.999c32.667 -28.667 49.667 -67.334 51 -116.001h-106c-0.666992 46 -24.334 69 -71.001 69c-21.333 0 -37.833 -5.33301 -49.5 -16s-17.5 -25 -17.5 -43s6.33301 -31.667 19 -41s37 -18 73 -26
c59.333 -12 101.666 -29.833 126.999 -53.5s38 -56.5 38 -98.5c0 -49.333 -17 -88.166 -51 -116.499s-78.667 -42.5 -134 -42.5c-58.667 0 -104.834 14.667 -138.501 44s-51.167 69.333 -52.5 120h107c0.666992 -23.333 8.5 -41.5 23.5 -54.5s35.833 -19.5 62.5 -19.5
c24 0 42.667 5.33301 56 16s20 25 20 43c0 20 -7 35.167 -21 45.5s-40 19.5 -78 27.5c-54.667 11.333 -94.667 28.666 -120 51.999s-38 55 -38 95c0 44 15.333 81.333 46 112c31.333 31.333 74.666 47 129.999 47zM286.004 721.001h112l-137 -158h-74l-138 158h112l63 -86z
" />
    <glyph glyph-name="Tcommaaccent" unicode="&#x162;" horiz-adv-x="611" 
d="M11 700h589v-105h-239v-595h-112v595h-238v105zM304 -35c20 0 36.333 -6.83301 49 -20.5s19 -31.5 19 -53.5c0 -28 -7.16699 -57.5 -21.5 -88.5s-32.833 -57.833 -55.5 -80.5l-30 15c17.333 31.333 27.333 63 30 95c-17.333 2 -31.5 9 -42.5 21s-16.5 26.667 -16.5 44
c0 19.333 6.66699 35.5 20 48.5s29.333 19.5 48 19.5z" />
    <glyph glyph-name="tcommaaccent" unicode="&#x163;" horiz-adv-x="363" 
d="M102 630l106.999 0.000976562l-1 -124h123v-98h-124l-2 -240c0 -28.667 5 -48.834 15 -60.501s28 -17.5 54 -17.5c20.667 0 39.667 2.66699 57 8v-94c-20 -7.33301 -46 -11 -78 -11c-52.667 0 -91.667 12.333 -117 37s-37.666 63 -36.999 115l2 263h-89v98h89z
M272.999 -115.999c0 -28 -7.16699 -57.5 -21.5 -88.5s-32.833 -57.833 -55.5 -80.5l-30 15c17.333 31.333 27.333 63 30 95c-17.333 2 -31.5 9 -42.5 21s-16.5 26.667 -16.5 44c0 18.667 6.5 34.667 19.5 48s29.167 20 48.5 20c20 0 36.333 -6.83301 49 -20.5
s19 -31.5 19 -53.5z" />
    <glyph glyph-name="Tcaron" unicode="&#x164;" horiz-adv-x="611" 
d="M11 700h589v-105h-239v-595h-112v595h-238v105zM361 848h123l-148 -119h-64l-148 119h122l57 -53z" />
    <glyph glyph-name="tcaron" unicode="&#x165;" horiz-adv-x="505" 
d="M102 630l106.999 0.000976562l-1 -124h123v-98h-124l-2 -240c0 -28.667 5 -48.834 15 -60.501s28 -17.5 54 -17.5c20.667 0 39.667 2.66699 57 8v-94c-20 -7.33301 -46 -11 -78 -11c-52.667 0 -91.667 12.333 -117 37s-37.666 63 -36.999 115l2 263h-89v98h89z
M425.999 730.001c20 0 36.499 -6.83301 49.499 -20.5s19.5 -31.5 19.5 -53.5c0 -64 -26 -125.333 -78 -184l-32 12c16.667 34 27.667 71.667 33 113c-17.333 2 -31.666 9 -42.999 21s-17 26.667 -17 44c0 18.667 6.66699 34.667 20 48s29.333 20 48 20z" />
    <glyph glyph-name="Tbar" unicode="&#x166;" horiz-adv-x="611" 
d="M11 700h589v-105h-239v-212h150v-80h-150v-303h-112v303h-149v80h149v212h-238v105z" />
    <glyph glyph-name="tbar" unicode="&#x167;" horiz-adv-x="363" 
d="M102 630l106.999 0.000976562l-1 -124h123v-86h-124l-1 -102h125v-85h-126v-65c0 -28.667 5 -48.834 15 -60.501s28 -17.5 54 -17.5c20.667 0 39.667 2.66699 57 8v-94c-20 -7.33301 -46 -11 -78 -11c-52.667 0 -91.667 12.333 -117 37s-37.666 63 -36.999 115v88h-87v85
h88l1 102h-89v86h89z" />
    <glyph glyph-name="Utilde" unicode="&#x168;" horiz-adv-x="690" 
d="M282 865c21.333 0 40.166 -5.5 56.499 -16.5s30.166 -22 41.499 -33s21.666 -16.5 30.999 -16.5c24.667 0 37 19 37 57h66c0 -40.667 -9.16699 -72.667 -27.5 -96s-44.833 -35 -79.5 -35c-21.333 0 -40.166 5.5 -56.499 16.5s-30.166 22 -41.499 33
s-21.666 16.5 -30.999 16.5c-24.667 0 -37 -19 -37 -57h-66c0 40.667 9.16699 72.667 27.5 96s44.833 35 79.5 35zM511 700h113.002v-421c0 -93.333 -24.333 -165.333 -73 -216s-117.334 -76 -206.001 -76s-157.334 25.333 -206.001 76s-73 122.667 -73 216v421h112v-421
c0 -124.667 55.667 -187 167 -187c110.667 0 166 62.333 166 187v421z" />
    <glyph glyph-name="utilde" unicode="&#x169;" horiz-adv-x="538" 
d="M205 713c18.667 0 34.834 -3.66797 48.501 -11.001s23.667 -15.333 30 -24s13.833 -16.667 22.5 -24s18 -11 28 -11c24.667 0 37 20.333 37 61h66c0 -41.333 -9.16699 -74.166 -27.5 -98.499s-44.833 -36.5 -79.5 -36.5c-18.667 0 -34.834 3.66699 -48.501 11
s-23.667 15.5 -30 24.5s-13.833 17.167 -22.5 24.5s-18 11 -28 11c-24.667 0 -37 -20.667 -37 -62h-66c0 42 9.16699 75 27.5 99s44.833 36 79.5 36zM359 505.999l106 0.000976562v-506h-93l-7 68c-26 -52.667 -71.667 -79 -137 -79c-52.667 0 -92.834 16.667 -120.501 50
s-41.5 79.666 -41.5 138.999v328h106v-307c0 -71.333 28.333 -107 85 -107c30.667 0 55.334 12.167 74.001 36.5s28 57.833 28 100.5v277z" />
    <glyph glyph-name="Umacron" unicode="&#x16a;" horiz-adv-x="690" 
d="M511 700h113.002v-421c0 -93.333 -24.333 -165.333 -73 -216s-117.334 -76 -206.001 -76s-157.334 25.333 -206.001 76s-73 122.667 -73 216v421h112v-421c0 -124.667 55.667 -187 167 -187c110.667 0 166 62.333 166 187v421zM209.002 822h270v-83h-270v83z" />
    <glyph glyph-name="umacron" unicode="&#x16b;" horiz-adv-x="538" 
d="M359 506l106 0.000976562v-506h-93l-7 68c-26 -52.667 -71.667 -79 -137 -79c-52.667 0 -92.834 16.667 -120.501 50s-41.5 79.666 -41.5 138.999v328h106v-307c0 -71.333 28.333 -107 85 -107c30.667 0 55.334 12.167 74.001 36.5s28 57.833 28 100.5v277zM132 675.001
h270v-83h-270v83z" />
    <glyph glyph-name="Ubreve" unicode="&#x16c;" horiz-adv-x="690" 
d="M408 859h88c0 -38.667 -14.167 -70 -42.5 -94s-64.833 -36 -109.5 -36s-81 12 -109 36s-42 55.333 -42 94h87c0 -17.333 5.66699 -31.333 17 -42s27 -16 47 -16s35.667 5.33301 47 16s17 24.667 17 42zM511 700h113.002v-421c0 -93.333 -24.333 -165.333 -73 -216
s-117.334 -76 -206.001 -76s-157.334 25.333 -206.001 76s-73 122.667 -73 216v421h112v-421c0 -124.667 55.667 -187 167 -187c110.667 0 166 62.333 166 187v421z" />
    <glyph glyph-name="ubreve" unicode="&#x16d;" horiz-adv-x="538" 
d="M359 506l106 0.000976562v-506h-93l-7 68c-26 -52.667 -71.667 -79 -137 -79c-52.667 0 -92.834 16.667 -120.501 50s-41.5 79.666 -41.5 138.999v328h106v-307c0 -71.333 28.333 -107 85 -107c30.667 0 55.334 12.167 74.001 36.5s28 57.833 28 100.5v277zM330 711.001
h88c0 -42.667 -14.167 -77.5 -42.5 -104.5s-64.833 -40.5 -109.5 -40.5s-81 13.5 -109 40.5s-42 61.833 -42 104.5h87c0 -22 5.83301 -39.833 17.5 -53.5s27.167 -20.5 46.5 -20.5s34.833 6.83301 46.5 20.5s17.5 31.5 17.5 53.5z" />
    <glyph glyph-name="Uring" unicode="&#x16e;" horiz-adv-x="690" 
d="M343 920c29.333 0 53.333 -9.33301 72 -28s28 -42 28 -70s-9.33301 -51.167 -28 -69.5s-42.667 -27.5 -72 -27.5c-28.667 0 -52.5 9.33301 -71.5 28s-28.5 41.667 -28.5 69c0 28 9.5 51.333 28.5 70s42.833 28 71.5 28zM343 861c-10.667 0 -19.5 -3.66699 -26.5 -11
s-10.5 -16.666 -10.5 -27.999c0 -10 3.66699 -18.833 11 -26.5s16 -11.5 26 -11.5c11.333 0 20.666 3.83301 27.999 11.5s11 16.5 11 26.5c0 11.333 -3.66699 20.666 -11 27.999s-16.666 11 -27.999 11zM511 700h113.002v-421c0 -93.333 -24.333 -165.333 -73 -216
s-117.334 -76 -206.001 -76s-157.334 25.333 -206.001 76s-73 122.667 -73 216v421h112v-421c0 -124.667 55.667 -187 167 -187c110.667 0 166 62.333 166 187v421z" />
    <glyph glyph-name="uring" unicode="&#x16f;" horiz-adv-x="538" 
d="M266 766c32 0 58.167 -10 78.5 -30s30.5 -45.333 30.5 -76c0 -30 -10.167 -55 -30.5 -75s-46.5 -30 -78.5 -30c-31.333 0 -57.166 10 -77.499 30s-30.5 45 -30.5 75c0 30.667 10.167 56 30.5 76s46.166 30 77.499 30zM266 708c-13.333 0 -24.5 -4.5 -33.5 -13.5
s-13.5 -20.167 -13.5 -33.5s4.5 -24.666 13.5 -33.999s20.167 -14 33.5 -14c14 0 25.5 4.66699 34.5 14s13.5 20.666 13.5 33.999s-4.5 24.5 -13.5 33.5s-20.5 13.5 -34.5 13.5zM359 506l106 0.000976562v-506h-93l-7 68c-26 -52.667 -71.667 -79 -137 -79
c-52.667 0 -92.834 16.667 -120.501 50s-41.5 79.666 -41.5 138.999v328h106v-307c0 -71.333 28.333 -107 85 -107c30.667 0 55.334 12.167 74.001 36.5s28 57.833 28 100.5v277z" />
    <glyph glyph-name="Uhungarumlaut" unicode="&#x170;" horiz-adv-x="690" 
d="M511 700h113.002v-421c0 -93.333 -24.333 -165.333 -73 -216s-117.334 -76 -206.001 -76s-157.334 25.333 -206.001 76s-73 122.667 -73 216v421h112v-421c0 -124.667 55.667 -187 167 -187c110.667 0 166 62.333 166 187v421zM280.002 850h113l-97 -121h-92z
M453.002 850h113l-97 -121h-92z" />
    <glyph glyph-name="uhungarumlaut" unicode="&#x171;" horiz-adv-x="538" 
d="M359 506l106 0.000976562v-506h-93l-7 68c-26 -52.667 -71.667 -79 -137 -79c-52.667 0 -92.834 16.667 -120.501 50s-41.5 79.666 -41.5 138.999v328h106v-307c0 -71.333 28.333 -107 85 -107c30.667 0 55.334 12.167 74.001 36.5s28 57.833 28 100.5v277zM205 732.001
h114l-105 -158h-91zM386 732.001h113l-105 -158h-90z" />
    <glyph glyph-name="Uogonek" unicode="&#x172;" horiz-adv-x="690" 
d="M511 700l113.001 0.000976562v-421c0 -74 -15.833 -135 -47.5 -183s-76.834 -80 -135.501 -96c-30 -18 -45 -43.333 -45 -76c0 -17.333 4.33301 -30.333 13 -39s21.667 -13.334 39 -14.001s31 2 41 8l15 -58c-14 -8 -34 -12 -60 -12c-35.333 0 -64 10.167 -86 30.5
s-33 47.5 -33 81.5c0 25.333 6.33301 47.333 19 66c-88.667 0 -157.167 25.333 -205.5 76s-72.5 122.667 -72.5 216v421h112v-421c0 -124.667 55.667 -187 167 -187c110.667 0 166 62.333 166 187v421z" />
    <glyph glyph-name="uogonek" unicode="&#x173;" horiz-adv-x="538" 
d="M359 506l106 0.00292969v-506h-2c-44.667 -18.667 -67 -47.334 -67 -86.001c0 -17.333 4.33301 -30.333 13 -39s21.667 -13.334 39 -14.001s31 2 41 8l15 -58c-14 -8 -34 -12 -60 -12c-35.333 0 -64 10.167 -86 30.5s-33 47.5 -33 81.5c0 38.667 15.333 70 46 94l-6 63
c-26 -52.667 -71.667 -79 -137 -79c-52.667 0 -92.834 16.667 -120.501 50s-41.5 79.666 -41.5 138.999v328h106v-307c0 -71.333 28.333 -107 85 -107c30.667 0 55.334 12.167 74.001 36.5s28 57.833 28 100.5v277z" />
    <glyph glyph-name="Wcircumflex" unicode="&#x174;" horiz-adv-x="994" 
d="M859 700h118l-218 -700h-115l-136 448l-11 47l-10 -47l-136 -448h-116l-218 700h119l148 -480l11 -51l10 51l142 480h100l143 -480l9 -51l11 51zM465 851h64l148 -119h-123l-58 53l-57 -53h-122z" />
    <glyph glyph-name="wcircumflex" unicode="&#x175;" horiz-adv-x="774" 
d="M647 506h114l-157 -506h-109l-109 332l-111 -332h-105l-157 506h114l92 -331l10 -50l11 50l101 331h92l101 -331l11 -50l10 50zM349 732h74l137 -158h-112l-62 86l-63 -86h-112z" />
    <glyph glyph-name="Ycircumflex" unicode="&#x176;" horiz-adv-x="680" 
d="M537 700h131l-271 -437v-263h-114v263l-271 437h131l171 -271l25 -47l26 47zM308 851h64l148 -119h-123l-58 53l-57 -53h-122z" />
    <glyph glyph-name="ycircumflex" unicode="&#x177;" horiz-adv-x="512" 
d="M382 506h114l-268 -721h-111l81 222l-185 499h114l117 -339l10 -41l10 41zM216 732h74l137 -158h-112l-62 86l-63 -86h-112z" />
    <glyph glyph-name="Ydieresis" unicode="&#x178;" horiz-adv-x="680" 
d="M537 700h131l-271 -437v-263h-114v263l-271 437h131l171 -271l25 -47l26 47zM241 854c17.333 0 32 -6 44 -18s18 -26.667 18 -44c0 -16.667 -6 -31 -18 -43s-26.667 -18 -44 -18c-18 0 -33 5.83301 -45 17.5s-18 26.167 -18 43.5s6 32 18 44s27 18 45 18zM499 792
c0 -16.667 -6.16699 -31 -18.5 -43s-27.166 -18 -44.499 -18s-32 5.83301 -44 17.5s-18 26.167 -18 43.5s6 32 18 44s26.667 18 44 18s32.166 -6 44.499 -18s18.5 -26.667 18.5 -44z" />
    <glyph glyph-name="Zacute" unicode="&#x179;" horiz-adv-x="595" 
d="M42 700h503v-91l-361 -504h374v-105h-519v91l364 504h-361v105zM324 847h153l-136 -114h-112z" />
    <glyph glyph-name="zacute" unicode="&#x17a;" horiz-adv-x="468" 
d="M37 506h390v-81l-250 -331h264v-94h-406v80l250 332h-248v94zM290 732h134l-148 -158h-95z" />
    <glyph glyph-name="Zdotaccent" unicode="&#x17b;" horiz-adv-x="595" 
d="M42 700h503v-91l-361 -504h374v-105h-519v91l364 504h-361v105zM298 857c17.333 0 32.333 -6 45 -18s19 -26.667 19 -44c0 -18 -6.33301 -33.167 -19 -45.5s-27.667 -18.5 -45 -18.5c-18.667 0 -34.167 6.16699 -46.5 18.5s-18.5 27.5 -18.5 45.5
c0 17.333 6.16699 32 18.5 44s27.833 18 46.5 18z" />
    <glyph glyph-name="zdotaccent" unicode="&#x17c;" horiz-adv-x="468" 
d="M37 506h390v-81l-250 -331h264v-94h-406v80l250 332h-248v94zM188 693c13.333 13.333 29.666 20 48.999 20s35.666 -6.66699 48.999 -20c13.333 -12.667 20 -28.334 20 -47.001s-6.66699 -34.667 -20 -48c-13.333 -12.667 -29.666 -19 -48.999 -19
s-35.666 6.33301 -48.999 19c-12.667 13.333 -19 29.333 -19 48s6.33301 34.334 19 47.001z" />
    <glyph glyph-name="Zcaron" unicode="&#x17d;" horiz-adv-x="595" 
d="M42 700h503v-91l-361 -504h374v-105h-519v91l364 504h-361v105zM355 848h123l-148 -119h-64l-148 119h122l57 -53z" />
    <glyph glyph-name="zcaron" unicode="&#x17e;" horiz-adv-x="468" 
d="M37 506h390v-81l-250 -331h264v-94h-406v80l250 332h-248v94zM299 721h112l-137 -158h-74l-138 158h112l63 -86z" />
    <glyph glyph-name="florin" unicode="&#x192;" horiz-adv-x="352" 
d="M318 740c26 0 48.999 -3.66602 68.999 -10.999l-11 -95c-20 7.33301 -38.333 11 -55 11c-46 0 -72 -25.333 -78 -76l-6 -63h126l-10 -97h-126l-51 -473c-5.33301 -52 -23.666 -92 -54.999 -120s-73 -42 -125 -42c-25.333 0 -48 3.66699 -68 11l10 95
c20 -8 38.333 -12 55 -12c47.333 0 73.333 25.333 78 76l49 465h-89l9 97h90l8 72c5.33301 51.333 23.833 91.166 55.5 119.499s73.167 42.5 124.5 42.5z" />
    <glyph glyph-name="Aringacute" unicode="&#x1fa;" horiz-adv-x="706" 
d="M293 700h120l277 -700h-123l-67 171h-295l-66 -171h-123zM369 986h153l-106 -89c23.333 -18 35 -43 35 -75c0 -28 -9.33301 -51.167 -28 -69.5s-42.667 -27.5 -72 -27.5c-28.667 0 -52.5 9.33301 -71.5 28s-28.5 41.667 -28.5 69c0 42.667 18.333 72 55 88zM365 522
l-13 38l-13 -38l-97 -250h222zM351 861c-10.667 0 -19.5 -3.66699 -26.5 -11s-10.5 -16.666 -10.5 -27.999c0 -10 3.66699 -18.833 11 -26.5s16 -11.5 26 -11.5c11.333 0 20.666 3.83301 27.999 11.5s11 16.5 11 26.5c0 11.333 -3.66699 20.666 -11 27.999
s-16.666 11 -27.999 11z" />
    <glyph glyph-name="aringacute" unicode="&#x1fb;" horiz-adv-x="504" 
d="M252 517c60 0 106.667 -15.834 140 -47.501s50 -77.167 50 -136.5v-333h-94l-5 66c-30 -51.333 -79.667 -77 -149 -77c-46 0 -82.667 13 -110 39s-41 61 -41 105c0 80.667 49.333 130.334 148 149.001l144 26v23c0 60.667 -27.667 91 -83 91
c-26.667 0 -48.5 -7.33301 -65.5 -22s-25.5 -34 -25.5 -58h-103c2 50 20.667 91.667 56 125s81.333 50 138 50zM272 846.999l152.999 -0.000976562l-113 -95c35.333 -18 53 -48.667 53 -92c0 -30 -10.167 -55 -30.5 -75s-46.5 -30 -78.5 -30
c-31.333 0 -57.166 10 -77.499 30s-30.5 45 -30.5 75c0 32.667 11.333 59.334 34 80.001zM334.999 209.998l-0.000976562 17.998l-121 -26c-42.667 -8.66699 -64 -30 -64 -64c0 -17.333 6 -31.166 18 -41.499s29 -15.5 51 -15.5c40.667 0 71.334 16.333 92.001 49
c16 22.667 24 49.334 24 80.001zM255.998 707.996c-13.333 0 -24.5 -4.5 -33.5 -13.5s-13.5 -20.167 -13.5 -33.5s4.5 -24.666 13.5 -33.999s20.167 -14 33.5 -14c14 0 25.5 4.66699 34.5 14s13.5 20.666 13.5 33.999s-4.5 24.5 -13.5 33.5s-20.5 13.5 -34.5 13.5z" />
    <glyph glyph-name="AEacute" unicode="&#x1fc;" horiz-adv-x="943" 
d="M463 700h434v-105h-281v-183h245v-104h-245v-203h281v-105h-394v173h-246l-115 -173h-133zM503 271v291l-21 -39l-164 -252h185zM609 847h153l-136 -114h-112z" />
    <glyph glyph-name="aeacute" unicode="&#x1fd;" horiz-adv-x="851" 
d="M576 517c70.667 0 127 -22.667 169 -68s63 -109.333 63 -192v-41h-369c2.66699 -40.667 16.834 -73 42.501 -97s58.167 -36 97.5 -36c62 0 102.333 24 121 72h104c-16 -53.333 -43.5 -94.333 -82.5 -123s-87.5 -43 -145.5 -43c-89.333 0 -156.333 33.333 -201 100
c-42.667 -66.667 -102.334 -100 -179.001 -100c-48 0 -85.5 12.667 -112.5 38s-40.5 60 -40.5 104c0 82 48.333 132 145 150l142 27v20c0 62.667 -27.667 94 -83 94c-26 0 -46.833 -7 -62.5 -21s-23.5 -33.667 -23.5 -59h-103c2 50.667 20 92.667 54 126
c33.333 32.667 78.333 49 135 49c72 0 124 -22.667 156 -68c45.333 45.333 103 68 173 68zM575 424c-37.333 0 -68.333 -11.5 -93 -34.5s-38.667 -53.167 -42 -90.5h261c-0.666992 38 -12.5 68.333 -35.5 91s-53.167 34 -90.5 34zM330 201l-0.000976562 27.001l-112 -25
c-24.667 -4.66699 -42.167 -11.834 -52.5 -21.501s-15.5 -24.167 -15.5 -43.5c0 -38 22 -57 66 -57c38.667 0 68.334 15 89.001 45c16.667 22.667 25 47.667 25 75zM472.999 732.001h134l-148 -158h-95z" />
    <glyph glyph-name="Oslashacute" unicode="&#x1fe;" horiz-adv-x="797" 
d="M399 713c48.667 0 95 -8.66504 139 -25.998l48 84l83 -42l-50 -86c44 -32.667 78.167 -74.334 102.5 -125.001s36.5 -106.334 36.5 -167.001c0 -104.667 -33.667 -191.667 -101 -261c-66.667 -68.667 -152.667 -103 -258 -103c-48 0 -95 8.66699 -141 26l-49 -86l-83 41
l51 89c-44 32.667 -78.167 74.5 -102.5 125.5s-36.5 107.167 -36.5 168.5c0 104 33.667 190.333 101 259c68 68.667 154.667 103 260 103zM641 351.002c0 80.667 -26 145.333 -78 194l-251 -439c28 -9.33301 57 -14 87 -14c72 0 130.333 24.333 175 73s67 110.667 67 186z
M399 608.001c-72.667 0 -131.334 -24.334 -176.001 -73.001c-44.667 -47.333 -67 -108.666 -67 -183.999c0 -82.667 25.667 -148 77 -196l251 438c-29.333 10 -57.666 15 -84.999 15zM416 851h153l-136 -114h-112z" />
    <glyph glyph-name="oslashacute" unicode="&#x1ff;" horiz-adv-x="589" 
d="M294 517c33.333 0 66 -5.66797 98 -17.001l42 79l58 -27l-44 -82c71.333 -50 107 -122.333 107 -217c0 -77.333 -24.667 -140.666 -74 -189.999s-111.666 -74 -186.999 -74c-33.333 0 -65 5.33301 -95 16l-42 -79l-58 26l43 81c-72 50 -108 123.333 -108 220
c0 78 24.333 141.333 73 190c49.333 49.333 111.666 74 186.999 74zM295 418.999c-44.667 0 -81.001 -15.666 -109.001 -46.999c-28 -30.667 -42 -70.334 -42 -119.001c0 -52 16 -94 48 -126l152 284c-17.333 5.33301 -33.666 8 -48.999 8zM444.999 253
c0 51.333 -15.667 92.666 -47 123.999l-151 -283c13.333 -4.66699 29.333 -7 48 -7c44.667 0 80.667 15.667 108 47c28 30.667 42 70.334 42 119.001zM344.999 732h134l-148 -158h-95z" />
    <glyph glyph-name="Scommaaccent" unicode="&#x218;" horiz-adv-x="538" 
d="M268 713c64.667 0 115.497 -17.4971 152.497 -52.4971s56.833 -85.167 59.5 -150.5h-114c-0.666992 32 -10.167 57.167 -28.5 75.5s-42.5 27.5 -72.5 27.5c-29.333 0 -52.5 -8.16699 -69.5 -24.5s-25.5 -38.833 -25.5 -67.5s9.33301 -50.334 28 -65.001
s53.334 -31.667 104.001 -51c72 -24.667 123.333 -53.334 154 -86.001c30.667 -30.667 46 -72.334 46 -125.001c0 -64 -21 -114.667 -63 -152c-41.333 -36.667 -95.333 -55 -162 -55c-74.667 0 -132.667 19.833 -174 59.5s-62.666 94.167 -63.999 163.5h113
c1.33301 -40 12.833 -70.667 34.5 -92s52.167 -32 91.5 -32c34.667 0 61.834 9 81.501 27s29.5 42.333 29.5 73c0 26 -10.167 47.667 -30.5 65s-55.833 34.333 -106.5 51c-66.667 22.667 -116 49.667 -148 81c-31.333 31.333 -47 74.333 -47 129c0 58.667 19 106.667 57 144
c38 38 89.333 57 154 57zM338.997 -118.997c0 -28 -7.16699 -57.5 -21.5 -88.5s-32.833 -57.833 -55.5 -80.5l-30 15c17.333 31.333 27.333 63 30 95c-17.333 2 -31.5 9 -42.5 21s-16.5 26.667 -16.5 44c0 19.333 6.5 35.5 19.5 48.5s29.167 19.5 48.5 19.5
c20 0 36.333 -6.83301 49 -20.5s19 -31.5 19 -53.5z" />
    <glyph glyph-name="scommaaccent" unicode="&#x219;" horiz-adv-x="450" 
d="M224 517c50 0 91.3369 -14.666 124.004 -43.999c32.667 -28.667 49.667 -67.334 51 -116.001h-106c-0.666992 46 -24.334 69 -71.001 69c-21.333 0 -37.833 -5.33301 -49.5 -16s-17.5 -25 -17.5 -43s6.33301 -31.667 19 -41s37 -18 73 -26
c59.333 -12 101.666 -29.833 126.999 -53.5s38 -56.5 38 -98.5c0 -49.333 -17 -88.166 -51 -116.499s-78.667 -42.5 -134 -42.5c-58.667 0 -104.834 14.667 -138.501 44s-51.167 69.333 -52.5 120h107c0.666992 -23.333 8.5 -41.5 23.5 -54.5s35.833 -19.5 62.5 -19.5
c24 0 42.667 5.33301 56 16s20 25 20 43c0 20 -7 35.167 -21 45.5s-40 19.5 -78 27.5c-54.667 11.333 -94.667 28.666 -120 51.999s-38 55 -38 95c0 44 15.333 81.333 46 112c31.333 31.333 74.666 47 129.999 47zM226.004 -38.999c20 0 36.333 -6.83301 49 -20.5
s19 -31.5 19 -53.5c0 -28 -7.16699 -57.5 -21.5 -88.5s-32.833 -57.833 -55.5 -80.5l-30 15c17.333 31.333 27.333 63 30 95c-17.333 2 -31.5 9 -42.5 21s-16.5 26.667 -16.5 44c0 19.333 6.66699 35.5 20 48.5s29.333 19.5 48 19.5z" />
    <glyph glyph-name="circumflex" unicode="&#x2c6;" horiz-adv-x="369" 
d="M148 732h74l137 -158h-112l-62 86l-63 -86h-112z" />
    <glyph glyph-name="caron" unicode="&#x2c7;" horiz-adv-x="369" 
d="M247 721h112l-137 -158h-74l-138 158h112l63 -86z" />
    <glyph glyph-name="breve" unicode="&#x2d8;" horiz-adv-x="323" 
d="M225 711h88c0 -42.667 -14.167 -77.5 -42.5 -104.5s-64.833 -40.5 -109.5 -40.5s-81 13.5 -109 40.5s-42 61.833 -42 104.5h87c0 -22 5.83301 -39.833 17.5 -53.5s27.167 -20.5 46.5 -20.5s34.833 6.83301 46.5 20.5s17.5 31.5 17.5 53.5z" />
    <glyph glyph-name="dotaccent" unicode="&#x2d9;" horiz-adv-x="157" 
d="M29 693c13.333 13.333 29.666 20 48.999 20s35.666 -6.66699 48.999 -20c13.333 -12.667 20 -28.334 20 -47.001s-6.66699 -34.667 -20 -48c-13.333 -12.667 -29.666 -19 -48.999 -19s-35.666 6.33301 -48.999 19c-12.667 13.333 -19 29.333 -19 48
s6.33301 34.334 19 47.001z" />
    <glyph glyph-name="ring" unicode="&#x2da;" horiz-adv-x="237" 
d="M118 766c32 0 58.167 -10 78.5 -30s30.5 -45.333 30.5 -76c0 -30 -10.167 -55 -30.5 -75s-46.5 -30 -78.5 -30c-31.333 0 -57.166 10 -77.499 30s-30.5 45 -30.5 75c0 30.667 10.167 56 30.5 76s46.166 30 77.499 30zM118 708c-13.333 0 -24.5 -4.5 -33.5 -13.5
s-13.5 -20.167 -13.5 -33.5s4.5 -24.666 13.5 -33.999s20.167 -14 33.5 -14c14 0 25.5 4.66699 34.5 14s13.5 20.666 13.5 33.999s-4.5 24.5 -13.5 33.5s-20.5 13.5 -34.5 13.5z" />
    <glyph glyph-name="ogonek" unicode="&#x2db;" horiz-adv-x="193" 
d="M99 34l43 -33.998c-44.667 -18.667 -67 -47.334 -67 -86.001c0 -17.333 4.33301 -30.333 13 -39s21.667 -13.334 39 -14.001s31 2 41 8l15 -58c-14 -8 -34 -12 -60 -12c-35.333 0 -64 10.167 -86 30.5s-33 47.5 -33 81.5c0 54.667 31.667 95.667 95 123z" />
    <glyph glyph-name="tilde" unicode="&#x2dc;" horiz-adv-x="359" 
d="M117 713c18.667 0 34.834 -3.66797 48.501 -11.001s23.667 -15.333 30 -24s13.833 -16.667 22.5 -24s18 -11 28 -11c24.667 0 37 20.333 37 61h66c0 -41.333 -9.16699 -74.166 -27.5 -98.499s-44.833 -36.5 -79.5 -36.5c-18.667 0 -34.834 3.66699 -48.501 11
s-23.667 15.5 -30 24.5s-13.833 17.167 -22.5 24.5s-18 11 -28 11c-24.667 0 -37 -20.667 -37 -62h-66c0 42 9.16699 75 27.5 99s44.833 36 79.5 36z" />
    <glyph glyph-name="hungarumlaut" unicode="&#x2dd;" horiz-adv-x="396" 
d="M92 732h114l-105 -158h-91zM273 732h113l-105 -158h-90z" />
    <glyph glyph-name="uni03A9" unicode="&#x3a9;" horiz-adv-x="860" 
d="M763 391c0 -42 -7.33203 -81.667 -21.999 -119c-13.333 -36 -28 -65 -44 -87c-14.667 -20 -33.334 -41.667 -56.001 -65h181v-120h-335v106c102 79.333 153 172.666 153 279.999c0 68.667 -18.667 123.667 -56 165c-37.333 42 -87.666 63 -150.999 63
c-64.667 0 -115.334 -21 -152.001 -63c-37.333 -41.333 -56 -96.333 -56 -165c0 -107.333 51 -200.666 153 -279.999v-106h-334v120h182c-82 82 -123 172.333 -123 271c0 100 30 182 90 246c60 64.667 140 97 240 97s180 -32.333 240 -97c60 -64 90 -146 90 -246z" />
    <glyph glyph-name="pi" unicode="&#x3c0;" horiz-adv-x="730" 
d="M634 575l87.999 -50.9971c-14.667 -42.667 -35.5 -74.334 -62.5 -95.001s-64.5 -31 -112.5 -31h-11l-31 -229c-6 -46 6.66699 -69 38 -69c18.667 0 37.667 7.66699 57 23l20 -41l10 -18.5l7.5 -14c1.66699 -3 2.5 -4.83301 2.5 -5.5
c-43.333 -33.333 -90.333 -50 -141 -50c-41.333 0 -69.666 12.167 -84.999 36.5s-20 61.166 -14 110.499l34 257h-111l-32 -241c-8.66699 -62.667 -23 -115 -43 -157h-114c28.667 50.667 47.667 109.334 57 176.001l30 222h-19c-53.333 0 -96 -19 -128 -57l-52 76
c29.333 29.333 58.333 50.666 87 63.999c27.333 12.667 67 19 119 19h260c44.667 0 76.667 5.66699 96 17c20 11.333 36.667 30.666 50 57.999z" />
    <glyph glyph-name="Wgrave" unicode="&#x1e80;" horiz-adv-x="994" 
d="M859 700h118l-218 -700h-115l-136 448l-11 47l-10 -47l-136 -448h-116l-218 700h119l148 -480l11 -51l10 51l142 480h100l143 -480l9 -51l11 51zM308 847h154l94 -114h-111z" />
    <glyph glyph-name="wgrave" unicode="&#x1e81;" horiz-adv-x="774" 
d="M647 506h114l-157 -506h-109l-109 332l-111 -332h-105l-157 506h114l92 -331l10 -50l11 50l101 331h92l101 -331l11 -50l10 50zM193 732h134l109 -158h-95z" />
    <glyph glyph-name="Wacute" unicode="&#x1e82;" horiz-adv-x="994" 
d="M859 700h118l-218 -700h-115l-136 448l-11 47l-10 -47l-136 -448h-116l-218 700h119l148 -480l11 -51l10 51l142 480h100l143 -480l9 -51l11 51zM530 847h153l-136 -114h-112z" />
    <glyph glyph-name="wacute" unicode="&#x1e83;" horiz-adv-x="774" 
d="M647 506h114l-157 -506h-109l-109 332l-111 -332h-105l-157 506h114l92 -331l10 -50l11 50l101 331h92l101 -331l11 -50l10 50zM438 732h134l-148 -158h-95z" />
    <glyph glyph-name="Wdieresis" unicode="&#x1e84;" horiz-adv-x="994" 
d="M859 700h118l-218 -700h-115l-136 448l-11 47l-10 -47l-136 -448h-116l-218 700h119l148 -480l11 -51l10 51l142 480h100l143 -480l9 -51l11 51zM399 854c17.333 0 32 -6 44 -18s18 -26.667 18 -44c0 -16.667 -6 -31 -18 -43s-26.667 -18 -44 -18
c-18 0 -33 5.83301 -45 17.5s-18 26.167 -18 43.5s6 32 18 44s27 18 45 18zM657 792c0 -16.667 -6.16699 -31 -18.5 -43s-27.166 -18 -44.499 -18s-32 5.83301 -44 17.5s-18 26.167 -18 43.5s6 32 18 44s26.667 18 44 18s32.166 -6 44.499 -18s18.5 -26.667 18.5 -44z" />
    <glyph glyph-name="wdieresis" unicode="&#x1e85;" horiz-adv-x="774" 
d="M647 506h114l-157 -506h-109l-109 332l-111 -332h-105l-157 506h114l92 -331l10 -50l11 50l101 331h92l101 -331l11 -50l10 50zM288 699c17.333 0 32 -5.83301 44 -17.5s18 -26.167 18 -43.5s-6 -31.833 -18 -43.5s-26.667 -17.5 -44 -17.5c-18 0 -33 5.83301 -45 17.5
s-18 26.167 -18 43.5s6 31.833 18 43.5s27 17.5 45 17.5zM439 681c12 12 26.667 18 44 18s32 -6 44 -18c12.667 -11.333 19 -25.666 19 -42.999s-6.33301 -32 -19 -44c-12 -11.333 -26.667 -17 -44 -17s-32 5.66699 -44 17c-12 12 -18 26.667 -18 44s6 31.666 18 42.999z
" />
    <glyph glyph-name="Ygrave" unicode="&#x1ef2;" horiz-adv-x="680" 
d="M537 700h131l-271 -437v-263h-114v263l-271 437h131l171 -271l25 -47l26 47zM151 847h154l94 -114h-111z" />
    <glyph glyph-name="ygrave" unicode="&#x1ef3;" horiz-adv-x="512" 
d="M382 506h114l-268 -721h-111l81 222l-185 499h114l117 -339l10 -41l10 41zM61 732h134l109 -158h-95z" />
    <glyph glyph-name="endash" unicode="&#x2013;" horiz-adv-x="515" 
d="M25 307h465v-95h-465v95z" />
    <glyph glyph-name="emdash" unicode="&#x2014;" horiz-adv-x="705" 
d="M25 307h655v-95h-655v95z" />
    <glyph glyph-name="quoteleft" unicode="&#x2018;" horiz-adv-x="199" 
d="M108 737l33.001 -11.999c-18 -34.667 -29 -72.334 -33 -113.001c17.333 -2 31.666 -9 42.999 -21s17 -26.667 17 -44c0 -18.667 -6.66699 -34.5 -20 -47.5s-29.333 -19.5 -48 -19.5c-20 0 -36.5 6.83301 -49.5 20.5s-19.5 31.5 -19.5 53.5
c0 61.333 25.667 122.333 77 183z" />
    <glyph glyph-name="quoteright" unicode="&#x2019;" horiz-adv-x="199" 
d="M168 656c0 -64 -26.001 -125.333 -78.001 -184l-32 12c16.667 34 27.667 71.667 33 113c-17.333 2 -31.666 9 -42.999 21s-17 26.667 -17 44c0 18.667 6.5 34.667 19.5 48s29.167 20 48.5 20c20 0 36.5 -6.83301 49.5 -20.5s19.5 -31.5 19.5 -53.5z" />
    <glyph glyph-name="quotesinglbase" unicode="&#x201a;" horiz-adv-x="199" 
d="M168 51c0 -63.333 -26 -124.334 -78 -183.001l-32 12c17.333 33.333 28.333 71.333 33 114c-18 2 -32.5 8.83301 -43.5 20.5s-16.5 26.5 -16.5 44.5c0 18.667 6.5 34.334 19.5 47.001s29.167 19 48.5 19c20 0 36.5 -6.83301 49.5 -20.5s19.5 -31.5 19.5 -53.5z" />
    <glyph glyph-name="quotedblleft" unicode="&#x201c;" horiz-adv-x="393" 
d="M108 737l33.001 -11.999c-18 -34.667 -29 -72.334 -33 -113.001c17.333 -2 31.666 -9 42.999 -21s17 -26.667 17 -44c0 -18.667 -6.66699 -34.5 -20 -47.5s-29.333 -19.5 -48 -19.5c-20 0 -36.5 6.83301 -49.5 20.5s-19.5 31.5 -19.5 53.5
c0 61.333 25.667 122.333 77 183zM301.001 737.001l33.001 -11.999c-18 -34.667 -29 -72.334 -33 -113.001c17.333 -2 31.666 -9 42.999 -21s17 -26.667 17 -44c0 -18.667 -6.66699 -34.5 -20 -47.5s-29.333 -19.5 -48 -19.5c-20 0 -36.5 6.83301 -49.5 20.5
s-19.5 31.5 -19.5 53.5c0 61.333 25.667 122.333 77 183z" />
    <glyph glyph-name="quotedblright" unicode="&#x201d;" horiz-adv-x="393" 
d="M168 656c0 -64 -26.001 -125.333 -78.001 -184l-32 12c16.667 34 27.667 71.667 33 113c-17.333 2 -31.666 9 -42.999 21s-17 26.667 -17 44c0 18.667 6.5 34.667 19.5 48s29.167 20 48.5 20c20 0 36.5 -6.83301 49.5 -20.5s19.5 -31.5 19.5 -53.5zM291.999 730
c20 0 36.499 -6.83301 49.499 -20.5s19.5 -31.5 19.5 -53.5c0 -64 -26 -125.333 -78 -184l-32 12c16.667 34 27.667 71.667 33 113c-17.333 2 -31.666 9 -42.999 21s-17 26.667 -17 44c0 18.667 6.66699 34.667 20 48s29.333 20 48 20z" />
    <glyph glyph-name="quotedblbase" unicode="&#x201e;" horiz-adv-x="397" 
d="M168 51c0 -63.333 -26 -124.334 -78 -183.001l-32 12c17.333 33.333 28.333 71.333 33 114c-18 2 -32.5 8.83301 -43.5 20.5s-16.5 26.5 -16.5 44.5c0 18.667 6.5 34.334 19.5 47.001s29.167 19 48.5 19c20 0 36.5 -6.83301 49.5 -20.5s19.5 -31.5 19.5 -53.5z
M366 50.999c0 -63.333 -26 -124.334 -78 -183.001l-32 12c17.333 33.333 28.333 71.333 33 114c-18 2 -32.5 8.83301 -43.5 20.5s-16.5 26.5 -16.5 44.5c0 18.667 6.5 34.334 19.5 47.001s29.167 19 48.5 19c20 0 36.5 -6.83301 49.5 -20.5s19.5 -31.5 19.5 -53.5z" />
    <glyph glyph-name="dagger" unicode="&#x2020;" horiz-adv-x="459" 
d="M176 726h107v-190h159v-104h-159v-499h-107v499h-158v104h158v190z" />
    <glyph glyph-name="daggerdbl" unicode="&#x2021;" horiz-adv-x="459" 
d="M176 726h107v-190h159v-104h-159v-205h159v-104h-159v-190h-107v190h-158v104h158v205h-158v104h158v190z" />
    <glyph glyph-name="bullet" unicode="&#x2022;" horiz-adv-x="355" 
d="M76 360c27.333 27.333 61.002 40.998 101.002 40.998s73.667 -13.667 101 -41s41 -61 41 -101s-13.667 -73.667 -41 -101c-26.667 -26.667 -60.334 -40 -101.001 -40s-74.334 13.333 -101.001 40s-40 60.334 -40 101.001s13.333 74.334 40 101.001z" />
    <glyph glyph-name="ellipsis" unicode="&#x2026;" horiz-adv-x="658" 
d="M55 108c13.333 13.333 30 20 50 20s36.667 -6.66699 50 -20c14 -12.667 21 -29 21 -49s-7 -36.667 -21 -50c-13.333 -13.333 -30 -20 -50 -20s-36.667 6.66699 -50 20s-20 30 -20 50s6.66699 36.333 20 49zM278 108c14 13.333 31 20 51 20s36.667 -6.66699 50 -20
c14 -12.667 21 -29 21 -49s-7 -36.667 -21 -50c-13.333 -13.333 -30 -20 -50 -20s-37 6.66699 -51 20c-13.333 13.333 -20 30 -20 50s6.66699 36.333 20 49zM502 108c14 13.333 31 20 51 20s36.667 -6.66699 50 -20c14 -12.667 21 -29 21 -49s-7 -36.667 -21 -50
c-13.333 -13.333 -30 -20 -50 -20s-37 6.66699 -51 20c-13.333 13.333 -20 30 -20 50s6.66699 36.333 20 49z" />
    <glyph glyph-name="perthousand" unicode="&#x2030;" horiz-adv-x="1255" 
d="M574 700h114l-400 -700h-114zM200 713c48 0 88.668 -16.666 122.001 -49.999c32.667 -32.667 49 -74.667 49 -126c0 -50.667 -16.333 -92.334 -49 -125.001c-33.333 -33.333 -74 -50 -122 -50c-50 0 -91.333 16.333 -124 49s-49 74.667 -49 126s16.333 93.333 49 126
c33.333 33.333 74.666 50 123.999 50zM115.001 537.001c0 -26 8.00098 -47.667 24.001 -65s36 -26 60 -26s43.833 8.66699 59.5 26s23.5 39 23.5 65c0 26.667 -7.66699 48.667 -23 66s-35.333 26 -60 26s-44.834 -8.66699 -60.501 -26s-23.5 -39.333 -23.5 -66z
M664.002 338.001c48 0 88.6689 -17.001 122.002 -51.001c33.333 -33.333 50 -75.333 50 -126c0 -50 -16.667 -91.667 -50 -125c-32.667 -32.667 -73.334 -49 -122.001 -49c-50 0 -91.333 16.333 -124 49s-49 74.334 -49 125.001c0 51.333 16.333 93.333 49 126
c33.333 34 74.666 51 123.999 51zM664.004 254c-24.667 0 -45 -8.83301 -61 -26.5s-24 -39.5 -24 -65.5s8 -47.667 24 -65s36.333 -26 61 -26c24 0 43.833 8.66699 59.5 26s23.5 39 23.5 65s-7.83301 47.833 -23.5 65.5s-35.5 26.5 -59.5 26.5zM1056 338
c48 0 88.6689 -17.001 122.002 -51.001c33.333 -33.333 50 -75.333 50 -126c0 -50 -16.667 -91.667 -50 -125c-32.667 -32.667 -73.334 -49 -122.001 -49c-50 0 -91.333 16.333 -124 49s-49 74.334 -49 125.001c0 51.333 16.333 93.333 49 126
c33.333 34 74.666 51 123.999 51zM1056.01 253.999c-24.667 0 -45 -8.83301 -61 -26.5s-24 -39.5 -24 -65.5s8 -47.667 24 -65s36.333 -26 61 -26c24 0 43.833 8.66699 59.5 26s23.5 39 23.5 65s-7.83301 47.833 -23.5 65.5s-35.5 26.5 -59.5 26.5z" />
    <glyph glyph-name="guilsinglleft" unicode="&#x2039;" horiz-adv-x="270" 
d="M154 446h103l-147 -196l147 -195h-103l-142 187v17z" />
    <glyph glyph-name="guilsinglright" unicode="&#x203a;" horiz-adv-x="270" 
d="M12 446h104l141 -187v-17l-141 -187h-104l148 195z" />
    <glyph glyph-name="fraction" unicode="&#x2044;" horiz-adv-x="135" 
d="M211 700h114l-400 -700h-114z" />
    <glyph glyph-name="zero.sups" unicode="&#x2070;" horiz-adv-x="370" 
d="M184 807c48 0 85 -17.668 111 -53.001s39 -85 39 -149s-13 -114 -39 -150s-63 -54 -111 -54c-47.333 0 -83.833 17.833 -109.5 53.5s-38.5 85.834 -38.5 150.501c0 64 12.833 113.667 38.5 149s62.167 53 109.5 53zM184 729.999c-42.667 0 -64 -41.667 -64 -125
c0 -84.667 21.333 -127 64 -127c44 0 66 42.333 66 127c0 83.333 -22 125 -66 125z" />
    <glyph glyph-name="four.sups" unicode="&#x2074;" horiz-adv-x="371" 
d="M183 800h103v-251h53v-73h-53v-68h-83v68h-177v66zM204 549v151l-11 -22l-80 -129h91z" />
    <glyph glyph-name="five.sups" unicode="&#x2075;" horiz-adv-x="350" 
d="M52 800l244 0.00195312v-78h-161v-76c16 8 35 12 57 12c37.333 0 67.5 -10.5 90.5 -31.5s34.5 -50.5 34.5 -88.5c0 -40.667 -12.667 -73.667 -38 -99s-59 -38 -101 -38c-44 0 -78 10.667 -102 32s-36 51.666 -36 90.999h82c0.666992 -30.667 19.334 -46 56.001 -46
c18 0 32 5.16699 42 15.5s15 24.166 15 41.499s-5 31 -15 41s-24 15 -42 15c-18.667 0 -36.334 -4.66699 -53.001 -14h-73v223z" />
    <glyph glyph-name="six.sups" unicode="&#x2076;" horiz-adv-x="359" 
d="M188 807c38 0 68.832 -10.833 92.499 -32.5s35.834 -50.5 36.501 -86.5h-83c-4 28 -20.667 42 -50 42c-44 0 -66 -35 -66 -105c18.667 18.667 45 28 79 28c38 0 68.667 -11 92 -33s35 -51 35 -87c0 -40 -12.667 -72 -38 -96s-59 -36 -101 -36c-44.667 0 -80 14 -106 42
c-30 32.667 -45 84 -45 154c0 140 51.333 210 154 210zM181.999 584c-16 0 -29.8311 -4.50098 -41.498 -13.501s-17.834 -20.5 -18.501 -34.5v-4c0 -14.667 5.66699 -27.5 17 -38.5s25.666 -16.5 42.999 -16.5s31.333 4.83301 42 14.5s16 22.834 16 39.501
c0 15.333 -5.5 28 -16.5 38s-24.833 15 -41.5 15z" />
    <glyph glyph-name="seven.sups" unicode="&#x2077;" horiz-adv-x="312" 
d="M27 800h261v-66l-154 -326h-90l148 313h-165v79z" />
    <glyph glyph-name="eight.sups" unicode="&#x2078;" horiz-adv-x="355" 
d="M178 807c38 0 69.168 -11.166 93.501 -33.499s36.5 -50.166 36.5 -83.499c0 -34.667 -15 -61.667 -45 -81c37.333 -20 56 -49.333 56 -88c0 -34.667 -13.5 -63.334 -40.5 -86.001s-60.5 -34 -100.5 -34c-40.667 0 -74.334 11.333 -101.001 34
c-27.333 23.333 -41 52 -41 86c0 40.667 18.667 70 56 88c-30 19.333 -45 46.333 -45 81c0 33.333 12.167 61.166 36.5 83.499s55.833 33.5 94.5 33.5zM178.001 576.001c-16.667 0 -30.5 -4.83301 -41.5 -14.5s-16.5 -22.167 -16.5 -37.5
c-1.33301 -20.667 8 -35.167 28 -43.5s40 -8.33301 60 0s29.333 22.833 28 43.5c0 15.333 -5.66699 27.833 -17 37.5s-25 14.5 -41 14.5zM178.001 734.001c-20 1.33301 -34.167 -6 -42.5 -22s-8.33301 -32 0 -48s22.5 -23.333 42.5 -22c14 0 25.5 4.33301 34.5 13
s13.5 19.667 13.5 33s-4.5 24.333 -13.5 33s-20.5 13 -34.5 13z" />
    <glyph glyph-name="nine.sups" unicode="&#x2079;" horiz-adv-x="359" 
d="M175 807c46 0 81 -13.334 105 -40.001c30 -32.667 45 -84.667 45 -156c0 -140 -51 -210 -153 -210c-38 0 -68.833 10.833 -92.5 32.5s-35.834 50.5 -36.501 86.5h83c4 -28 20.333 -42 49 -42c43.333 0 65.333 35.333 66 106c-19.333 -17.333 -45.666 -26 -78.999 -26
c-38 0 -68.667 10.833 -92 32.5s-35 49.834 -35 84.501c0 40 12.833 72 38.5 96s59.5 36 101.5 36zM237 675.999c0 14.667 -5.66699 27.499 -17 38.499s-25.666 16.5 -42.999 16.5c-26 0 -43.833 -11.5 -53.5 -34.5s-5.83398 -42.833 11.499 -59.5
c18 -17.333 39.5 -21.166 64.5 -11.499s37.5 26.5 37.5 50.5z" />
    <glyph glyph-name="n.sups" unicode="&#x207f;" horiz-adv-x="415" 
d="M241 711c37.333 0 66.333 -11.333 87 -34s31 -54 31 -94v-224h-83v203c0 46 -20 69 -60 69c-21.333 0 -38.833 -7.66699 -52.5 -23s-20.5 -36.333 -20.5 -63v-186h-82v345h72l5 -46c22 35.333 56.333 53 103 53z" />
    <glyph glyph-name="Euro" unicode="&#x20ac;" horiz-adv-x="601" 
d="M197 303l152 0.000976562v-82h-138c23.333 -86 68.333 -129 135 -129c68 0 107.667 35.333 119 106h121c-16 -70.667 -43.333 -123.5 -82 -158.5s-91.334 -52.5 -158.001 -52.5c-64 0 -117.833 20.5 -161.5 61.5s-73.5 98.5 -89.5 172.5h-80v82h68
c-0.666992 6.66699 -1 22.667 -1 48c0 26 0.333008 42.667 1 50h-68v82h80c16.667 72.667 46.834 129.167 90.501 169.5s97.167 60.5 160.5 60.5c134.667 0 214.667 -70 240 -210h-121c-9.33301 70 -49 105 -119 105c-66 0 -111 -41.667 -135 -125h138v-82h-151
c-1.33301 -14.667 -2 -31.334 -2 -50.001c0 -25.333 0.333008 -41.333 1 -48z" />
    <glyph glyph-name="afii61289" unicode="&#x2113;" horiz-adv-x="574" 
d="M329 750c48.667 0 87.832 -14.665 117.499 -43.998s44.5 -69 44.5 -119c0 -64 -24 -126.667 -72 -188c-40.667 -50.667 -91 -102.334 -151 -155.001v-81c0 -27.333 5.16699 -47.333 15.5 -60s27.5 -19 51.5 -19c26 0 48 7.66699 66 23s38.667 41.666 62 78.999l65 -50
c-60 -98.667 -132.333 -148 -217 -148c-74 0 -118.333 35 -133 105c-6.66699 8.66699 -10 31.667 -10 69c-21.333 -16 -49.666 -39 -84.999 -69l-55 79c51.333 42 96.333 81.333 135 118v278c0 60 14.333 105.333 43 136s69.667 46 123 46zM327.998 664.002
c-21.333 0 -38.165 -7.83301 -50.498 -23.5s-18.5 -37.5 -18.5 -65.5v-223c41.333 38 74.666 76.333 99.999 115c27.333 41.333 41 80 41 116c0 26 -6.33301 46 -19 60s-30.334 21 -53.001 21z" />
    <glyph glyph-name="trademark" unicode="&#x2122;" horiz-adv-x="620" 
d="M22 700h215v-67h-71v-213h-72v213h-72v67zM498 700h85v-280h-72v154l-9 -28l-49 -126h-51l-49 126l-9 28v-154h-72v280h86l64 -166l6 -16l4 16z" />
    <glyph glyph-name="Omega" unicode="&#x2126;" horiz-adv-x="860" 
d="M763 391c0 -42 -7.33203 -81.667 -21.999 -119c-13.333 -36 -28 -65 -44 -87c-14.667 -20 -33.334 -41.667 -56.001 -65h181v-120h-335v106c102 79.333 153 172.666 153 279.999c0 68.667 -18.667 123.667 -56 165c-37.333 42 -87.666 63 -150.999 63
c-64.667 0 -115.334 -21 -152.001 -63c-37.333 -41.333 -56 -96.333 -56 -165c0 -107.333 51 -200.666 153 -279.999v-106h-334v120h182c-82 82 -123 172.333 -123 271c0 100 30 182 90 246c60 64.667 140 97 240 97s180 -32.333 240 -97c60 -64 90 -146 90 -246z" />
    <glyph glyph-name="estimated" unicode="&#x212e;" horiz-adv-x="588" 
d="M306 501c-48 0 -87.333 -11.333 -118 -34c-24 -15.333 -36 -36.333 -36 -63v-96h293v97c0 19.333 -2.33301 34 -7 44s-13.667 18 -27 24c-28.667 18.667 -63.667 28 -105 28zM306 533c71.333 0 130.334 -22.668 177.001 -68.001c46 -45.333 69 -108.666 69 -189.999h-400
v-157c0 -29.333 12 -50.333 36 -63c31.333 -23.333 70.666 -35 117.999 -35c88.667 0 160 40.667 214 122l27 -18c-58 -91.333 -138.333 -137 -241 -137c-78 0 -142.667 25.333 -194 76c-51.333 51.333 -77 117 -77 197s25.667 145.667 77 197c51.333 50.667 116 76 194 76z
" />
    <glyph glyph-name="partialdiff" unicode="&#x2202;" horiz-adv-x="541" 
d="M254 745c48.667 0 90.665 -11.667 125.998 -35s62 -56.333 80 -99c33.333 -76.667 50 -171.667 50 -285c0 -90.667 -11.333 -158.667 -34 -204c-20 -42 -47.667 -74.333 -83 -97s-75.333 -34 -120 -34c-68.667 0 -125.667 22 -171 66c-44.667 44.667 -67 101.667 -67 171
c0 68 21.667 123.667 65 167c42.667 44 97.667 66 165 66c57.333 0 102 -20.667 134 -62c-1.33301 77.333 -15.166 137 -41.499 179s-63.833 63 -112.5 63c-51.333 0 -93.666 -22.667 -126.999 -68l-74 69c52 68.667 122 103 210 103zM145.998 228
c0 -41.333 11.833 -74.667 35.5 -100s54.5 -38 92.5 -38c36.667 0 66.834 12.667 90.501 38s35.5 58.666 35.5 99.999c0 40 -11.833 72.5 -35.5 97.5s-53.834 37.5 -90.501 37.5s-67.167 -12.667 -91.5 -38s-36.5 -57.666 -36.5 -96.999z" />
    <glyph glyph-name="uni2206" unicode="&#x2206;" horiz-adv-x="721" 
d="M39 0l322 639l322 -639h-644zM537 89l-176 350l-176 -350h352z" />
    <glyph glyph-name="product" unicode="&#x220f;" horiz-adv-x="689" 
d="M35 700h619v-104h-117v-708h-102v708h-181v-708h-102v708h-117v104z" />
    <glyph glyph-name="summation" unicode="&#x2211;" horiz-adv-x="610" 
d="M46 700h509v-110h-355l169 -226l-177 -254h375v-110h-524v74l199 287l-196 265v74z" />
    <glyph glyph-name="minus" unicode="&#x2212;" horiz-adv-x="472" 
d="M30 397h412v-95h-412v95z" />
    <glyph glyph-name="radical" unicode="&#x221a;" horiz-adv-x="697" 
d="M368 168l209 526l93 -38l-298 -724l-170 326l-122 -69l-48 84l223 132z" />
    <glyph glyph-name="infinity" unicode="&#x221e;" horiz-adv-x="758" 
d="M549 477c52.667 0 95 -17.999 127 -53.999c32.667 -34.667 49 -79 49 -133c0 -53.333 -16.333 -97.666 -49 -132.999c-32 -36 -74.333 -54 -127 -54c-23.333 0 -46.333 5 -69 15c-20 9.33301 -36 18.666 -48 27.999s-27.667 23.666 -47 42.999l-19 19l-19 -19
c-47.333 -47.333 -95.666 -71 -144.999 -71s-88.333 16.333 -117 49c-29.333 33.333 -44 74 -44 122c0 48.667 14.667 89.667 44 123s68.333 50 117 50c26 0 49.667 -5.83301 71 -17.5s45.666 -30.5 72.999 -56.5l19 -20l15 17c52.667 60 109 90.667 169 92zM549 381.001
c-37.333 0 -74.3359 -24.333 -111.003 -73l-15 -20l18 -20c8.66699 -10 19.334 -21.333 32.001 -34c24.667 -23.333 50.334 -35 77.001 -35c24 0 43.833 8.66699 59.5 26s23.5 39 23.5 65c0 26.667 -7.66699 48.5 -23 65.5s-35.666 25.5 -60.999 25.5zM199.997 370.001
c-22 0 -39.498 -7.5 -52.498 -22.5s-19.5 -34.5 -19.5 -58.5c0 -22.667 6.66699 -41.5 20 -56.5s30.666 -22.5 51.999 -22.5c31.333 0 62.666 19.667 93.999 59l16 19l-16 21c-34.667 40.667 -66 61 -94 61z" />
    <glyph glyph-name="integral" unicode="&#x222b;" horiz-adv-x="434" 
d="M296 750c41.333 0 79.668 -7 115.001 -21l-23 -89c-23.333 10.667 -46 16 -68 16c-37.333 0 -56 -25 -56 -75v-602c0 -60.667 -10.667 -104.5 -32 -131.5s-55.333 -40.5 -102 -40.5s-86.334 7.66699 -119.001 23l25 88c22 -10.667 45 -16 69 -16c40 0 60 25.667 60 77
v602c0 60 10.5 103.167 31.5 129.5s54.167 39.5 99.5 39.5z" />
    <glyph glyph-name="approxequal" unicode="&#x2248;" horiz-adv-x="572" 
d="M203 337c45.333 0 81.667 -15.667 109 -47c30.667 -30.667 61 -46 91 -46c43.333 0 72.333 27.333 87 82l73 -34c-28 -94 -81.667 -141 -161 -141c-44.667 0 -82 15.667 -112 47s-60 47 -90 47c-40.667 0 -69.667 -27.667 -87 -83l-72 33
c26.667 94.667 80.667 142 162 142zM201.001 564c22 0 43 -4.5 63 -13.5s35.667 -20.167 47 -33.5c30.667 -30.667 61 -46 91 -46c43.333 0 72.333 27.333 87 82l73 -34c-26.667 -94.667 -80.667 -142 -162 -142c-43.333 0 -80.333 15.333 -111 46c-30 31.333 -60 47 -90 47
c-42 0 -71 -27.333 -87 -82l-73 34c26.667 94.667 80.667 142 162 142z" />
    <glyph glyph-name="notequal" unicode="&#x2260;" horiz-adv-x="459" 
d="M261 293h181v-94h-212l-28 -85h-100l28 85h-100v94h131l37 113h-168v93h198l32 97h100l-32 -97h114v-93h-144z" />
    <glyph glyph-name="lessequal" unicode="&#x2264;" horiz-adv-x="356" 
d="M206 586h128l-186 -171l186 -171h-128l-185 169v4zM21 192h313v-81h-313v81z" />
    <glyph glyph-name="greaterequal" unicode="&#x2265;" horiz-adv-x="356" 
d="M21 586h128l185 -169v-4l-185 -169h-128l186 171zM21 192h313v-81h-313v81z" />
    <glyph glyph-name="lozenge" unicode="&#x25ca;" horiz-adv-x="559" 
d="M246 738h67l218 -402l-218 -401h-67l-218 401zM418 336l-138 243l-140 -243l140 -244z" />
    <glyph glyph-name="commaaccent" unicode="&#xf6c3;" horiz-adv-x="208" 
d="M104 -35c20 0 36.333 -6.83301 49 -20.5s19 -31.5 19 -53.5c0 -28 -7.16699 -57.5 -21.5 -88.5s-32.833 -57.833 -55.5 -80.5l-30 15c17.333 31.333 27.333 63 30 95c-17.333 2 -31.5 9 -42.5 21s-16.5 26.667 -16.5 44c0 19.333 6.66699 35.5 20 48.5
s29.333 19.5 48 19.5z" />
    <glyph glyph-name=".null" horiz-adv-x="0" 
 />
    <glyph glyph-name="nonmarkingreturn" horiz-adv-x="333" 
 />
    <glyph glyph-name="g.alt" horiz-adv-x="610" 
d="M283 416c-41.333 0 -74.832 -14.668 -100.499 -44.001s-38.5 -67.333 -38.5 -114c0 -47.333 13.167 -85.5 39.5 -114.5s59.833 -43.5 100.5 -43.5c38.667 0 72 14.333 100 43s42.667 66.334 44 113.001v6c0 46 -14.667 83 -44 111c-28.667 28.667 -62.334 43 -101.001 43
zM264.001 516.999c72.667 0 128.664 -27.667 167.997 -83l6 72h94v-495c0 -70.667 -22.667 -127.667 -68 -171c-45.333 -44 -104.666 -66 -177.999 -66c-66 0 -120.167 15.667 -162.5 47s-68.166 77.333 -77.499 138h106c12.667 -58.667 57.334 -88 134.001 -88
c44 0 78.167 12.167 102.5 36.5s36.5 57.833 36.5 100.5v65c-14.667 -22 -36 -39.833 -64 -53.5s-60.333 -20.5 -97 -20.5c-68 0 -123.333 24.333 -166 73s-64 110.667 -64 186c0 76.667 21.333 138.667 64 186c42.667 48.667 98 73 166 73z" />
    <glyph glyph-name="a.alt" horiz-adv-x="609" 
d="M269 517c72.667 0 128.667 -27.667 168 -83l7 72h93v-506h-93l-7 71c-38 -54.667 -94 -82 -168 -82c-68.667 0 -125 25 -169 75c-44 50.667 -66 113.667 -66 189s22 138 66 188c44 50.667 100.333 76 169 76zM288 417c-42.667 0 -77.334 -15.168 -104.001 -45.501
s-40 -69.833 -40 -118.5s13.333 -88.167 40 -118.5s61.334 -45.5 104.001 -45.5c39.333 0 73 14.333 101 43c28.667 28.667 43 67.667 43 117v8c0 48.667 -14.333 87.334 -43 116.001c-29.333 29.333 -63 44 -101 44z" />
    <glyph glyph-name="parenleft.cap" horiz-adv-x="284" 
d="M199 759l76 -51.998c-45.333 -59.333 -78.333 -116.666 -99 -171.999c-20 -54.667 -30 -119.334 -30 -194.001c0 -74 10 -139 30 -195c21.333 -54.667 54.333 -111.667 99 -171l-76 -52c-52 64.667 -90.667 130.167 -116 196.5s-38 140.166 -38 221.499
s12.667 155.166 38 221.499s64 131.833 116 196.5z" />
    <glyph glyph-name="parenright.cap" horiz-adv-x="284" 
d="M9 707l76 52c52.667 -66 91.667 -132 117 -198s38 -139.333 38 -220s-12.667 -154 -38 -220s-64.333 -132 -117 -198l-76 52c45.333 58.667 78 115.334 98 170.001c20.667 55.333 31 120.666 31 195.999c0 76 -10.333 141 -31 195c-20 55.333 -52.667 112.333 -98 171z
" />
    <glyph glyph-name="bracketleft.cap" horiz-adv-x="306" 
d="M70 736h211v-97h-110v-599h110v-97h-211v793z" />
    <glyph glyph-name="bracketright.cap" horiz-adv-x="306" 
d="M25 736h211v-793h-211v97h110v599h-110v97z" />
    <glyph glyph-name="braceleft.cap" horiz-adv-x="306" 
d="M255 736h26v-97h-23c-43.333 0 -65 -24 -65 -72v-125c0 -54 -20.333 -88.333 -61 -103c40.667 -14.667 61 -48.667 61 -102v-125c0 -48 21.667 -72 65 -72h23v-97h-26c-52 0 -91.667 14.5 -119 43.5s-41 69.833 -41 122.5v112c0 48 -21.667 72 -65 72h-15v93h15
c43.333 0 65 24 65 72v112c0 52.667 13.667 93.5 41 122.5s67 43.5 119 43.5z" />
    <glyph glyph-name="braceright.cap" horiz-adv-x="306" 
d="M25 736h26c52 0 91.833 -14.5 119.5 -43.5s41.5 -69.833 41.5 -122.5v-112c0 -48 21.667 -72 65 -72h14v-93h-14c-43.333 0 -65 -24 -65 -72v-112c0 -52.667 -13.833 -93.5 -41.5 -122.5s-67.5 -43.5 -119.5 -43.5h-26v97h23c43.333 0 65 24 65 72v125
c0 53.333 20.333 87.333 61 102c-40.667 14.667 -61 49 -61 103v125c0 48 -21.667 72 -65 72h-23v97z" />
    <glyph glyph-name="hyphen.cap" horiz-adv-x="365" 
d="M25 381h315v-95h-315v95z" />
    <glyph glyph-name="endash.cap" horiz-adv-x="515" 
d="M25 377h465v-95h-465v95z" />
    <glyph glyph-name="emdash.cap" horiz-adv-x="705" 
d="M25 381h655v-95h-655v95z" />
    <glyph glyph-name="at.cap" horiz-adv-x="817" 
d="M398 473c-32.667 0 -59 -11.5 -79 -34.5s-30 -52.833 -30 -89.5c0 -36 10 -65.167 30 -87.5s45.667 -33.5 77 -33.5s57.5 10.167 78.5 30.5s31.5 47.833 31.5 82.5v14c0 35.333 -10.5 63.833 -31.5 85.5s-46.5 32.5 -76.5 32.5zM781 350
c0 -70.667 -15.332 -122.332 -45.999 -154.999c-30 -33.333 -66 -50 -108 -50c-52 0 -87.333 20.333 -106 61c-32 -41.333 -77.667 -62 -137 -62c-55.333 0 -100.333 19.333 -135 58s-52 87.667 -52 147s17.333 108.333 52 147c35.333 39.333 79.333 59 132 59
c60 0 103 -22.667 129 -68l5 59h78v-278c0 -20 3.5 -34.5 10.5 -43.5s18.5 -13.5 34.5 -13.5c46.667 0 70 46.333 70 139c0 88 -27.333 160.333 -82 217c-54 57.333 -126 86 -216 86c-92 0 -165.333 -28.333 -220 -85s-82 -129.334 -82 -218.001
c0 -89.333 27.333 -162.333 82 -219s128 -85 220 -85c48.667 0 94 10 136 30l24 -66c-46.667 -21.333 -100 -32 -160 -32c-112 0 -202.667 34.667 -272 104c-68 70 -102 159.333 -102 268c0 110 34.333 199.333 103 268c69.333 69.333 159.666 104 270.999 104
c112 0 201.667 -35 269 -105c68 -70 102 -159 102 -267z" />
    <glyph glyph-name="periodcentered.cap" horiz-adv-x="211" 
d="M176 349c0 -20 -6.83301 -36.833 -20.5 -50.5s-30.5 -20.5 -50.5 -20.5s-36.667 6.83301 -50 20.5s-20 30.5 -20 50.5c0 19.333 6.66699 35.666 20 48.999s30 20 50 20s36.833 -6.66699 50.5 -20s20.5 -29.666 20.5 -48.999z" />
    <glyph glyph-name="exclamdown.cap" 
d="M180 0h-106v494h106v-494zM177 591c-13.333 -12.667 -30 -19 -50 -19s-37 6.33301 -51 19c-14 13.333 -21 30 -21 50s7 36.667 21 50s31 20 51 20s36.667 -6.66699 50 -20c14 -13.333 21 -30 21 -50s-7 -36.667 -21 -50z" />
    <glyph glyph-name="questiondown.cap" horiz-adv-x="428" 
d="M218 -14c-58.667 0 -107.333 16.998 -146 50.998c-39.333 34 -59 81 -59 141c0 63.333 18.333 114 55 152c6 6 17.5 16.833 34.5 32.5s29 27.334 36 35.001s14 17.834 21 30.501s10.5 25 10.5 37v30h107v-34c0 -45.333 -19 -85.333 -57 -120
c-2.66699 -2 -8.66699 -7 -18 -15l-19 -16.5c-3.33301 -3 -8.83301 -8.33301 -16.5 -16s-13.334 -13.834 -17.001 -18.501s-8.16699 -11.167 -13.5 -19.5s-9.16602 -15.833 -11.499 -22.5s-4.5 -14.667 -6.5 -24s-3 -18.666 -3 -27.999c0 -34 9.16699 -60.5 27.5 -79.5
s42.833 -28.5 73.5 -28.5c34 0 60.333 10 79 30s28 48 28 84h101c-0.666992 -62.667 -20.667 -112 -60 -148c-39.333 -35.333 -88 -53 -146 -53zM273.001 591.998c-13.333 -12.667 -30 -19 -50 -19s-37 6.33301 -51 19c-13.333 13.333 -20 30 -20 50s6.66699 36.667 20 50
c14 13.333 31 20 51 20s36.667 -6.66699 50 -20c14 -13.333 21 -30 21 -50s-7 -36.667 -21 -50z" />
    <glyph glyph-name="endash_guilsinglright" horiz-adv-x="658" 
d="M278 480l52 63l292 -264l-292 -265l-52 63l175 155h-418v92h419z" />
    <glyph glyph-name="emdash_guilsinglright" horiz-adv-x="986" 
d="M605 480l51 63l295 -264l-295 -265l-51 63l175 155h-745v92h747z" />
    <glyph glyph-name="guilsinglleft_endash" horiz-adv-x="658" 
d="M35 279l295 264l51 -64l-177 -155h418v-92h-416l175 -155l-51 -63z" />
    <glyph glyph-name="guilsinglleft_emdash" horiz-adv-x="986" 
d="M35 279l295 264l51 -64l-177 -155h747v-92h-745l175 -155l-51 -63z" />
    <glyph glyph-name="guilsinglleft.cap" horiz-adv-x="270" 
d="M154 536h103l-147 -196l147 -195h-103l-142 187v17z" />
    <glyph glyph-name="guilsinglright.cap" horiz-adv-x="270" 
d="M12 536h104l141 -187v-17l-141 -187h-104l148 195z" />
    <glyph glyph-name="guillemotleft.cap" horiz-adv-x="471" 
d="M138 536h104l-132 -196l132 -195h-104l-126 187v17zM355 536h104l-132 -196l132 -195h-104l-126 187v17z" />
    <glyph glyph-name="guillemotright.cap" horiz-adv-x="471" 
d="M12 536h104l126 -187v-17l-126 -187h-104l132 195zM229 536h104l126 -187v-17l-126 -187h-104l132 195z" />
    <glyph glyph-name="germandbls.cap" horiz-adv-x="631" 
d="M326 713c51.333 0 95.6729 -8.16699 133.006 -24.5s72.666 -41.833 105.999 -76.5l-146 -198c53.333 -5.33301 96.166 -26 128.499 -62s48.5 -81.333 48.5 -136c0 -68 -21.833 -122.167 -65.5 -162.5s-104.167 -60.5 -181.5 -60.5c-28.667 0 -59.334 3 -92.001 9l4 107
c25.333 -7.33301 52.666 -11 81.999 -11c44 0 77.833 9.83301 101.5 29.5s35.5 48.5 35.5 86.5c0 39.333 -15.833 69.5 -47.5 90.5s-75.834 31.5 -132.501 31.5l-17 50l138 190c-23.333 21.333 -56.333 32 -99 32c-40.667 0 -73.667 -13 -99 -39s-38 -61 -38 -105v-464h-113
v461c0 74 22.333 134.333 67 181c45.333 47.333 107.666 71 186.999 71z" />
    <glyph glyph-name="grave.cap" horiz-adv-x="268" 
d="M10 847h154l94 -114h-111z" />
    <glyph glyph-name="acute.cap" horiz-adv-x="268" 
d="M105 847h153l-136 -114h-112z" />
    <glyph glyph-name="circumflex.cap" horiz-adv-x="380" 
d="M158 851h64l148 -119h-123l-58 53l-57 -53h-122z" />
    <glyph glyph-name="caron.cap" horiz-adv-x="380" 
d="M247 848h123l-148 -119h-64l-148 119h122l57 -53z" />
    <glyph glyph-name="tilde.cap" horiz-adv-x="359" 
d="M117 865c21.333 0 40.166 -5.5 56.499 -16.5s30.166 -22 41.499 -33s21.666 -16.5 30.999 -16.5c24.667 0 37 19 37 57h66c0 -40.667 -9.16699 -72.667 -27.5 -96s-44.833 -35 -79.5 -35c-21.333 0 -40.166 5.5 -56.499 16.5s-30.166 22 -41.499 33
s-21.666 16.5 -30.999 16.5c-24.667 0 -37 -19 -37 -57h-66c0 40.667 9.16699 72.667 27.5 96s44.833 35 79.5 35z" />
    <glyph glyph-name="dieresis.cap" horiz-adv-x="341" 
d="M73 854c17.333 0 32 -6 44 -18s18 -26.667 18 -44c0 -16.667 -6 -31 -18 -43s-26.667 -18 -44 -18c-18 0 -33 5.83301 -45 17.5s-18 26.167 -18 43.5s6 32 18 44s27 18 45 18zM331 792c0 -16.667 -6.16699 -31 -18.5 -43s-27.166 -18 -44.499 -18s-32 5.83301 -44 17.5
s-18 26.167 -18 43.5s6 32 18 44s26.667 18 44 18s32.166 -6 44.499 -18s18.5 -26.667 18.5 -44z" />
    <glyph glyph-name="macron.cap" horiz-adv-x="290" 
d="M10 822h270v-83h-270v83z" />
    <glyph glyph-name="breve.cap" horiz-adv-x="323" 
d="M225 859h88c0 -38.667 -14.167 -70 -42.5 -94s-64.833 -36 -109.5 -36s-81 12 -109 36s-42 55.333 -42 94h87c0 -17.333 5.66699 -31.333 17 -42s27 -16 47 -16s35.667 5.33301 47 16s17 24.667 17 42z" />
    <glyph glyph-name="ring.cap" horiz-adv-x="209" 
d="M104 920c29.333 0 53.333 -9.33301 72 -28s28 -42 28 -70s-9.33301 -51.167 -28 -69.5s-42.667 -27.5 -72 -27.5c-28.667 0 -52.5 9.33301 -71.5 28s-28.5 41.667 -28.5 69c0 28 9.5 51.333 28.5 70s42.833 28 71.5 28zM104 861c-10.667 0 -19.5 -3.66699 -26.5 -11
s-10.5 -16.666 -10.5 -27.999c0 -10 3.66699 -18.833 11 -26.5s16 -11.5 26 -11.5c11.333 0 20.666 3.83301 27.999 11.5s11 16.5 11 26.5c0 11.333 -3.66699 20.666 -11 27.999s-16.666 11 -27.999 11z" />
    <glyph glyph-name="hungarumlaut.cap" horiz-adv-x="382" 
d="M86 850h113l-97 -121h-92zM259 850h113l-97 -121h-92z" />
    <glyph glyph-name="dotaccent.cap" horiz-adv-x="149" 
d="M75 857c17.333 0 32.333 -6 45 -18s19 -26.667 19 -44c0 -18 -6.33301 -33.167 -19 -45.5s-27.667 -18.5 -45 -18.5c-18.667 0 -34.167 6.16699 -46.5 18.5s-18.5 27.5 -18.5 45.5c0 17.333 6.16699 32 18.5 44s27.833 18 46.5 18z" />
    <glyph glyph-name="aogonek.alt" horiz-adv-x="609" 
d="M269 517c72.667 0 128.667 -27.665 168 -82.998l7 72h93v-506h-5c-44.667 -18.667 -67 -47.334 -67 -86.001c0 -17.333 4.33301 -30.333 13 -39s21.667 -13.334 39 -14.001s31 2 41 8l15 -58c-14 -8 -34 -12 -60 -12c-35.333 0 -64 10.167 -86 30.5s-33 47.5 -33 81.5
c0 40 16.333 72.333 49 97l-6 63c-38 -54.667 -94 -82 -168 -82c-68.667 0 -125 25 -169 75c-44 50.667 -66 113.667 -66 189s22 138 66 188c44 50.667 100.333 76 169 76zM288 417.002c-42.667 0 -77.334 -15.168 -104.001 -45.501s-40 -69.833 -40 -118.5
s13.333 -88.167 40 -118.5s61.334 -45.5 104.001 -45.5c39.333 0 73 14.333 101 43c28.667 28.667 43 67.667 43 117v8c0 48.667 -14.333 87.334 -43 116.001c-29.333 29.333 -63 44 -101 44z" />
    <glyph glyph-name="aringacute.alt" horiz-adv-x="609" 
d="M269 517c72.667 0 128.667 -27.667 168 -83l7 72h93v-506h-93l-7 71c-38 -54.667 -94 -82 -168 -82c-68.667 0 -125 25 -169 75c-44 50.667 -66 113.667 -66 189s22 138 66 188c44 50.667 100.333 76 169 76zM288 417c-42.667 0 -77.334 -15.168 -104.001 -45.501
s-40 -69.833 -40 -118.5s13.333 -88.167 40 -118.5s61.334 -45.5 104.001 -45.5c39.333 0 73 14.333 101 43c28.667 28.667 43 67.667 43 117v8c0 48.667 -14.333 87.334 -43 116.001c-29.333 29.333 -63 44 -101 44zM304 846.999l152.999 -0.000976562l-113 -95
c35.333 -18 53 -48.667 53 -92c0 -30 -10.167 -55 -30.5 -75s-46.5 -30 -78.5 -30c-31.333 0 -57.166 10 -77.499 30s-30.5 45 -30.5 75c0 32.667 11.333 59.334 34 80.001zM287.999 707.998c-13.333 0 -24.5 -4.5 -33.5 -13.5s-13.5 -20.167 -13.5 -33.5
s4.5 -24.666 13.5 -33.999s20.167 -14 33.5 -14c14 0 25.5 4.66699 34.5 14s13.5 20.666 13.5 33.999s-4.5 24.5 -13.5 33.5s-20.5 13.5 -34.5 13.5z" />
    <glyph glyph-name="aacute.alt" horiz-adv-x="609" 
d="M269 517c72.667 0 128.667 -27.667 168 -83l7 72h93v-506h-93l-7 71c-38 -54.667 -94 -82 -168 -82c-68.667 0 -125 25 -169 75c-44 50.667 -66 113.667 -66 189s22 138 66 188c44 50.667 100.333 76 169 76zM288 417c-42.667 0 -77.334 -15.168 -104.001 -45.501
s-40 -69.833 -40 -118.5s13.333 -88.167 40 -118.5s61.334 -45.5 104.001 -45.5c39.333 0 73 14.333 101 43c28.667 28.667 43 67.667 43 117v8c0 48.667 -14.333 87.334 -43 116.001c-29.333 29.333 -63 44 -101 44zM340 731.999h134l-148 -158h-95z" />
    <glyph glyph-name="abreve.alt" horiz-adv-x="609" 
d="M269 517c72.667 0 128.667 -27.667 168 -83l7 72h93v-506h-93l-7 71c-38 -54.667 -94 -82 -168 -82c-68.667 0 -125 25 -169 75c-44 50.667 -66 113.667 -66 189s22 138 66 188c44 50.667 100.333 76 169 76zM288 417c-42.667 0 -77.334 -15.168 -104.001 -45.501
s-40 -69.833 -40 -118.5s13.333 -88.167 40 -118.5s61.334 -45.5 104.001 -45.5c39.333 0 73 14.333 101 43c28.667 28.667 43 67.667 43 117v8c0 48.667 -14.333 87.334 -43 116.001c-29.333 29.333 -63 44 -101 44zM350 710.999h88c0 -42.667 -14.167 -77.5 -42.5 -104.5
s-64.833 -40.5 -109.5 -40.5s-81 13.5 -109 40.5s-42 61.833 -42 104.5h87c0 -22 5.83301 -39.833 17.5 -53.5s27.167 -20.5 46.5 -20.5s34.833 6.83301 46.5 20.5s17.5 31.5 17.5 53.5z" />
    <glyph glyph-name="adieresis.alt" horiz-adv-x="609" 
d="M269 517c72.667 0 128.667 -27.667 168 -83l7 72h93v-506h-93l-7 71c-38 -54.667 -94 -82 -168 -82c-68.667 0 -125 25 -169 75c-44 50.667 -66 113.667 -66 189s22 138 66 188c44 50.667 100.333 76 169 76zM288 417c-42.667 0 -77.334 -15.168 -104.001 -45.501
s-40 -69.833 -40 -118.5s13.333 -88.167 40 -118.5s61.334 -45.5 104.001 -45.5c39.333 0 73 14.333 101 43c28.667 28.667 43 67.667 43 117v8c0 48.667 -14.333 87.334 -43 116.001c-29.333 29.333 -63 44 -101 44zM193 698.999c17.333 0 32 -5.83301 44 -17.5
s18 -26.167 18 -43.5s-6 -31.833 -18 -43.5s-26.667 -17.5 -44 -17.5c-18 0 -33 5.83301 -45 17.5s-18 26.167 -18 43.5s6 31.833 18 43.5s27 17.5 45 17.5zM344 680.999c12 12 26.667 18 44 18s32 -6 44 -18c12.667 -11.333 19 -25.666 19 -42.999s-6.33301 -32 -19 -44
c-12 -11.333 -26.667 -17 -44 -17s-32 5.66699 -44 17c-12 12 -18 26.667 -18 44s6 31.666 18 42.999z" />
    <glyph glyph-name="agrave.alt" horiz-adv-x="609" 
d="M269 517c72.667 0 128.667 -27.667 168 -83l7 72h93v-506h-93l-7 71c-38 -54.667 -94 -82 -168 -82c-68.667 0 -125 25 -169 75c-44 50.667 -66 113.667 -66 189s22 138 66 188c44 50.667 100.333 76 169 76zM288 417c-42.667 0 -77.334 -15.168 -104.001 -45.501
s-40 -69.833 -40 -118.5s13.333 -88.167 40 -118.5s61.334 -45.5 104.001 -45.5c39.333 0 73 14.333 101 43c28.667 28.667 43 67.667 43 117v8c0 48.667 -14.333 87.334 -43 116.001c-29.333 29.333 -63 44 -101 44zM94 731.999h134l109 -158h-95z" />
    <glyph glyph-name="amacron.alt" horiz-adv-x="609" 
d="M269 517c72.667 0 128.667 -27.667 168 -83l7 72h93v-506h-93l-7 71c-38 -54.667 -94 -82 -168 -82c-68.667 0 -125 25 -169 75c-44 50.667 -66 113.667 -66 189s22 138 66 188c44 50.667 100.333 76 169 76zM288 417c-42.667 0 -77.334 -15.168 -104.001 -45.501
s-40 -69.833 -40 -118.5s13.333 -88.167 40 -118.5s61.334 -45.5 104.001 -45.5c39.333 0 73 14.333 101 43c28.667 28.667 43 67.667 43 117v8c0 48.667 -14.333 87.334 -43 116.001c-29.333 29.333 -63 44 -101 44zM153 674.999h270v-83h-270v83z" />
    <glyph glyph-name="aring.alt" horiz-adv-x="609" 
d="M269 517c72.667 0 128.667 -27.667 168 -83l7 72h93v-506h-93l-7 71c-38 -54.667 -94 -82 -168 -82c-68.667 0 -125 25 -169 75c-44 50.667 -66 113.667 -66 189s22 138 66 188c44 50.667 100.333 76 169 76zM288 417c-42.667 0 -77.334 -15.168 -104.001 -45.501
s-40 -69.833 -40 -118.5s13.333 -88.167 40 -118.5s61.334 -45.5 104.001 -45.5c39.333 0 73 14.333 101 43c28.667 28.667 43 67.667 43 117v8c0 48.667 -14.333 87.334 -43 116.001c-29.333 29.333 -63 44 -101 44zM284 765.999c32 0 58.167 -10 78.5 -30
s30.5 -45.333 30.5 -76c0 -30 -10.167 -55 -30.5 -75s-46.5 -30 -78.5 -30c-31.333 0 -57.166 10 -77.499 30s-30.5 45 -30.5 75c0 30.667 10.167 56 30.5 76s46.166 30 77.499 30zM284 707.999c-13.333 0 -24.5 -4.5 -33.5 -13.5s-13.5 -20.167 -13.5 -33.5
s4.5 -24.666 13.5 -33.999s20.167 -14 33.5 -14c14 0 25.5 4.66699 34.5 14s13.5 20.666 13.5 33.999s-4.5 24.5 -13.5 33.5s-20.5 13.5 -34.5 13.5z" />
    <glyph glyph-name="atilde.alt" horiz-adv-x="609" 
d="M269 517c72.667 0 128.667 -27.667 168 -83l7 72h93v-506h-93l-7 71c-38 -54.667 -94 -82 -168 -82c-68.667 0 -125 25 -169 75c-44 50.667 -66 113.667 -66 189s22 138 66 188c44 50.667 100.333 76 169 76zM288 417c-42.667 0 -77.334 -15.168 -104.001 -45.501
s-40 -69.833 -40 -118.5s13.333 -88.167 40 -118.5s61.334 -45.5 104.001 -45.5c39.333 0 73 14.333 101 43c28.667 28.667 43 67.667 43 117v8c0 48.667 -14.333 87.334 -43 116.001c-29.333 29.333 -63 44 -101 44zM226 712.999c18.667 0 34.834 -3.66797 48.501 -11.001
s23.667 -15.333 30 -24s13.833 -16.667 22.5 -24s18 -11 28 -11c24.667 0 37 20.333 37 61h66c0 -41.333 -9.16699 -74.166 -27.5 -98.499s-44.833 -36.5 -79.5 -36.5c-18.667 0 -34.834 3.66699 -48.501 11s-23.667 15.5 -30 24.5s-13.833 17.167 -22.5 24.5s-18 11 -28 11
c-24.667 0 -37 -20.667 -37 -62h-66c0 42 9.16699 75 27.5 99s44.833 36 79.5 36z" />
    <glyph glyph-name="gbreve.alt" horiz-adv-x="610" 
d="M283 416c-41.333 0 -74.832 -14.668 -100.499 -44.001s-38.5 -67.333 -38.5 -114c0 -47.333 13.167 -85.5 39.5 -114.5s59.833 -43.5 100.5 -43.5c38.667 0 72 14.333 100 43s42.667 66.334 44 113.001v6c0 46 -14.667 83 -44 111c-28.667 28.667 -62.334 43 -101.001 43
zM264.001 516.999c72.667 0 128.664 -27.667 167.997 -83l6 72h94v-495c0 -70.667 -22.667 -127.667 -68 -171c-45.333 -44 -104.666 -66 -177.999 -66c-66 0 -120.167 15.667 -162.5 47s-68.166 77.333 -77.499 138h106c12.667 -58.667 57.334 -88 134.001 -88
c44 0 78.167 12.167 102.5 36.5s36.5 57.833 36.5 100.5v65c-14.667 -22 -36 -39.833 -64 -53.5s-60.333 -20.5 -97 -20.5c-68 0 -123.333 24.333 -166 73s-64 110.667 -64 186c0 76.667 21.333 138.667 64 186c42.667 48.667 98 73 166 73zM345.998 710.999h88
c0 -42.667 -14.167 -77.5 -42.5 -104.5s-64.833 -40.5 -109.5 -40.5s-81 13.5 -109 40.5s-42 61.833 -42 104.5h87c0 -22 5.83301 -39.833 17.5 -53.5s27.167 -20.5 46.5 -20.5s34.833 6.83301 46.5 20.5s17.5 31.5 17.5 53.5z" />
    <glyph glyph-name="gcircumflex.alt" horiz-adv-x="610" 
d="M283 416c-41.333 0 -74.832 -14.668 -100.499 -44.001s-38.5 -67.333 -38.5 -114c0 -47.333 13.167 -85.5 39.5 -114.5s59.833 -43.5 100.5 -43.5c38.667 0 72 14.333 100 43s42.667 66.334 44 113.001v6c0 46 -14.667 83 -44 111c-28.667 28.667 -62.334 43 -101.001 43
zM264.001 516.999c72.667 0 128.664 -27.667 167.997 -83l6 72h94v-495c0 -70.667 -22.667 -127.667 -68 -171c-45.333 -44 -104.666 -66 -177.999 -66c-66 0 -120.167 15.667 -162.5 47s-68.166 77.333 -77.499 138h106c12.667 -58.667 57.334 -88 134.001 -88
c44 0 78.167 12.167 102.5 36.5s36.5 57.833 36.5 100.5v65c-14.667 -22 -36 -39.833 -64 -53.5s-60.333 -20.5 -97 -20.5c-68 0 -123.333 24.333 -166 73s-64 110.667 -64 186c0 76.667 21.333 138.667 64 186c42.667 48.667 98 73 166 73zM244.998 731.999h74l137 -158
h-112l-62 86l-63 -86h-112z" />
    <glyph glyph-name="gcommaaccent.alt" horiz-adv-x="610" 
d="M283 416c-41.333 0 -74.832 -14.668 -100.499 -44.001s-38.5 -67.333 -38.5 -114c0 -47.333 13.167 -85.5 39.5 -114.5s59.833 -43.5 100.5 -43.5c38.667 0 72 14.333 100 43s42.667 66.334 44 113.001v6c0 46 -14.667 83 -44 111c-28.667 28.667 -62.334 43 -101.001 43
zM264.001 516.999c72.667 0 128.664 -27.667 167.997 -83l6 72h94v-495c0 -70.667 -22.667 -127.667 -68 -171c-45.333 -44 -104.666 -66 -177.999 -66c-66 0 -120.167 15.667 -162.5 47s-68.166 77.333 -77.499 138h106c12.667 -58.667 57.334 -88 134.001 -88
c44 0 78.167 12.167 102.5 36.5s36.5 57.833 36.5 100.5v65c-14.667 -22 -36 -39.833 -64 -53.5s-60.333 -20.5 -97 -20.5c-68 0 -123.333 24.333 -166 73s-64 110.667 -64 186c0 76.667 21.333 138.667 64 186c42.667 48.667 98 73 166 73zM292.998 821.999l33.001 -11.999
c-18 -34.667 -29 -72.334 -33 -113.001c17.333 -2 31.666 -9 42.999 -21s17 -26.667 17 -44c0 -18.667 -6.66699 -34.5 -20 -47.5s-29.333 -19.5 -48 -19.5c-20 0 -36.5 6.83301 -49.5 20.5s-19.5 31.5 -19.5 53.5c0 61.333 25.667 122.333 77 183z" />
    <glyph glyph-name="gdotaccent.alt" horiz-adv-x="610" 
d="M283 416c-41.333 0 -74.832 -14.668 -100.499 -44.001s-38.5 -67.333 -38.5 -114c0 -47.333 13.167 -85.5 39.5 -114.5s59.833 -43.5 100.5 -43.5c38.667 0 72 14.333 100 43s42.667 66.334 44 113.001v6c0 46 -14.667 83 -44 111c-28.667 28.667 -62.334 43 -101.001 43
zM264.001 516.999c72.667 0 128.664 -27.667 167.997 -83l6 72h94v-495c0 -70.667 -22.667 -127.667 -68 -171c-45.333 -44 -104.666 -66 -177.999 -66c-66 0 -120.167 15.667 -162.5 47s-68.166 77.333 -77.499 138h106c12.667 -58.667 57.334 -88 134.001 -88
c44 0 78.167 12.167 102.5 36.5s36.5 57.833 36.5 100.5v65c-14.667 -22 -36 -39.833 -64 -53.5s-60.333 -20.5 -97 -20.5c-68 0 -123.333 24.333 -166 73s-64 110.667 -64 186c0 76.667 21.333 138.667 64 186c42.667 48.667 98 73 166 73zM232.998 692.999
c13.333 13.333 29.666 20 48.999 20s35.666 -6.66699 48.999 -20c13.333 -12.667 20 -28.334 20 -47.001s-6.66699 -34.667 -20 -48c-13.333 -12.667 -29.666 -19 -48.999 -19s-35.666 6.33301 -48.999 19c-12.667 13.333 -19 29.333 -19 48s6.33301 34.334 19 47.001z" />
    <glyph glyph-name="acircumflex.alt" horiz-adv-x="609" 
d="M269 517c72.667 0 128.667 -27.667 168 -83l7 72h93v-506h-93l-7 71c-38 -54.667 -94 -82 -168 -82c-68.667 0 -125 25 -169 75c-44 50.667 -66 113.667 -66 189s22 138 66 188c44 50.667 100.333 76 169 76zM288 417c-42.667 0 -77.334 -15.168 -104.001 -45.501
s-40 -69.833 -40 -118.5s13.333 -88.167 40 -118.5s61.334 -45.5 104.001 -45.5c39.333 0 73 14.333 101 43c28.667 28.667 43 67.667 43 117v8c0 48.667 -14.333 87.334 -43 116.001c-29.333 29.333 -63 44 -101 44zM259 731.999h74l137 -158h-112l-62 86l-63 -86h-112z
" />
    <glyph glyph-name="zero.tnum" horiz-adv-x="564" 
d="M281 553c74.667 0 133.667 -25.668 177 -77.001s65 -119.666 65 -204.999s-21.667 -154.333 -65 -207c-43.333 -51.333 -102.333 -77 -177 -77s-133.667 25.667 -177 77c-42.667 51.333 -64 120.333 -64 207c0 86 21.333 154.333 64 205c43.333 51.333 102.333 77 177 77
zM281 449.999c-39.333 0 -70.499 -16.333 -93.499 -49s-34.5 -76 -34.5 -130c0 -54.667 11.5 -98.5 34.5 -131.5s54.167 -49.5 93.5 -49.5s70.666 16.5 93.999 49.5s35 76.833 35 131.5s-11.5 98.167 -34.5 130.5s-54.5 48.5 -94.5 48.5z" />
    <glyph glyph-name="one.tnum" horiz-adv-x="361" 
d="M205 540h84v-540h-112v364h-148v84c54.667 0 95.5 6.83301 122.5 20.5s44.833 37.5 53.5 71.5z" />
    <glyph glyph-name="two.tnum" horiz-adv-x="492" 
d="M250 553c63.333 0 112.833 -17 148.5 -51s53.5 -79.333 53.5 -136c0 -66.667 -31.333 -125.334 -94 -176.001l-103 -85h205v-105h-412v64l225 183c23.333 19.333 40 37.333 50 54s15 36.667 15 60c0 58 -30 87 -90 87c-28.667 0 -51 -9 -67 -27s-23.667 -44 -23 -78h-112
c-0.666992 62.667 17.666 113.334 54.999 152.001c36.667 38.667 86.334 58 149.001 58z" />
    <glyph glyph-name="three.tnum" horiz-adv-x="538" 
d="M263 553c63.333 0 113.666 -18.6689 150.999 -56.002c36.667 -36.667 55 -83 55 -139c0 -36 -8.66699 -66.5 -26 -91.5s-39.666 -42.5 -66.999 -52.5c34 -10 62 -29.333 84 -58s33 -64 33 -106c0 -60.667 -20.667 -109.667 -62 -147s-94.666 -56 -159.999 -56
c-72 0 -128.333 19.333 -169 58s-61 92.667 -61 162h112c0.666992 -38 11.667 -66.667 33 -86s50.666 -29 87.999 -29c32 0 57.5 9.16699 76.5 27.5s28.5 43.166 28.5 74.499c0 72.667 -48 109 -144 109h-31v98h30c42 0 72.833 7.33301 92.5 22s29.5 38.334 29.5 71.001
c0 28.667 -8 51.5 -24 68.5s-38.667 25.5 -68 25.5c-28.667 0 -52 -9.66699 -70 -29s-27 -46.666 -27 -81.999h-112c0 66.667 18.833 119.334 56.5 158.001s88.167 58 151.5 58z" />
    <glyph glyph-name="four.tnum" horiz-adv-x="556" 
d="M297 540h135v-454h94v-101h-94v-125h-113v125h-295v91zM321 85v304l-20 -41l-156 -263h176z" />
    <glyph glyph-name="five.tnum" horiz-adv-x="537" 
d="M74 540h390.999v-105h-277v-163c24.667 14.667 58.334 22 101.001 22c64 0 115.333 -19 154 -57s58 -90.333 58 -157c0 -69.333 -20.333 -125.333 -61 -168c-40 -43.333 -94.667 -65 -164 -65s-123.666 18.333 -162.999 55s-59 88.334 -59 155.001h113
c0.666992 -34.667 10.667 -60.834 30 -78.501s46 -26.5 80 -26.5c35.333 0 62.666 11 81.999 33s29 52 29 90c0 37.333 -9.83301 66.5 -29.5 87.5s-47.834 31.5 -84.501 31.5c-35.333 0 -68.666 -9.66699 -99.999 -29h-100v375z" />
    <glyph glyph-name="six.tnum" horiz-adv-x="552" 
d="M291 693c59.333 0 108 -17.999 146 -53.999c38 -34.667 58.667 -82 62 -142h-114c-4.66699 60.667 -37.334 91 -98.001 91c-42 0 -73.5 -17.667 -94.5 -53s-32.167 -91.333 -33.5 -168c12.667 20 31.834 36.5 57.501 49.5s53.167 19.5 82.5 19.5
c64 0 115.667 -20.667 155 -62s59 -93.666 59 -156.999c0 -68.667 -21 -124.334 -63 -167.001c-41.333 -42 -95.333 -63 -162 -63c-72 0 -129 23.667 -171 71c-47.333 53.333 -71 142 -71 266c0 123.333 20 215.666 60 276.999s101.667 92 185 92zM284 336.001
c-32 0 -59.667 -11.002 -83 -33.002c-22 -21.333 -33.667 -48.666 -35 -81.999v-5c0 -34 11 -63.333 33 -88c22 -25.333 50.333 -38 85 -38c33.333 0 60.666 11.833 81.999 35.5s32 53.834 32 90.501c0 34 -10.667 62.5 -32 85.5s-48.666 34.5 -81.999 34.5z" />
    <glyph glyph-name="seven.tnum" horiz-adv-x="497" 
d="M37 540h425v-91l-270 -589h-122l264 574h-297v106z" />
    <glyph glyph-name="eight.tnum" horiz-adv-x="551" 
d="M276 694c61.333 0 111.333 -19.333 150 -58c38.667 -38 58 -84.333 58 -139c0 -34 -7.66699 -63.833 -23 -89.5s-34.666 -44.834 -57.999 -57.501c67.333 -33.333 101 -87 101 -161c0 -58 -21.667 -106 -65 -144s-97.666 -57 -162.999 -57
c-66.667 0 -121.334 19 -164.001 57c-43.333 38 -65 86 -65 144c0 76.667 33.667 130.334 101 161.001c-23.333 13.333 -42.5 32.833 -57.5 58.5s-22.5 55.167 -22.5 88.5c0 55.333 19 102 57 140c39.333 38 89.666 57 150.999 57zM276 300
c-33.333 0 -60.833 -9.66699 -82.5 -29s-32.5 -45 -32.5 -77c0 -31.333 10.667 -56.333 32 -75s49 -28 83 -28s61.667 9.33301 83 28s32 43.667 32 75s-11 56.833 -33 76.5s-49.333 29.5 -82 29.5zM276 589c-29.333 0 -53 -8.66699 -71 -26s-27 -40.333 -27 -69
s9 -51.5 27 -68.5s41.667 -25.5 71 -25.5c28.667 0 52 8.66699 70 26s27 40 27 68s-9.16699 50.833 -27.5 68.5s-41.5 26.5 -69.5 26.5z" />
    <glyph glyph-name="nine.tnum" horiz-adv-x="552" 
d="M260 -153c-58.667 0 -107.668 18 -147.001 54c-37.333 34.667 -57.666 82 -60.999 142h114c4.66699 -60.667 37.334 -91 98.001 -91c81.333 0 124 73.333 128 220c-12.667 -20 -31.834 -36.333 -57.501 -49s-53.167 -19 -82.5 -19c-64 0 -115.667 20.667 -155 62
s-59 93.666 -59 156.999c0 68 20.667 123.333 62 166c42 42.667 96.333 64 163 64c72 0 129 -23.667 171 -71c47.333 -53.333 71 -142 71 -266c0 -123.333 -20 -215.666 -60 -276.999s-101.667 -92 -185 -92zM266.999 204c32 0 59.334 10.835 82.001 32.502
s34.667 49.167 36 82.5v5c0 33.333 -11 62.666 -33 87.999s-50.333 38 -85 38c-34 0 -61.5 -11.833 -82.5 -35.5s-31.5 -53.834 -31.5 -90.501c0 -34 10.667 -62.5 32 -85.5s48.666 -34.5 81.999 -34.5z" />
    <glyph glyph-name="zero.dnom" horiz-adv-x="370" 
d="M184 399c48 0 85 -17.668 111 -53.001s39 -85 39 -149s-13 -114 -39 -150s-63 -54 -111 -54c-47.333 0 -83.833 17.833 -109.5 53.5s-38.5 85.834 -38.5 150.501c0 64 12.833 113.667 38.5 149s62.167 53 109.5 53zM184 321.999c-42.667 0 -64 -41.667 -64 -125
c0 -84.667 21.333 -127 64 -127c44 0 66 42.333 66 127c0 83.333 -22 125 -66 125z" />
    <glyph glyph-name="one.dnom" 
d="M141 392h61v-392h-83v273h-88v63c64 0 100.667 18.667 110 56z" />
    <glyph glyph-name="two.dnom" horiz-adv-x="323" 
d="M164 399c41.333 0 73 -10.165 95 -30.498s33 -48.5 33 -84.5c0 -36.667 -17.667 -74.334 -53 -113.001l-86 -93h140v-78h-255v60l128 139c28 31.333 42 57.666 42 78.999c0 29.333 -15 44 -45 44c-32 0 -48 -17.667 -48 -53h-83c-0.666992 38.667 11.333 70 36 94
s56.667 36 96 36z" />
    <glyph glyph-name="three.dnom" horiz-adv-x="352" 
d="M302 284c0 -38.667 -17.3301 -65.333 -51.9971 -80c44 -14 66 -44 66 -90c0 -37.333 -12.667 -66.833 -38 -88.5s-59 -32.5 -101 -32.5c-44 0 -78.5 11.167 -103.5 33.5s-37.5 53.5 -37.5 93.5h82c1.33301 -34 21.666 -51 60.999 -51c16 0 29 4.5 39 13.5
s15 20.833 15 35.5c0 34 -24 51 -72 51h-25v67h24c39.333 0 59 15 59 45c2.66699 19.333 -6.33301 32.333 -27 39c-22.667 6.66699 -41 3 -55 -11c-8.66699 -8.66699 -12.334 -20 -11.001 -34h-83c0 38.667 11.667 69 35 91s55 33 95 33c39.333 0 70.666 -10.667 93.999 -32
s35 -49 35 -83z" />
    <glyph glyph-name="four.dnom" horiz-adv-x="371" 
d="M183 392h103v-251h53v-73h-53v-68h-83v68h-177v66zM204 141v151l-11 -22l-80 -129h91z" />
    <glyph glyph-name="five.dnom" horiz-adv-x="350" 
d="M52 392l244 0.00195312v-78h-161v-76c16 8 35 12 57 12c37.333 0 67.5 -10.5 90.5 -31.5s34.5 -50.5 34.5 -88.5c0 -40.667 -12.667 -73.667 -38 -99s-59 -38 -101 -38c-44 0 -78 10.667 -102 32s-36 51.666 -36 90.999h82c0.666992 -30.667 19.334 -46 56.001 -46
c18 0 32 5.16699 42 15.5s15 24.166 15 41.499s-5 31 -15 41s-24 15 -42 15c-18.667 0 -36.334 -4.66699 -53.001 -14h-73v223z" />
    <glyph glyph-name="six.dnom" horiz-adv-x="359" 
d="M188 399c38 0 68.832 -10.833 92.499 -32.5s35.834 -50.5 36.501 -86.5h-83c-4 28 -20.667 42 -50 42c-44 0 -66 -35 -66 -105c18.667 18.667 45 28 79 28c38 0 68.667 -11 92 -33s35 -51 35 -87c0 -40 -12.667 -72 -38 -96s-59 -36 -101 -36c-44.667 0 -80 14 -106 42
c-30 32.667 -45 84 -45 154c0 140 51.333 210 154 210zM181.999 176c-16 0 -29.8311 -4.50098 -41.498 -13.501s-17.834 -20.5 -18.501 -34.5v-4c0 -14.667 5.66699 -27.5 17 -38.5s25.666 -16.5 42.999 -16.5s31.333 4.83301 42 14.5s16 22.834 16 39.501
c0 15.333 -5.5 28 -16.5 38s-24.833 15 -41.5 15z" />
    <glyph glyph-name="seven.dnom" horiz-adv-x="312" 
d="M27 392h261v-66l-154 -326h-90l148 313h-165v79z" />
    </font>
</defs>
</svg>
